<svg width="200" height="200" version="1.1" xmlns="http://www.w3.org/2000/svg" desc="Created with ImageTracer.java version 1.1.2" viewbox="0 0 200 200"><path desc="l 7 p 0" fill="rgb(0,0,0)" stroke="rgb(0,0,0)" stroke-width="1" opacity="0.0" d="M 0.5 0.0 L 62.0 0.5 L 66.0 8.5 L 68.0 11.5 L 69.0 17.5 L 69.0 26.5 L 63.0 34.5 L 61.0 38.5 L 59.5 45.0 L 59.0 62.5 L 62.0 71.5 L 67.5 87.0 L 68.5 82.0 L 79.0 93.5 L 82.0 96.5 L 83.0 99.5 L 83.0 108.5 L 83.0 142.5 L 77.5 143.0 L 62.5 119.0 L 62.0 166.5 L 89.0 167.5 L 78.5 200.0 L 0.0 199.5 L 0.5 0.0 Z" /><path desc="l 7 p 1" fill="rgb(0,0,0)" stroke="rgb(0,0,0)" stroke-width="1" opacity="0.0" d="M 64.5 0.0 L 136.0 0.5 L 125.5 7.0 L 112.0 19.5 L 110.0 23.5 L 108.5 29.0 L 108.0 34.5 L 110.0 40.5 L 111.5 43.0 L 118.5 51.0 L 126.0 56.5 L 129.0 63.5 L 130.0 67.5 L 130.5 70.0 L 131.0 79.5 L 128.0 77.5 L 100.5 39.0 L 69.5 81.0 L 69.0 71.5 L 71.0 65.5 L 73.0 59.5 L 74.0 57.5 L 77.5 53.0 L 80.5 51.0 L 88.0 44.5 L 90.0 40.5 L 91.5 35.0 L 92.0 29.5 L 90.0 23.5 L 85.5 17.0 L 76.5 8.0 L 67.5 3.0 L 65.5 1.0 Q 63.1 0.9 64.5 0.0 Z" /><path desc="l 7 p 2" fill="rgb(0,0,0)" stroke="rgb(0,0,0)" stroke-width="1" opacity="0.0" d="M 138.5 0.0 L 200.0 0.5 L 199.5 200.0 L 142.5 200.0 L 127.5 200.0 L 124.5 200.0 Q 121.5 200.5 121.0 198.5 L 112.0 167.5 L 139.0 166.5 L 138.5 119.0 L 137.0 119.5 L 127.0 136.5 L 122.5 143.0 L 117.0 142.5 L 117.0 109.5 L 117.0 101.5 Q 116.3 97.8 118.5 97.0 L 121.0 93.5 L 131.5 81.0 L 132.5 87.0 L 135.0 81.5 L 139.0 68.5 L 140.5 63.0 L 141.0 58.5 L 141.0 44.5 L 139.0 38.5 L 133.5 31.0 L 131.5 27.0 L 131.0 23.5 L 131.0 14.5 L 134.5 7.0 L 138.5 0.0 Z" /><path desc="l 6 p 0" fill="rgb(195,135,11)" stroke="rgb(195,135,11)" stroke-width="1" opacity="0.9803921568627451" d="M 63.5 1.0 L 73.0 6.5 L 87.0 19.5 L 90.5 27.0 L 91.0 36.5 L 89.0 41.5 L 81.5 50.0 L 74.0 55.5 L 71.0 61.5 L 69.0 69.5 L 67.5 85.0 L 62.0 69.5 L 59.5 59.0 L 59.0 50.5 L 60.0 47.5 L 60.5 43.0 L 62.0 38.5 L 65.5 33.0 L 69.0 27.5 L 69.5 25.0 L 70.0 16.5 L 67.0 7.5 L 63.5 1.0 Z" /><path desc="l 6 p 1" fill="rgb(195,135,11)" stroke="rgb(195,135,11)" stroke-width="1" opacity="0.9803921568627451" d="M 136.5 1.0 L 136.0 2.5 L 133.0 8.5 L 131.0 13.5 L 130.5 16.0 L 130.0 24.5 Q 131.8 25.3 131.0 28.5 L 136.0 34.5 L 139.0 40.5 L 140.0 46.5 L 140.5 50.0 L 141.0 58.5 L 137.0 72.5 L 132.5 85.0 L 131.0 67.5 L 128.0 59.5 L 123.5 53.0 L 113.0 44.5 L 109.5 37.0 L 109.0 27.5 L 111.0 23.5 L 115.5 17.0 L 123.5 9.0 L 136.5 1.0 Z" /><path desc="l 6 p 2" fill="rgb(195,135,11)" stroke="rgb(195,135,11)" stroke-width="1" opacity="0.9803921568627451" d="M 49.5 9.0 L 55.0 15.5 L 57.5 22.0 L 58.0 33.5 L 52.5 52.0 L 50.0 61.5 L 49.5 64.0 L 49.0 71.5 L 50.5 76.0 L 53.5 81.0 L 58.5 86.0 L 66.5 92.0 L 75.0 99.5 L 78.0 107.5 L 78.5 111.0 L 79.0 120.5 Q 77.3 121.3 78.0 124.5 L 77.5 131.0 L 72.0 125.5 L 66.0 116.5 L 60.5 109.0 L 51.5 100.0 L 36.0 86.5 L 32.0 78.5 L 30.5 73.0 L 30.0 58.5 L 31.0 56.5 L 31.0 53.5 L 35.0 42.5 L 42.0 31.5 L 47.0 23.5 L 48.5 21.0 L 49.0 17.5 L 49.5 9.0 Z" /><path desc="l 6 p 3" fill="rgb(195,135,11)" stroke="rgb(195,135,11)" stroke-width="1" opacity="0.9803921568627451" d="M 150.5 9.0 L 151.0 16.5 L 151.5 21.0 L 153.0 23.5 L 161.0 36.5 L 164.0 41.5 L 168.0 50.5 L 169.5 57.0 L 170.0 72.5 L 168.0 78.5 L 165.0 84.5 L 162.0 88.5 L 155.5 95.0 L 149.5 100.0 L 137.0 111.5 L 132.0 119.5 L 123.5 130.0 L 122.0 129.5 L 121.0 112.5 L 123.0 105.5 L 124.0 102.5 L 127.0 97.5 L 132.5 92.0 L 140.5 86.0 L 148.0 79.5 L 150.5 73.0 L 151.0 64.5 L 145.5 46.0 L 142.5 34.0 L 142.0 22.5 L 144.0 18.5 L 146.5 14.0 L 150.5 9.0 Z" /><path desc="l 0 p 0" fill="rgb(232,208,157)" stroke="rgb(232,208,157)" stroke-width="1" opacity="0.996078431372549" d="M 74.5 15.0 Q 78.3 14.3 79.0 16.5 L 85.5 26.0 L 87.0 29.5 L 87.0 35.5 L 85.5 39.0 L 78.5 47.0 L 71.0 52.5 L 64.5 66.0 L 63.0 53.5 L 64.0 51.5 L 64.0 46.5 L 65.0 43.5 L 67.0 38.5 L 70.0 34.5 L 72.5 30.0 L 73.5 27.0 L 74.0 22.5 L 74.5 15.0 Z" /><path desc="l 0 p 1" fill="rgb(232,208,157)" stroke="rgb(232,208,157)" stroke-width="1" opacity="0.996078431372549" d="M 123.5 15.0 L 127.0 15.5 L 126.0 18.5 L 126.0 26.5 L 128.0 30.5 L 129.0 32.5 L 132.5 37.0 L 135.5 44.0 L 136.0 48.5 L 137.0 56.5 L 136.0 59.5 L 135.5 66.0 L 132.0 57.5 L 126.5 50.0 L 116.0 41.5 L 113.5 36.0 L 113.0 29.5 L 118.0 20.5 L 121.5 16.0 L 123.5 15.0 Z" /><path desc="l 0 p 2" fill="rgb(232,208,157)" stroke="rgb(232,208,157)" stroke-width="1" opacity="0.996078431372549" d="M 52.5 24.0 L 53.0 33.5 L 48.5 48.0 L 45.0 62.5 L 44.0 69.5 L 45.0 72.5 L 45.5 76.0 L 46.0 78.5 L 49.0 82.5 L 54.5 89.0 L 62.0 94.5 L 71.0 102.5 L 72.5 106.0 L 73.5 111.0 L 74.0 118.5 L 72.0 117.5 L 70.0 113.5 L 64.0 105.5 L 53.5 95.0 L 48.5 91.0 L 40.0 83.5 L 37.0 77.5 L 35.5 72.0 L 35.0 58.5 L 36.0 56.5 L 36.0 53.5 L 45.0 36.5 L 52.5 24.0 Z" /><path desc="l 0 p 3" fill="rgb(232,208,157)" stroke="rgb(232,208,157)" stroke-width="1" opacity="0.996078431372549" d="M 147.5 24.0 L 158.0 41.5 L 162.0 48.5 L 164.0 55.5 L 165.0 61.5 L 165.0 72.5 L 162.5 79.0 L 160.0 82.5 L 152.5 91.0 L 146.5 96.0 L 133.0 108.5 L 126.5 119.0 L 126.0 111.5 L 127.5 106.0 L 130.5 101.0 L 135.5 96.0 L 143.5 90.0 L 151.0 83.5 L 152.5 81.0 L 155.0 73.5 L 156.0 66.5 Q 154.3 65.8 155.0 62.5 L 153.5 55.0 L 150.0 42.5 L 147.5 34.0 L 147.5 24.0 Z" /><path desc="l 6 p 4" fill="rgb(195,135,11)" stroke="rgb(195,135,11)" stroke-width="1" opacity="0.9803921568627451" d="M 99.5 41.0 L 103.0 43.5 L 121.0 68.5 L 127.5 77.0 L 129.0 79.5 L 130.0 82.5 L 119.5 94.0 L 117.5 97.0 Q 115.3 97.8 116.0 101.5 L 116.0 109.5 L 116.0 142.5 L 118.5 144.0 L 122.5 144.0 L 129.0 134.5 L 137.5 120.0 L 138.0 165.5 L 111.0 166.5 L 121.0 199.5 L 79.5 200.0 L 80.0 198.5 L 90.0 166.5 L 62.0 165.5 L 62.5 120.0 L 77.5 144.0 L 80.5 144.0 Q 83.5 144.5 84.0 142.5 L 84.0 109.5 L 84.0 100.5 Q 84.8 97.3 83.0 96.5 L 80.0 93.5 L 70.0 81.5 L 99.5 41.0 Z" /><path desc="l 0 p 4" fill="rgb(232,208,157)" stroke="rgb(232,208,157)" stroke-width="1" opacity="0.996078431372549" d="M 99.5 49.0 L 103.0 51.5 L 116.0 70.5 L 120.5 76.0 L 123.0 79.5 L 124.0 82.5 L 114.5 93.0 L 113.0 94.5 Q 111.3 95.3 112.0 98.5 L 112.0 107.5 L 112.0 128.5 L 112.0 134.5 L 111.0 138.5 L 112.0 141.5 L 109.5 143.0 L 105.5 143.0 L 89.5 143.0 L 89.0 108.5 L 89.0 99.5 Q 89.8 96.3 88.0 95.5 L 85.5 92.0 L 80.0 86.5 L 76.0 80.5 L 99.5 49.0 Z" /><path desc="l 6 p 5" fill="rgb(195,135,11)" stroke="rgb(195,135,11)" stroke-width="1" opacity="0.9803921568627451" d="M 100.5 58.0 L 113.0 74.5 L 117.0 81.5 L 109.0 90.5 L 107.0 93.5 L 106.0 96.5 L 106.0 105.5 L 105.5 137.0 L 100.0 136.5 L 100.5 135.0 L 104.0 133.5 L 104.0 107.5 L 104.5 98.0 L 105.0 96.5 L 105.5 94.0 L 107.5 91.0 L 111.0 86.5 L 113.5 83.0 L 114.0 78.5 L 101.5 63.0 L 100.0 62.5 L 100.5 58.0 Z" /><path desc="l 6 p 6" fill="rgb(195,135,11)" stroke="rgb(195,135,11)" stroke-width="1" opacity="0.9803921568627451" d="M 101.5 67.0 L 108.0 72.5 L 111.0 77.5 L 112.0 79.5 L 112.0 82.5 L 104.0 93.5 L 102.0 98.5 L 102.0 105.5 L 101.5 132.0 L 100.0 131.5 L 100.0 84.5 L 100.0 72.5 Q 99.0 68.0 101.5 67.0 Z" /><path desc="l 5 p 0" fill="rgb(197,137,0)" stroke="rgb(197,137,0)" stroke-width="1" opacity="0.23137254901960785" d="M 68.5 73.0 L 69.5 81.0 L 75.5 73.0 L 74.0 75.5 L 70.0 82.5 L 80.0 93.5 L 83.0 96.5 L 84.0 99.5 L 84.0 108.5 L 84.0 142.5 L 81.5 144.0 L 77.5 144.0 L 62.0 119.5 L 65.0 121.5 L 77.5 143.0 L 83.0 142.5 L 83.0 109.5 L 83.0 100.5 Q 83.8 96.8 81.5 96.0 L 75.5 90.0 L 70.5 84.0 L 69.0 82.5 L 68.0 79.5 L 68.5 73.0 Z" /><path desc="l 5 p 1" fill="rgb(197,137,0)" stroke="rgb(197,137,0)" stroke-width="1" opacity="0.23137254901960785" d="M 131.5 73.0 L 132.0 80.5 L 121.5 93.0 L 118.5 97.0 Q 116.5 97.5 117.0 100.5 L 117.0 109.5 L 117.0 142.5 L 122.5 143.0 L 125.0 141.5 Q 123.8 145.3 117.5 144.0 Q 115.5 143.5 116.0 140.5 L 116.0 131.5 L 116.0 98.5 L 126.0 86.5 L 129.0 83.5 L 130.0 80.5 L 128.5 78.0 L 131.0 79.5 L 131.5 73.0 Z" /><path desc="l 5 p 2" fill="rgb(197,137,0)" stroke="rgb(197,137,0)" stroke-width="1" opacity="0.23137254901960785" d="M 50.5 74.0 L 52.5 78.0 L 58.5 85.0 L 66.5 91.0 L 75.0 98.5 L 73.0 97.5 L 67.5 92.0 L 59.5 86.0 L 52.0 79.5 L 50.5 76.0 L 50.5 74.0 Z" /><path desc="l 5 p 3" fill="rgb(197,137,0)" stroke="rgb(197,137,0)" stroke-width="1" opacity="0.23137254901960785" d="M 148.5 77.0 L 148.0 78.5 L 141.5 86.0 L 133.5 92.0 L 125.5 99.0 L 126.5 97.0 L 132.5 91.0 L 140.5 85.0 L 147.0 79.5 L 148.5 77.0 Z" /><path desc="l 5 p 4" fill="rgb(197,137,0)" stroke="rgb(197,137,0)" stroke-width="1" opacity="0.23137254901960785" d="M 32.5 80.0 L 36.0 85.5 L 44.5 95.0 L 50.0 99.5 L 48.5 99.0 L 45.5 96.0 L 35.0 86.5 L 33.0 83.5 L 32.5 80.0 Z" /><path desc="l 5 p 5" fill="rgb(197,137,0)" stroke="rgb(197,137,0)" stroke-width="1" opacity="0.23137254901960785" d="M 167.5 80.0 L 168.0 81.5 L 163.0 88.5 L 155.5 96.0 L 150.5 100.0 L 151.0 98.5 L 154.5 95.0 L 164.0 86.5 L 167.5 80.0 Z" /><path desc="l 5 p 6" fill="rgb(197,137,0)" stroke="rgb(197,137,0)" stroke-width="1" opacity="0.23137254901960785" d="M 11.5 93.0 L 14.0 93.5 Q 12.0 94.5 14.0 95.5 L 17.0 98.5 L 25.0 106.5 L 27.0 108.5 L 27.5 110.0 L 11.0 94.5 L 11.5 93.0 Z" /><path desc="l 5 p 7" fill="rgb(197,137,0)" stroke="rgb(197,137,0)" stroke-width="1" opacity="0.23137254901960785" d="M 186.5 93.0 L 189.0 93.5 L 187.5 96.0 L 173.0 109.5 L 166.5 121.0 L 166.0 119.5 L 170.5 112.0 L 175.5 106.0 L 187.0 94.5 L 186.5 93.0 Z" /><path desc="l 6 p 7" fill="rgb(195,135,11)" stroke="rgb(195,135,11)" stroke-width="1" opacity="0.9803921568627451" d="M 13.5 94.0 L 28.5 99.0 L 39.5 105.0 L 50.0 112.5 L 56.0 121.5 L 57.5 125.0 L 58.0 128.5 L 58.0 138.5 L 54.5 146.0 L 53.5 148.0 L 53.0 151.5 L 60.0 166.5 L 58.5 166.0 L 41.5 160.0 L 34.5 158.0 L 27.0 152.5 L 24.0 147.5 L 23.0 144.5 L 23.0 138.5 L 22.5 135.0 L 20.0 126.5 L 16.0 115.5 L 17.5 116.0 L 24.5 120.0 L 35.5 127.0 L 36.0 124.5 L 33.0 118.5 L 29.5 112.0 L 25.5 107.0 L 16.5 98.0 L 14.0 95.5 L 13.5 94.0 Z" /><path desc="l 6 p 8" fill="rgb(195,135,11)" stroke="rgb(195,135,11)" stroke-width="1" opacity="0.9803921568627451" d="M 185.5 94.0 L 187.0 94.5 L 173.5 108.0 L 167.5 117.0 L 164.0 126.5 L 166.5 125.0 L 183.5 115.0 L 184.0 116.5 L 180.0 125.5 L 177.0 137.5 L 177.0 143.5 L 175.0 148.5 L 170.5 155.0 L 162.5 159.0 L 158.0 160.5 L 150.5 163.0 L 140.5 167.0 L 141.0 165.5 L 145.0 156.5 L 146.5 153.0 L 147.0 148.5 L 143.5 142.0 L 142.0 135.5 L 142.0 125.5 L 144.0 121.5 L 148.5 115.0 L 156.5 107.0 L 161.5 104.0 L 176.5 97.0 L 185.5 94.0 Z" /><path desc="l 5 p 8" fill="rgb(197,137,0)" stroke="rgb(197,137,0)" stroke-width="1" opacity="0.23137254901960785" d="M 148.5 100.0 L 146.5 103.0 L 138.0 111.5 L 130.5 123.0 L 123.5 132.0 L 122.0 131.5 L 122.5 130.0 L 128.0 125.5 L 135.0 115.5 L 139.5 109.0 L 148.5 100.0 Z" /><path desc="l 5 p 9" fill="rgb(197,137,0)" stroke="rgb(197,137,0)" stroke-width="1" opacity="0.23137254901960785" d="M 38.5 103.0 L 51.0 112.5 L 56.0 119.5 L 54.0 118.5 L 49.5 112.0 L 41.5 106.0 L 39.0 104.5 L 38.5 103.0 Z" /><path desc="l 5 p 10" fill="rgb(197,137,0)" stroke="rgb(197,137,0)" stroke-width="1" opacity="0.23137254901960785" d="M 161.5 103.0 L 160.5 105.0 L 154.0 109.5 L 146.0 117.5 L 144.5 120.0 L 145.0 118.5 L 150.5 111.0 L 161.5 103.0 Z" /><path desc="l 0 p 5" fill="rgb(232,208,157)" stroke="rgb(232,208,157)" stroke-width="1" opacity="0.996078431372549" d="M 31.5 106.0 L 34.5 107.0 L 38.0 109.5 L 47.0 116.5 L 49.0 119.5 L 53.0 126.5 L 54.0 132.5 L 53.0 134.5 L 53.0 137.5 L 52.0 140.5 L 50.0 143.5 L 49.0 145.5 L 48.0 147.5 L 48.0 152.5 L 50.0 157.5 L 48.5 157.0 L 40.0 154.5 L 34.5 152.0 L 30.0 148.5 L 28.0 142.5 L 27.5 138.0 L 26.5 131.0 L 25.0 126.5 L 26.5 126.0 L 35.0 133.5 L 37.5 137.0 Q 40.5 137.5 41.0 135.5 L 40.5 125.0 L 39.0 120.5 L 34.0 109.5 L 32.0 107.5 L 31.5 106.0 Z" /><path desc="l 0 p 6" fill="rgb(232,208,157)" stroke="rgb(232,208,157)" stroke-width="1" opacity="0.996078431372549" d="M 166.5 106.0 L 169.0 106.5 L 165.0 111.5 L 162.0 117.5 L 160.0 123.5 L 159.0 127.5 L 159.0 135.5 Q 159.5 137.5 162.5 137.0 L 171.5 127.0 L 174.5 126.0 L 174.0 127.5 L 172.0 141.5 L 172.0 144.5 L 171.0 146.5 L 167.5 151.0 L 158.0 155.5 L 150.5 158.0 L 150.0 155.5 L 151.5 153.0 L 152.0 146.5 L 147.0 138.5 L 147.0 135.5 L 146.0 132.5 L 147.0 130.5 L 147.0 127.5 L 150.5 120.0 L 159.5 111.0 L 166.5 106.0 Z" /><path desc="l 5 p 11" fill="rgb(197,137,0)" stroke="rgb(197,137,0)" stroke-width="1" opacity="0.23137254901960785" d="M 137.5 119.0 L 139.0 119.5 L 138.5 167.0 L 112.0 167.5 L 111.5 169.0 L 111.0 166.5 L 138.0 165.5 L 138.0 131.5 L 138.0 123.5 L 137.5 119.0 Z" /><path desc="l 6 p 9" fill="rgb(195,135,11)" stroke="rgb(195,135,11)" stroke-width="1" opacity="0.9803921568627451" d="M 152.5 129.0 L 154.0 136.5 L 154.5 139.0 L 157.5 142.0 L 162.5 143.0 L 165.5 142.0 L 166.0 144.5 L 163.5 147.0 L 158.5 149.0 L 154.5 141.0 L 152.5 135.0 L 152.5 129.0 Z" /><path desc="l 0 p 7" fill="rgb(232,208,157)" stroke="rgb(232,208,157)" stroke-width="1" opacity="0.996078431372549" d="M 67.5 137.0 L 74.5 148.0 L 112.5 148.0 L 121.5 148.0 L 126.0 147.5 L 128.0 145.5 L 132.5 138.0 L 133.0 160.5 L 67.5 161.0 L 67.5 137.0 Z" /><path desc="l 0 p 8" fill="rgb(232,208,157)" stroke="rgb(232,208,157)" stroke-width="1" opacity="0.996078431372549" d="M 94.5 165.0 L 106.0 165.5 L 112.5 186.0 L 114.5 192.0 L 115.0 195.5 L 85.5 196.0 L 85.0 193.5 L 87.0 189.5 L 88.0 184.5 L 94.5 165.0 Z" /></svg>