<svg width="200" height="200" version="1.1" xmlns="http://www.w3.org/2000/svg" desc="Created with ImageTracer.java version 1.1.2" ><path desc="l 1 p 0" fill="rgb(0,0,0)" stroke="rgb(0,0,0)" stroke-width="1" opacity="0.0" d="M 0.5 0.0 L 200.0 0.5 L 199.5 200.0 L 0.0 199.5 L 0.5 0.0 Z" /><path desc="l 5 p 0" fill="rgb(137,3,171)" stroke="rgb(137,3,171)" stroke-width="1" opacity="0.9921568627450981" d="M 90.5 9.0 L 111.5 9.0 L 120.0 9.5 L 123.5 10.0 L 132.5 12.0 L 143.0 15.5 L 153.0 20.5 L 172.0 38.5 L 171.5 42.0 L 168.0 41.5 L 163.5 39.0 L 149.5 32.0 L 139.5 27.0 L 132.5 25.0 L 130.0 24.5 L 123.5 24.0 L 104.5 24.0 L 101.5 25.0 L 94.0 26.5 L 83.0 30.5 L 72.0 36.5 L 74.5 37.0 L 81.5 34.0 L 88.0 32.5 L 92.5 32.0 L 103.5 31.0 L 105.5 32.0 L 108.5 32.0 L 113.0 32.5 L 121.5 35.0 L 129.0 37.5 L 141.0 44.5 L 156.0 58.5 L 159.0 63.5 L 165.5 77.0 L 169.5 91.0 L 195.0 91.5 L 196.0 106.5 L 195.0 108.5 L 195.0 111.5 L 193.5 121.0 L 190.5 130.0 L 185.5 141.0 L 178.5 151.0 L 162.5 168.0 L 154.5 173.0 L 139.5 181.0 L 133.0 183.5 L 120.5 187.0 L 108.5 189.0 L 103.0 189.5 L 89.5 190.0 L 87.5 189.0 L 84.5 189.0 L 76.5 188.0 Q 73.3 188.8 72.5 187.0 L 67.5 186.0 L 61.5 184.0 L 55.0 181.5 L 46.0 176.5 L 36.0 167.5 L 31.0 161.5 L 29.5 160.0 L 29.0 157.5 Q 29.5 155.5 32.5 156.0 L 55.0 168.5 L 64.5 172.0 L 73.5 174.0 L 77.0 174.5 L 90.5 175.0 L 92.5 174.0 L 97.5 174.0 L 113.0 169.5 L 107.5 169.0 L 104.5 170.0 L 95.5 170.0 Q 94.8 168.3 91.5 169.0 L 87.0 168.5 L 78.5 166.0 L 67.5 161.0 L 62.5 158.0 L 55.5 153.0 L 46.0 143.5 L 37.5 129.0 L 34.0 119.5 L 31.5 107.0 L 6.0 106.5 L 5.0 90.5 L 6.0 88.5 L 6.0 83.5 L 9.5 71.0 L 12.5 63.0 L 17.0 54.5 L 24.5 44.0 L 37.5 31.0 L 55.5 20.0 L 75.5 12.0 L 86.5 10.0 Q 89.8 10.8 90.5 9.0 Z" /><path desc="l 3 p 0" fill="rgb(249,228,254)" stroke="rgb(249,228,254)" stroke-width="1" opacity="0.996078431372549" d="M 102.5 13.0 L 107.0 13.5 L 119.5 14.0 L 129.5 16.0 L 140.5 20.0 L 146.0 22.5 L 152.0 26.5 L 150.5 26.0 L 140.5 22.0 L 131.5 20.0 L 129.0 19.5 L 122.5 19.0 L 104.5 19.0 L 102.5 20.0 L 98.5 20.0 L 87.5 24.0 L 83.5 25.0 L 79.5 27.0 L 66.0 34.5 L 50.0 48.5 L 41.0 61.5 L 35.0 73.5 L 32.0 83.5 L 30.0 92.5 L 28.5 102.0 L 10.0 101.5 L 10.5 89.0 L 12.0 80.5 L 15.0 69.5 L 19.0 60.5 L 25.0 51.5 L 40.5 35.0 L 56.5 25.0 L 64.0 21.5 L 73.5 18.0 L 82.5 16.0 L 89.0 14.5 L 95.5 14.0 L 99.5 14.0 L 102.5 13.0 Z" /><path desc="l 0 p 0" fill="rgb(232,172,248)" stroke="rgb(232,172,248)" stroke-width="1" opacity="0.996078431372549" d="M 90.5 17.0 L 97.0 17.5 L 80.5 23.0 L 63.0 32.5 L 46.0 48.5 L 43.0 52.5 L 36.0 64.5 L 33.0 70.5 L 29.0 81.5 L 26.5 96.0 L 25.0 95.5 L 26.0 93.5 L 26.0 88.5 L 29.5 76.0 L 32.0 69.5 L 37.0 59.5 L 45.5 47.0 L 58.5 34.0 L 64.5 30.0 L 84.0 20.5 L 80.5 20.0 L 72.5 23.0 L 64.5 26.0 L 53.5 32.0 L 43.5 39.0 L 31.0 50.5 L 22.5 64.0 L 19.0 71.5 L 16.0 81.5 L 15.5 84.0 L 15.0 90.5 L 15.0 93.5 L 14.0 96.5 Q 14.5 98.5 17.5 98.0 L 24.5 98.0 L 26.0 97.5 L 25.5 99.0 L 14.0 98.5 L 13.0 92.5 L 14.0 90.5 L 14.0 87.5 L 14.5 83.0 L 17.0 74.5 L 19.5 67.0 L 26.5 55.0 L 30.0 50.5 L 40.5 39.0 L 55.5 29.0 L 63.5 25.0 L 75.5 21.0 L 90.5 17.0 Z" /><path desc="l 3 p 1" fill="rgb(249,228,254)" stroke="rgb(249,228,254)" stroke-width="1" opacity="0.996078431372549" d="M 90.5 36.0 L 111.0 36.5 L 117.5 38.0 L 125.5 41.0 L 130.5 43.0 L 138.0 47.5 L 152.0 60.5 L 155.0 65.5 L 159.5 74.0 L 161.0 78.5 L 163.5 85.0 L 164.5 91.0 L 165.0 109.5 L 161.5 122.0 L 159.0 128.5 L 151.5 140.0 L 142.5 150.0 L 131.5 157.0 L 125.5 160.0 L 118.0 162.5 L 108.0 164.5 L 93.5 165.0 L 91.5 164.0 L 87.5 164.0 L 77.5 161.0 L 69.0 156.5 L 59.5 150.0 L 53.0 144.5 L 47.5 137.0 L 42.0 127.5 L 39.0 119.5 L 37.0 111.5 L 36.5 108.0 L 36.0 93.5 L 39.5 80.0 L 41.0 75.5 L 46.0 66.5 L 52.5 57.0 L 59.5 50.0 L 65.5 46.0 L 73.5 42.0 L 82.5 38.0 L 87.5 37.0 L 90.5 36.0 Z" /><path desc="l 0 p 1" fill="rgb(232,172,248)" stroke="rgb(232,172,248)" stroke-width="1" opacity="0.996078431372549" d="M 98.5 38.0 L 107.5 39.0 L 112.0 39.5 L 117.5 41.0 L 123.5 43.0 L 130.5 46.0 L 141.0 53.5 L 150.0 62.5 L 157.0 74.5 L 156.0 77.5 L 157.0 77.5 L 157.5 76.0 L 161.0 85.5 L 159.0 85.5 L 156.5 84.0 L 154.5 83.0 L 151.5 84.0 L 153.0 81.5 L 154.5 78.0 L 155.0 72.5 L 151.5 68.0 L 148.5 67.0 L 142.5 67.0 L 137.5 69.0 L 135.0 70.5 L 129.0 75.5 L 127.5 79.0 L 127.0 84.5 L 130.0 88.5 L 127.5 89.0 L 121.5 87.0 L 114.0 90.5 L 113.5 93.0 L 111.0 93.5 L 111.5 95.0 L 109.0 91.5 L 108.0 85.5 L 109.0 82.5 L 109.5 77.0 L 113.0 49.5 L 107.5 42.0 L 104.0 40.5 L 96.5 40.0 L 89.0 45.5 L 86.5 53.0 L 82.0 48.5 L 78.5 47.0 L 72.5 47.0 L 69.5 50.0 Q 67.5 50.5 68.0 53.5 L 68.0 60.5 L 75.5 72.0 L 79.5 74.0 L 84.5 75.0 L 89.5 71.0 L 91.5 83.0 L 92.0 90.5 L 90.0 94.5 L 88.5 100.0 L 87.0 100.5 L 86.5 102.0 L 84.5 101.0 L 81.5 101.0 L 77.0 103.5 L 72.0 107.5 L 71.0 110.5 L 71.5 112.0 L 69.0 110.5 L 71.0 109.5 L 70.5 108.0 L 68.0 109.5 L 61.5 110.0 L 56.5 112.0 L 48.0 119.5 L 46.5 127.0 L 45.5 125.0 L 44.5 127.0 L 42.0 118.5 L 40.0 111.5 L 39.0 101.5 L 40.0 101.5 L 44.5 107.0 L 49.0 108.5 L 59.5 109.0 L 62.5 108.0 L 69.0 102.5 L 70.0 98.5 L 69.0 96.5 L 64.5 91.0 L 59.0 89.5 L 49.5 89.0 L 46.5 90.0 L 40.0 95.5 L 39.5 97.0 L 39.0 92.5 L 43.0 78.5 L 47.0 70.5 L 51.5 63.0 L 60.5 53.0 L 67.0 48.5 L 75.5 44.0 L 85.5 40.0 L 93.5 39.0 L 96.5 39.0 L 98.5 38.0 Z" /><path desc="l 3 p 2" fill="rgb(249,228,254)" stroke="rgb(249,228,254)" stroke-width="1" opacity="0.996078431372549" d="M 96.5 40.0 L 101.5 40.0 L 104.5 41.0 L 106.5 42.0 L 111.0 45.5 L 112.5 49.0 L 113.0 52.5 L 112.0 55.5 L 111.5 61.0 L 108.0 89.5 L 114.5 99.0 L 138.0 112.5 L 145.0 116.5 L 150.0 120.5 L 150.5 122.0 L 151.0 128.5 L 147.5 131.0 L 144.5 132.0 L 142.5 131.0 L 139.5 130.0 L 132.5 126.0 L 120.5 119.0 L 109.5 113.0 L 107.0 111.5 L 103.5 111.0 L 101.5 112.0 L 98.5 112.0 L 96.5 111.0 L 91.0 106.5 L 89.5 102.0 L 89.0 97.5 L 91.0 92.5 L 91.5 91.0 L 92.0 83.5 Q 90.3 82.8 91.0 79.5 L 89.5 71.0 Q 87.5 75.0 81.5 75.0 L 73.0 69.5 L 69.0 63.5 L 68.5 61.0 L 68.0 51.5 L 71.0 48.5 L 73.5 47.0 L 79.5 47.0 L 86.5 53.0 L 88.0 47.5 L 92.5 42.0 L 96.5 40.0 Z" /><path desc="l 5 p 1" fill="rgb(137,3,171)" stroke="rgb(137,3,171)" stroke-width="1" opacity="0.9921568627450981" d="M 98.5 43.0 L 103.0 43.5 L 105.5 45.0 L 109.0 48.5 L 108.5 57.0 L 108.0 60.5 L 106.5 73.0 L 105.5 81.0 L 105.0 90.5 L 111.5 101.0 L 146.0 120.5 L 147.0 122.5 Q 148.8 123.3 148.0 126.5 Q 147.0 129.0 142.5 128.0 L 119.5 115.0 L 113.5 111.0 L 108.5 108.0 L 104.5 107.0 L 102.5 108.0 L 97.5 108.0 L 93.5 103.0 L 93.0 96.5 L 95.0 92.5 L 95.5 91.0 L 96.0 85.5 Q 94.3 84.8 95.0 81.5 L 93.0 67.5 L 91.5 56.0 L 91.0 49.5 L 95.5 44.0 L 98.5 43.0 Z" /><path desc="l 1 p 1" fill="rgb(0,0,0)" stroke="rgb(0,0,0)" stroke-width="1" opacity="0.0" d="M 100.5 47.0 L 105.0 50.5 L 100.5 86.0 L 98.5 75.0 L 96.0 57.5 L 95.0 51.5 L 97.5 48.0 L 100.5 47.0 Z" /><path desc="l 3 p 3" fill="rgb(249,228,254)" stroke="rgb(249,228,254)" stroke-width="1" opacity="0.996078431372549" d="M 126.5 48.0 L 130.0 48.5 L 134.0 50.5 L 135.5 54.0 L 136.0 60.5 L 134.0 65.5 L 132.5 68.0 L 127.5 74.0 L 124.0 75.5 L 117.5 76.0 L 113.5 71.0 L 113.0 62.5 L 115.5 57.0 L 121.5 50.0 L 126.5 48.0 Z" /><path desc="l 5 p 2" fill="rgb(137,3,171)" stroke="rgb(137,3,171)" stroke-width="1" opacity="0.9921568627450981" d="M 73.5 50.0 L 79.0 50.5 L 84.0 54.5 L 87.5 62.0 L 88.0 67.5 L 85.5 71.0 L 80.0 70.5 L 75.0 66.5 L 71.5 59.0 L 71.0 53.5 L 73.5 50.0 Z" /><path desc="l 5 p 3" fill="rgb(137,3,171)" stroke="rgb(137,3,171)" stroke-width="1" opacity="0.9921568627450981" d="M 126.5 51.0 L 130.0 51.5 L 132.0 53.5 L 133.0 59.5 L 131.0 63.5 L 128.5 68.0 L 124.5 72.0 L 119.5 73.0 L 117.0 70.5 L 116.0 68.5 L 116.0 64.5 L 118.0 60.5 L 120.0 56.5 L 124.5 52.0 L 126.5 51.0 Z" /><path desc="l 3 p 4" fill="rgb(249,228,254)" stroke="rgb(249,228,254)" stroke-width="1" opacity="0.996078431372549" d="M 53.5 66.0 L 59.5 66.0 L 63.0 66.5 L 65.0 67.5 L 70.0 70.5 L 75.0 75.5 L 76.0 79.5 L 76.0 84.5 L 71.0 88.5 L 63.5 89.0 L 58.5 87.0 L 50.0 79.5 L 48.5 76.0 L 48.0 72.5 L 51.5 67.0 L 53.5 66.0 Z" /><path desc="l 5 p 4" fill="rgb(137,3,171)" stroke="rgb(137,3,171)" stroke-width="1" opacity="0.9921568627450981" d="M 54.5 69.0 L 59.5 69.0 L 64.0 70.5 L 66.5 72.0 L 72.0 76.5 L 73.0 82.5 L 71.5 84.0 L 68.5 85.0 L 62.5 85.0 L 60.0 83.5 L 52.0 76.5 Q 50.8 70.3 54.5 69.0 Z" /><path desc="l 5 p 5" fill="rgb(137,3,171)" stroke="rgb(137,3,171)" stroke-width="1" opacity="0.9921568627450981" d="M 142.5 70.0 L 149.0 70.5 L 152.0 72.5 L 151.5 77.0 L 149.5 80.0 L 145.5 84.0 L 140.5 86.0 L 135.5 87.0 L 131.0 84.5 L 130.0 81.5 L 131.0 79.5 L 136.5 73.0 L 142.5 70.0 Z" /><path desc="l 6 p 0" fill="rgb(219,107,248)" stroke="rgb(219,107,248)" stroke-width="1" opacity="0.996078431372549" d="M 154.5 83.0 L 158.5 86.0 Q 159.8 83.8 161.0 86.5 L 161.5 91.0 L 162.0 109.5 L 158.0 122.5 L 154.0 130.5 L 149.5 138.0 L 140.5 148.0 L 131.5 154.0 L 133.0 151.5 L 134.0 147.5 L 134.0 141.5 L 132.0 136.5 L 125.5 129.0 L 122.0 127.5 L 115.5 127.0 L 112.0 130.5 L 110.0 136.5 L 111.5 142.0 L 115.0 147.5 L 119.5 153.0 L 124.5 155.0 L 128.0 155.5 L 119.0 159.5 L 110.0 161.5 L 91.5 162.0 L 85.5 160.0 L 82.0 159.5 L 78.5 158.0 L 75.5 157.0 L 70.5 154.0 L 63.5 150.0 L 53.0 140.5 L 48.0 132.5 L 45.5 128.0 L 45.0 125.5 L 46.0 125.5 L 49.5 132.0 L 54.0 134.5 L 53.5 136.0 L 56.0 134.5 L 55.5 133.0 L 61.0 132.5 L 63.5 131.0 L 65.5 134.0 L 66.0 132.5 Q 63.8 131.3 66.5 130.0 L 74.0 123.5 L 75.0 115.5 L 70.5 110.0 L 68.0 109.5 L 70.5 108.0 L 71.5 110.0 L 73.0 106.5 L 75.5 104.0 L 79.5 102.0 L 85.5 101.0 L 87.0 101.5 L 87.5 100.0 L 89.0 100.5 Q 88.0 105.0 90.5 106.0 L 93.5 110.0 L 98.5 113.0 L 101.5 112.0 L 106.5 111.0 L 110.5 114.0 L 115.0 116.5 L 132.5 126.0 L 138.5 130.0 L 142.0 131.5 L 146.5 132.0 L 151.0 128.5 L 152.0 124.5 L 151.0 122.5 L 145.5 116.0 L 127.5 106.0 L 117.5 100.0 L 112.0 96.5 L 111.0 93.5 L 114.0 92.5 Q 113.5 89.5 115.5 89.0 L 123.5 87.0 L 136.5 91.0 L 139.5 90.0 L 146.0 87.5 L 151.5 84.0 L 154.5 83.0 Z" /><path desc="l 3 p 5" fill="rgb(249,228,254)" stroke="rgb(249,228,254)" stroke-width="1" opacity="0.996078431372549" d="M 144.5 91.0 L 150.5 92.0 L 153.5 93.0 L 159.0 97.5 L 160.0 103.5 L 155.5 109.0 L 151.0 110.5 L 140.5 111.0 L 138.5 110.0 L 135.5 109.0 L 131.0 105.5 L 130.0 99.5 L 134.5 94.0 L 140.5 92.0 Q 143.8 92.8 144.5 91.0 Z" /><path desc="l 5 p 6" fill="rgb(137,3,171)" stroke="rgb(137,3,171)" stroke-width="1" opacity="0.9921568627450981" d="M 51.5 92.0 L 58.0 92.5 L 59.5 93.0 L 62.5 94.0 L 66.0 96.5 L 66.0 99.5 Q 66.5 102.5 64.5 103.0 L 59.5 105.0 L 52.5 106.0 L 44.0 102.5 L 43.0 96.5 L 47.5 93.0 Q 50.8 93.8 51.5 92.0 Z" /><path desc="l 5 p 7" fill="rgb(137,3,171)" stroke="rgb(137,3,171)" stroke-width="1" opacity="0.9921568627450981" d="M 143.5 94.0 L 149.5 95.0 Q 155.1 95.4 157.0 99.5 L 156.5 103.0 L 155.5 105.0 L 153.5 106.0 L 149.0 107.5 L 141.5 108.0 L 138.5 107.0 L 134.0 103.5 Q 132.8 97.3 136.5 96.0 L 143.5 94.0 Z" /><path desc="l 3 p 6" fill="rgb(249,228,254)" stroke="rgb(249,228,254)" stroke-width="1" opacity="0.996078431372549" d="M 172.5 96.0 L 184.5 96.0 L 187.5 96.0 Q 190.5 95.5 191.0 97.5 L 190.5 108.0 L 189.0 117.5 L 187.0 125.5 L 183.0 135.5 L 176.5 146.0 L 166.5 158.0 L 157.0 165.5 L 150.5 170.0 L 142.5 174.0 L 130.0 179.5 L 120.5 182.0 L 113.0 183.5 L 104.0 184.5 L 87.5 185.0 L 85.5 184.0 L 82.5 184.0 L 74.5 183.0 L 59.5 178.0 L 53.5 175.0 L 47.0 170.5 L 48.5 171.0 L 63.5 177.0 L 70.0 178.5 L 78.0 179.5 L 88.5 180.0 Q 89.3 178.3 92.5 179.0 L 95.5 179.0 L 98.5 178.0 L 104.0 177.5 L 109.5 176.0 L 119.0 172.5 L 129.0 167.5 L 134.5 164.0 L 140.5 159.0 L 152.0 148.5 L 159.0 138.5 L 164.0 129.5 L 168.0 118.5 L 169.0 113.5 L 171.0 107.5 L 171.5 100.0 L 172.5 96.0 Z" /><path desc="l 6 p 1" fill="rgb(219,107,248)" stroke="rgb(219,107,248)" stroke-width="1" opacity="0.996078431372549" d="M 175.5 99.0 Q 176.5 101.0 177.5 99.0 L 182.5 99.0 L 185.5 100.0 L 187.0 99.5 L 188.0 106.5 L 187.0 108.5 L 187.0 113.5 L 183.0 127.5 L 180.0 135.5 L 176.5 141.0 L 169.0 150.5 L 158.5 161.0 L 149.5 167.0 L 135.5 174.0 L 128.5 177.0 L 120.5 179.0 L 112.0 180.5 L 104.5 181.0 L 104.5 180.0 L 113.5 178.0 L 121.5 175.0 L 127.5 172.0 L 136.5 166.0 L 145.0 159.5 L 156.0 148.5 L 163.0 137.5 L 168.0 127.5 L 172.0 116.5 L 174.0 105.5 Q 173.3 102.3 175.0 101.5 Q 172.8 100.3 175.5 99.0 Z" /><path desc="l 3 p 7" fill="rgb(249,228,254)" stroke="rgb(249,228,254)" stroke-width="1" opacity="0.996078431372549" d="M 61.5 110.0 L 69.0 110.5 L 73.0 112.5 L 74.5 116.0 L 75.0 119.5 L 73.5 122.0 L 66.5 130.0 L 60.0 132.5 L 52.5 133.0 L 48.0 129.5 L 47.5 128.0 L 47.0 121.5 L 53.5 114.0 L 61.5 110.0 Z" /><path desc="l 5 p 8" fill="rgb(137,3,171)" stroke="rgb(137,3,171)" stroke-width="1" opacity="0.9921568627450981" d="M 63.5 113.0 Q 69.8 111.8 71.0 115.5 L 72.0 118.5 L 71.0 120.5 L 65.5 127.0 L 59.0 129.5 L 54.5 130.0 L 50.0 126.5 L 50.5 123.0 L 52.0 120.5 L 56.5 116.0 L 63.5 113.0 Z" /><path desc="l 3 p 8" fill="rgb(249,228,254)" stroke="rgb(249,228,254)" stroke-width="1" opacity="0.996078431372549" d="M 77.5 125.0 L 82.5 125.0 L 85.0 125.5 L 88.0 128.5 L 89.0 136.5 L 87.0 141.5 L 85.0 144.5 L 79.5 151.0 L 78.0 151.5 L 70.5 152.0 L 66.5 147.0 L 66.0 139.5 L 68.0 134.5 L 75.5 126.0 L 77.5 125.0 Z" /><path desc="l 3 p 9" fill="rgb(249,228,254)" stroke="rgb(249,228,254)" stroke-width="1" opacity="0.996078431372549" d="M 116.5 127.0 L 122.0 127.5 L 123.5 128.0 L 129.0 132.5 L 133.0 140.5 L 134.0 148.5 L 131.5 153.0 L 128.0 154.5 L 124.5 155.0 L 116.0 149.5 L 112.0 141.5 L 111.0 137.5 L 111.0 132.5 L 114.5 128.0 L 116.5 127.0 Z" /><path desc="l 5 p 9" fill="rgb(137,3,171)" stroke="rgb(137,3,171)" stroke-width="1" opacity="0.9921568627450981" d="M 78.5 128.0 L 81.5 128.0 Q 84.5 127.5 85.0 129.5 L 85.5 131.0 L 86.0 136.5 L 85.0 139.5 L 78.5 148.0 L 77.0 148.5 L 71.5 149.0 L 69.5 146.0 L 69.0 140.5 L 70.0 137.5 L 76.5 129.0 L 78.5 128.0 Z" /><path desc="l 3 p 10" fill="rgb(249,228,254)" stroke="rgb(249,228,254)" stroke-width="1" opacity="0.996078431372549" d="M 97.5 130.0 L 103.0 130.5 L 108.0 134.5 L 109.5 139.0 L 110.0 149.5 L 109.0 152.5 L 103.5 159.0 L 99.5 160.0 L 97.5 159.0 L 93.0 155.5 L 91.0 149.5 L 90.0 142.5 L 91.0 139.5 L 93.0 134.5 L 95.5 131.0 L 97.5 130.0 Z" /><path desc="l 5 p 10" fill="rgb(137,3,171)" stroke="rgb(137,3,171)" stroke-width="1" opacity="0.9921568627450981" d="M 117.5 130.0 Q 120.8 129.3 121.5 131.0 L 126.0 133.5 L 130.0 140.5 L 130.5 142.0 L 131.0 148.5 L 125.5 152.0 L 118.0 146.5 L 116.5 144.0 L 114.5 139.0 L 114.0 134.5 L 117.5 130.0 Z" /><path desc="l 5 p 11" fill="rgb(137,3,171)" stroke="rgb(137,3,171)" stroke-width="1" opacity="0.9921568627450981" d="M 98.5 133.0 L 103.0 133.5 L 105.0 135.5 L 107.0 141.5 L 107.0 149.5 L 106.0 151.5 L 102.5 156.0 L 99.5 156.0 L 97.5 155.0 L 95.0 152.5 L 94.5 150.0 L 94.0 139.5 L 95.0 137.5 L 98.5 133.0 Z" /></svg>