<svg width="200" height="200" version="1.1" xmlns="http://www.w3.org/2000/svg" desc="Created with ImageTracer.java version 1.1.2" ><path desc="l 4 p 0" fill="rgb(0,0,0)" stroke="rgb(0,0,0)" stroke-width="1" opacity="0.0" d="M 0.5 0.0 L 200.0 0.5 L 199.5 172.0 L 196.5 167.0 L 193.0 165.5 L 183.5 165.0 L 180.5 166.0 L 177.5 165.0 L 169.5 159.0 L 157.0 147.5 L 149.5 137.0 L 145.5 131.0 L 142.0 122.5 L 173.0 41.5 L 157.5 41.0 L 155.5 42.0 L 151.5 42.0 L 133.0 43.5 L 115.5 44.0 L 112.5 43.0 L 106.5 42.0 L 100.5 40.0 L 91.5 35.0 L 90.5 37.0 L 90.0 40.5 L 89.5 47.0 L 65.0 32.5 L 51.5 23.0 L 29.5 5.0 L 29.0 18.5 L 33.0 33.5 L 35.0 37.5 L 41.0 45.5 L 38.5 44.0 L 18.5 30.0 L 1.5 16.0 L 0.5 18.0 L 0.5 0.0 Z" /><path desc="l 5 p 0" fill="rgb(140,68,77)" stroke="rgb(140,68,77)" stroke-width="1" opacity="0.9882352941176471" d="M 29.5 7.0 L 52.5 25.0 L 79.0 42.5 L 86.5 46.0 L 88.0 47.5 L 90.5 48.0 L 91.5 36.0 L 100.5 41.0 L 109.0 43.5 L 113.5 44.0 L 118.0 44.5 L 129.5 45.0 L 131.5 44.0 L 135.5 44.0 L 148.5 43.0 L 155.0 42.5 L 171.5 42.0 L 171.0 43.5 L 141.0 122.5 L 142.5 126.0 L 144.5 131.0 L 147.0 134.5 L 153.0 143.5 L 168.5 160.0 L 175.0 164.5 L 178.5 166.0 L 184.5 166.0 L 193.0 166.5 L 198.0 170.5 L 199.5 177.0 L 200.0 183.5 Q 198.3 184.3 199.0 187.5 L 197.5 194.0 L 153.5 194.0 L 142.5 194.0 L 138.0 193.5 L 134.0 191.5 L 126.0 185.5 L 122.5 181.0 L 120.0 185.5 L 118.5 190.0 L 88.0 184.5 L 80.5 183.0 L 77.0 182.5 L 74.0 179.5 L 72.5 175.0 L 72.0 171.5 L 71.0 162.5 L 72.0 160.5 L 72.0 157.5 L 73.0 149.5 L 60.0 141.5 L 45.0 130.5 L 46.5 127.0 L 53.0 127.5 L 55.5 128.0 L 63.5 129.0 L 77.5 129.0 L 77.5 128.0 L 66.5 125.0 L 50.5 120.0 L 40.0 115.5 L 32.5 110.0 L 23.0 101.5 L 15.0 88.5 L 11.5 81.0 L 10.5 77.0 L 10.0 70.5 L 12.0 69.5 L 13.5 71.0 L 36.0 84.5 L 50.5 92.0 L 56.5 95.0 L 63.5 97.0 L 62.5 95.0 L 34.5 74.0 L 12.0 54.5 L 7.0 46.5 L 4.0 37.5 L 2.0 29.5 L 1.5 27.0 L 1.0 17.5 L 2.0 17.5 L 4.5 20.0 L 24.5 36.0 L 43.5 48.0 L 42.0 45.5 L 38.0 40.5 L 35.0 35.5 L 32.0 26.5 L 30.0 17.5 L 29.5 15.0 L 29.5 7.0 Z" /><path desc="l 3 p 0" fill="rgb(183,160,164)" stroke="rgb(183,160,164)" stroke-width="1" opacity="0.996078431372549" d="M 35.5 18.0 L 56.0 33.5 L 69.5 42.0 L 90.0 54.5 L 90.5 67.0 L 91.0 71.5 L 89.5 72.0 L 75.5 65.0 L 66.5 60.0 L 63.5 58.0 L 44.0 40.5 L 41.5 37.0 L 40.0 34.5 L 38.5 30.0 L 35.5 18.0 Z" /><path desc="l 4 p 1" fill="rgb(0,0,0)" stroke="rgb(0,0,0)" stroke-width="1" opacity="0.0" d="M 0.5 26.0 L 4.0 41.5 L 6.5 48.0 L 11.5 55.0 L 18.5 62.0 L 40.0 79.5 L 60.0 94.5 L 58.5 95.0 L 48.5 90.0 L 32.5 81.0 L 10.5 68.0 L 9.5 71.0 L 9.0 76.5 L 11.0 81.5 L 14.5 90.0 L 18.5 96.0 L 22.0 100.5 L 31.5 111.0 L 40.0 116.5 L 49.5 120.0 L 75.0 128.5 L 69.5 129.0 L 67.5 128.0 L 63.5 128.0 L 46.5 126.0 L 44.0 130.5 L 54.0 138.5 L 72.0 149.5 L 71.5 154.0 L 71.0 173.5 L 72.0 175.5 L 73.0 179.5 L 75.5 183.0 L 118.5 191.0 L 122.5 182.0 L 128.5 189.0 L 134.5 193.0 L 140.0 194.5 L 154.5 195.0 L 198.5 195.0 L 199.5 190.0 L 200.0 199.5 L 0.5 200.0 L 0.5 26.0 Z" /><path desc="l 3 p 1" fill="rgb(183,160,164)" stroke="rgb(183,160,164)" stroke-width="1" opacity="0.996078431372549" d="M 8.5 29.0 L 23.5 41.0 L 39.0 51.5 L 51.5 59.0 L 68.0 67.5 L 68.5 69.0 L 70.0 68.5 L 69.5 70.0 L 72.5 73.0 L 104.0 87.5 L 105.0 93.5 L 104.0 96.5 L 103.5 100.0 L 103.0 106.5 Q 105.8 107.3 105.0 111.5 Q 103.3 112.3 104.0 115.5 L 104.0 125.5 L 106.0 130.5 L 106.5 133.0 L 108.5 136.0 L 114.0 141.5 L 93.5 142.0 L 90.5 141.0 L 84.0 140.5 L 89.0 139.5 L 84.0 138.5 L 85.5 136.0 L 87.0 135.5 L 84.5 135.0 L 78.0 137.5 L 78.5 139.0 L 81.0 139.5 L 78.5 140.0 L 61.0 134.5 L 76.5 134.0 L 81.5 134.0 L 85.5 133.0 L 98.0 129.5 L 92.0 126.5 L 87.0 124.5 L 62.0 113.5 Q 64.3 112.3 61.5 111.0 L 53.5 107.0 L 44.0 99.5 L 46.5 99.0 L 49.5 100.0 L 49.5 99.0 L 34.5 93.0 L 34.5 95.0 L 19.0 80.5 L 21.5 82.0 L 43.5 94.0 L 57.0 100.5 L 66.5 104.0 L 73.5 106.0 L 78.5 107.0 L 82.0 108.5 L 85.5 109.0 L 86.0 104.5 L 51.5 76.0 L 40.0 66.5 L 25.0 52.5 L 14.5 40.0 L 10.0 32.5 L 8.5 31.0 L 8.5 29.0 Z" /><path desc="l 0 p 0" fill="rgb(154,119,125)" stroke="rgb(154,119,125)" stroke-width="1" opacity="0.996078431372549" d="M 7.5 31.0 L 10.0 32.5 L 14.0 39.5 L 21.5 48.0 L 34.5 62.0 L 83.0 102.5 L 81.5 102.0 L 65.5 92.0 L 52.5 81.0 L 38.5 70.0 L 19.0 52.5 L 18.5 51.0 L 16.5 52.0 L 11.0 45.5 L 13.0 45.5 L 10.0 39.5 L 7.5 31.0 Z" /><path desc="l 2 p 0" fill="rgb(215,201,204)" stroke="rgb(215,201,204)" stroke-width="1" opacity="1.0" d="M 96.5 45.0 L 106.5 48.0 L 113.5 49.0 L 118.0 49.5 L 129.5 50.0 L 131.5 49.0 L 136.5 49.0 L 154.0 47.5 L 163.5 47.0 L 164.0 48.5 L 145.0 97.5 L 139.0 113.5 L 137.5 118.0 L 137.0 126.5 L 142.0 136.5 L 149.5 147.0 L 165.5 164.0 L 173.5 169.0 L 176.0 170.5 L 183.5 171.0 L 189.5 171.0 L 192.0 171.5 L 194.0 173.5 L 195.0 183.5 L 193.5 189.0 L 153.5 189.0 L 143.5 189.0 L 139.0 188.5 L 135.5 187.0 L 129.0 181.5 L 120.5 170.0 Q 118.3 170.8 119.0 174.5 L 115.5 184.0 L 107.5 183.0 L 94.0 180.5 L 85.5 179.0 L 81.5 178.0 Q 78.5 178.5 78.0 176.5 L 76.5 168.0 L 76.0 162.5 L 77.0 160.5 L 77.0 157.5 Q 76.0 153.0 78.5 152.0 L 82.0 152.5 L 84.0 153.5 Q 82.3 154.3 83.0 157.5 L 83.0 169.5 L 84.5 173.0 L 90.5 174.0 L 100.5 176.0 L 103.0 176.5 L 110.5 177.0 L 116.5 168.0 L 118.0 167.5 L 123.5 167.0 L 129.0 171.5 L 137.5 181.0 L 139.5 182.0 Q 140.3 183.8 143.5 183.0 L 152.5 183.0 L 188.5 183.0 L 189.0 178.5 Q 188.5 176.5 185.5 177.0 L 177.5 177.0 L 168.5 173.0 L 160.5 167.0 L 152.0 159.5 L 143.0 148.5 L 137.0 138.5 L 132.0 130.5 L 130.5 127.0 L 130.0 119.5 L 132.0 114.5 L 131.5 113.0 L 133.0 112.5 L 132.0 110.5 L 134.0 109.5 L 133.0 107.5 L 137.0 95.5 L 139.0 87.5 L 140.0 80.5 L 138.5 80.0 L 135.0 82.5 L 134.5 84.0 L 123.0 92.5 L 122.5 94.0 L 118.5 97.0 L 118.0 89.5 L 117.5 85.0 L 115.5 81.0 L 115.0 82.5 L 116.0 85.5 L 116.0 94.5 L 115.0 97.5 L 114.5 101.0 L 112.5 104.0 L 112.0 98.5 L 113.0 95.5 L 113.5 91.0 L 114.0 82.5 L 96.0 74.5 L 96.5 45.0 Z" /><path desc="l 2 p 1" fill="rgb(215,201,204)" stroke="rgb(215,201,204)" stroke-width="1" opacity="1.0" d="M 68.5 68.0 L 108.0 86.5 L 107.0 94.5 L 104.5 108.0 L 103.0 105.5 L 103.0 100.5 L 104.0 97.5 L 105.0 89.5 L 104.0 89.5 L 103.0 93.5 L 100.5 101.0 L 93.0 94.5 L 82.0 81.5 L 84.5 81.0 L 99.5 86.0 L 99.5 85.0 L 78.5 76.0 L 74.0 73.5 L 69.5 70.0 L 68.5 68.0 Z" /><path desc="l 0 p 1" fill="rgb(154,119,125)" stroke="rgb(154,119,125)" stroke-width="1" opacity="0.996078431372549" d="M 15.5 78.0 Q 18.5 77.5 19.0 79.5 L 19.5 81.0 Q 20.8 78.8 22.0 81.5 L 21.5 83.0 L 23.5 85.0 L 32.5 94.0 L 36.5 93.0 L 52.0 100.5 L 50.5 101.0 L 44.5 99.0 L 45.0 100.5 L 48.5 104.0 L 63.0 112.5 L 62.5 114.0 L 64.5 113.0 L 64.5 115.0 L 66.5 114.0 L 66.5 116.0 L 68.5 115.0 L 68.5 117.0 L 72.5 118.0 L 74.0 117.5 L 73.5 119.0 L 89.0 125.5 L 93.5 127.0 L 96.0 128.5 L 94.5 128.0 L 85.5 126.0 L 79.5 124.0 L 64.0 118.5 L 58.5 116.0 L 47.5 112.0 L 34.5 103.0 L 25.0 93.5 L 17.5 80.0 L 16.0 80.5 L 15.5 78.0 Z" /><path desc="l 3 p 2" fill="rgb(183,160,164)" stroke="rgb(183,160,164)" stroke-width="1" opacity="0.996078431372549" d="M 113.5 79.0 L 117.0 83.5 L 118.0 88.5 L 118.5 97.0 L 123.0 93.5 L 123.5 92.0 L 135.0 83.5 L 135.5 82.0 L 139.5 80.0 L 140.0 84.5 L 135.5 100.0 L 134.0 106.5 L 134.5 108.0 L 133.0 107.5 L 134.0 109.5 L 132.0 110.5 L 133.0 112.5 L 131.0 113.5 L 132.0 115.5 L 130.5 119.0 L 130.0 126.5 L 137.5 140.0 L 146.0 151.5 L 145.0 151.5 L 142.0 148.5 L 139.5 145.0 L 139.0 146.5 L 148.0 157.5 L 145.5 156.0 L 138.5 149.0 L 122.5 139.0 L 123.5 141.0 L 128.0 145.5 L 128.5 147.0 L 130.0 147.5 L 131.0 149.5 L 129.5 149.0 L 126.0 145.5 L 111.0 130.5 L 109.5 122.0 L 109.0 116.5 Q 110.8 115.8 110.0 112.5 L 111.5 102.0 L 112.5 104.0 L 114.5 101.0 L 115.0 98.5 L 115.5 95.0 L 116.0 83.5 L 113.5 79.0 Z" /><path desc="l 0 p 2" fill="rgb(154,119,125)" stroke="rgb(154,119,125)" stroke-width="1" opacity="0.996078431372549" d="M 111.5 131.0 L 123.5 143.0 L 126.5 146.0 L 128.0 146.5 L 120.0 137.5 L 122.5 139.0 L 131.5 145.0 L 136.0 147.5 L 143.5 154.0 L 144.0 152.5 L 138.0 144.5 L 139.0 144.5 L 142.0 147.5 L 149.5 157.0 L 160.5 168.0 L 171.5 175.0 L 175.5 177.0 L 183.5 178.0 Q 184.3 176.3 187.5 177.0 L 188.0 182.5 L 141.5 183.0 L 133.0 176.5 L 126.5 168.0 L 122.5 167.0 L 117.5 167.0 L 113.0 170.5 L 110.5 177.0 L 104.5 176.0 Q 101.5 176.5 101.0 174.5 L 104.5 174.0 L 107.5 175.0 L 111.0 172.5 L 115.5 167.0 L 119.0 165.5 L 122.5 165.0 L 127.5 167.0 L 125.5 164.0 L 120.5 163.0 L 115.0 162.5 L 116.0 160.5 Q 115.5 158.5 112.5 159.0 L 102.0 157.5 L 109.5 157.0 Q 112.8 157.8 113.5 156.0 L 115.5 157.0 L 118.5 156.0 L 123.0 155.5 L 100.0 154.5 L 132.0 153.5 L 130.5 151.0 L 126.0 147.5 L 115.0 135.5 L 112.0 132.5 L 111.5 131.0 Z" /><path desc="l 0 p 3" fill="rgb(154,119,125)" stroke="rgb(154,119,125)" stroke-width="1" opacity="0.996078431372549" d="M 107.5 134.0 L 113.0 139.5 Q 116.0 140.5 115.0 145.5 L 112.5 147.0 L 108.5 147.0 L 90.5 147.0 Q 89.8 145.3 86.5 146.0 Q 83.3 146.8 82.5 145.0 L 79.0 144.5 L 74.5 143.0 L 69.5 141.0 L 65.5 139.0 L 62.0 135.5 L 63.5 135.0 L 71.5 138.0 L 77.5 139.0 L 78.5 137.0 L 86.5 135.0 L 86.5 136.0 L 84.0 137.5 L 84.5 139.0 L 89.0 139.5 L 84.0 140.5 L 92.5 141.0 L 95.5 140.0 L 95.5 141.0 L 93.0 141.5 L 113.5 142.0 L 112.0 139.5 L 108.5 136.0 L 107.5 134.0 Z" /><path desc="l 3 p 3" fill="rgb(183,160,164)" stroke="rgb(183,160,164)" stroke-width="1" opacity="0.996078431372549" d="M 84.5 153.0 L 100.0 154.5 L 123.0 155.5 L 114.5 157.0 Q 113.5 155.0 112.5 157.0 L 102.0 157.5 L 111.5 159.0 Q 115.3 158.3 116.0 160.5 L 115.0 162.5 L 120.5 163.0 L 124.0 163.5 L 126.0 164.5 L 132.0 170.5 L 130.5 170.0 L 127.5 167.0 L 123.0 165.5 L 119.5 165.0 L 117.0 166.5 L 117.5 168.0 L 115.5 167.0 L 115.5 168.0 L 114.0 170.5 L 111.5 176.0 L 112.0 174.5 L 113.0 170.5 L 111.0 171.5 L 109.5 174.0 L 105.5 175.0 Q 104.8 173.3 101.5 174.0 L 101.5 176.0 L 84.0 172.5 L 83.0 166.5 L 83.0 154.5 L 84.5 153.0 Z" /><path desc="l 6 p 0" fill="rgb(140,67,74)" stroke="rgb(140,67,74)" stroke-width="1" opacity="0.1450980392156863" d="M 198.5 193.0 L 199.0 194.5 L 140.5 195.0 L 140.5 194.0 L 183.5 194.0 L 193.5 194.0 L 196.5 194.0 L 198.5 193.0 Z" /></svg>