<svg width="200" height="200" version="1.1" xmlns="http://www.w3.org/2000/svg" desc="Created with ImageTracer.java version 1.1.2" ><path desc="l 4 p 0" fill="rgb(0,0,0)" stroke="rgb(0,0,0)" stroke-width="1" opacity="0.0" d="M 0.5 0.0 L 200.0 0.5 L 199.5 97.0 L 191.5 92.0 L 183.5 86.0 L 173.0 75.5 L 156.5 57.0 L 143.5 48.0 L 140.0 46.5 L 135.5 46.0 L 134.0 48.5 L 146.0 66.5 L 152.0 81.5 L 154.5 94.0 L 155.0 105.5 L 153.0 112.5 L 152.5 116.0 L 151.0 120.5 L 147.0 129.5 L 140.5 141.0 L 134.0 150.5 L 135.5 153.0 L 140.0 152.5 L 142.0 151.5 L 151.5 146.0 L 163.0 135.5 L 172.0 125.5 L 186.5 110.0 L 199.5 102.0 L 200.0 199.5 L 0.5 200.0 L 0.0 102.5 L 1.5 102.0 L 8.5 107.0 L 16.5 113.0 L 27.0 123.5 L 43.5 142.0 L 56.5 151.0 L 60.0 152.5 L 64.5 153.0 L 66.0 150.5 L 54.0 132.5 L 50.0 123.5 L 47.5 116.0 L 45.5 105.0 L 45.0 93.5 L 47.0 86.5 L 47.5 83.0 L 49.0 78.5 L 54.0 66.5 L 66.0 48.5 L 64.5 46.0 L 60.0 46.5 L 58.0 47.5 L 48.5 53.0 L 37.0 63.5 L 13.5 89.0 L 0.5 97.0 L 0.5 0.0 Z" /><path desc="l 5 p 0" fill="rgb(141,67,76)" stroke="rgb(141,67,76)" stroke-width="1" opacity="0.9921568627450981" d="M 99.5 23.0 L 103.0 25.5 L 109.0 34.5 L 110.0 36.5 Q 111.8 37.3 111.0 40.5 L 106.5 41.0 Q 105.8 39.3 102.5 40.0 L 94.5 40.0 L 92.5 41.0 L 89.5 41.0 L 89.0 37.5 L 99.5 23.0 Z" /><path desc="l 5 p 1" fill="rgb(141,67,76)" stroke="rgb(141,67,76)" stroke-width="1" opacity="0.9921568627450981" d="M 60.5 47.0 L 65.0 47.5 L 64.5 50.0 L 62.0 52.5 L 53.5 65.0 L 49.0 74.5 L 46.5 82.0 L 44.5 91.0 L 44.0 107.5 L 46.5 117.0 L 49.0 124.5 L 53.5 134.0 L 61.5 146.0 L 64.0 148.5 L 65.0 151.5 L 60.5 152.0 L 56.0 149.5 L 48.5 144.0 L 36.0 132.5 L 15.5 110.0 L 0.0 99.5 L 9.0 93.5 L 14.5 89.0 L 26.0 78.5 L 45.5 57.0 L 49.0 54.5 L 60.5 47.0 Z" /><path desc="l 5 p 2" fill="rgb(141,67,76)" stroke="rgb(141,67,76)" stroke-width="1" opacity="0.9921568627450981" d="M 135.5 47.0 L 140.0 47.5 L 142.0 48.5 L 149.5 53.0 L 164.0 66.5 L 184.5 89.0 L 200.0 99.5 L 191.0 105.5 L 185.5 110.0 L 173.0 121.5 L 154.5 142.0 L 147.0 147.5 L 141.5 151.0 L 135.5 152.0 L 135.0 149.5 L 142.5 140.0 L 148.0 130.5 L 151.5 123.0 L 153.5 117.0 L 155.5 108.0 L 156.0 91.5 L 153.5 82.0 L 151.5 76.0 L 148.0 68.5 L 144.0 60.5 L 137.0 51.5 L 135.0 48.5 L 135.5 47.0 Z" /><path desc="l 5 p 3" fill="rgb(141,67,76)" stroke="rgb(141,67,76)" stroke-width="1" opacity="0.9921568627450981" d="M 94.5 51.0 L 106.0 51.5 L 108.5 52.0 L 112.0 52.5 L 116.5 54.0 L 122.5 57.0 L 130.0 61.5 L 136.0 66.5 L 141.0 73.5 L 145.0 81.5 L 147.0 86.5 L 148.0 91.5 L 148.0 96.5 L 149.0 99.5 Q 147.3 100.3 148.0 103.5 L 147.5 110.0 L 145.0 117.5 L 139.5 128.0 L 132.5 136.0 L 117.5 145.0 L 106.0 147.5 L 94.5 148.0 L 83.5 145.0 L 73.5 140.0 L 64.0 132.5 L 59.0 125.5 L 55.0 117.5 L 53.0 112.5 L 52.0 107.5 L 52.0 102.5 L 51.0 99.5 L 52.0 96.5 L 52.0 89.5 L 55.0 81.5 L 57.5 76.0 L 61.5 70.0 L 67.5 63.0 L 73.5 59.0 L 80.5 55.0 L 87.5 53.0 L 94.5 51.0 Z" /><path desc="l 3 p 0" fill="rgb(216,204,206)" stroke="rgb(216,204,206)" stroke-width="1" opacity="1.0" d="M 92.5 56.0 L 98.0 56.5 L 87.0 67.5 L 84.0 70.5 Q 82.0 71.5 84.0 72.5 L 99.5 93.0 L 103.0 90.5 L 108.0 82.5 L 117.0 71.5 L 106.0 60.5 L 103.0 57.5 L 102.5 56.0 L 108.0 56.5 L 113.5 58.0 L 116.5 59.0 L 123.5 63.0 L 129.5 67.0 L 135.0 72.5 L 141.0 83.5 L 143.0 90.5 L 144.0 97.5 L 143.0 97.5 L 140.0 94.5 L 128.5 83.0 L 126.5 84.0 L 122.5 87.0 L 107.0 98.5 Q 106.5 101.5 108.5 102.0 L 116.5 107.0 L 122.0 111.5 L 125.5 115.0 L 128.5 116.0 L 139.5 105.0 L 142.5 102.0 L 144.0 101.5 L 143.5 106.0 L 142.0 112.5 L 141.0 115.5 L 137.0 122.5 L 133.0 128.5 L 126.5 135.0 L 118.0 139.5 L 109.0 142.5 L 102.5 143.0 L 102.5 142.0 L 105.5 139.0 L 116.0 128.5 L 115.5 125.0 L 112.5 122.0 L 100.5 106.0 L 97.0 108.5 L 92.5 116.0 L 87.5 122.0 L 85.0 124.5 Q 83.3 125.3 84.0 128.5 L 94.5 139.0 L 97.0 141.5 L 97.5 143.0 L 91.0 142.5 L 84.0 140.5 L 74.5 135.0 L 65.0 126.5 L 61.0 119.5 L 59.0 115.5 L 57.0 108.5 L 56.0 101.5 L 57.0 101.5 L 60.0 104.5 L 71.5 116.0 L 73.5 115.0 L 78.0 111.5 L 93.0 100.5 Q 93.5 97.5 91.5 97.0 L 77.5 87.0 L 74.5 84.0 L 71.5 83.0 L 60.5 94.0 L 57.5 97.0 L 56.0 97.5 L 58.0 85.5 L 63.0 76.5 L 66.5 71.0 L 72.5 65.0 L 77.5 62.0 L 86.5 58.0 L 92.5 56.0 Z" /><path desc="l 3 p 1" fill="rgb(216,204,206)" stroke="rgb(216,204,206)" stroke-width="1" opacity="1.0" d="M 51.5 58.0 L 51.0 59.5 L 47.5 66.0 L 43.5 76.0 L 41.0 84.5 L 40.0 90.5 L 39.0 103.5 Q 40.8 104.3 40.0 107.5 L 41.0 115.5 L 43.0 120.5 L 44.0 124.5 L 46.0 128.5 L 53.0 141.5 L 51.5 141.0 L 48.0 137.5 L 34.0 123.5 L 15.5 104.0 L 8.0 99.5 L 13.5 96.0 L 20.5 90.0 L 36.0 74.5 L 51.5 58.0 Z" /><path desc="l 3 p 2" fill="rgb(216,204,206)" stroke="rgb(216,204,206)" stroke-width="1" opacity="1.0" d="M 148.5 58.0 L 184.5 95.0 L 192.0 99.5 L 186.5 103.0 L 180.0 108.5 L 165.0 123.5 L 147.5 142.0 L 148.0 140.5 L 156.0 125.5 L 159.0 114.5 L 160.5 104.0 L 161.0 95.5 L 160.0 93.5 L 160.0 88.5 L 158.0 80.5 L 153.5 69.0 L 148.5 58.0 Z" /><path desc="l 0 p 0" fill="rgb(173,144,148)" stroke="rgb(173,144,148)" stroke-width="1" opacity="0.9921568627450981" d="M 84.5 62.0 L 87.0 62.5 L 82.0 67.5 Q 79.0 68.5 80.0 73.5 L 87.0 82.5 L 94.0 92.5 L 92.5 93.0 L 80.5 85.0 L 77.0 81.5 L 74.0 79.5 L 71.5 79.0 L 63.5 85.0 L 63.0 83.5 L 68.0 75.5 L 72.5 70.0 L 84.5 62.0 Z" /><path desc="l 6 p 0" fill="rgb(253,252,252)" stroke="rgb(253,252,252)" stroke-width="1" opacity="0.10196078431372549" d="M 99.5 62.0 L 110.0 71.5 L 108.0 72.5 L 108.5 71.0 L 107.0 69.5 L 100.5 63.0 L 90.5 72.0 L 92.0 69.5 L 99.5 62.0 Z" /><path desc="l 0 p 1" fill="rgb(173,144,148)" stroke="rgb(173,144,148)" stroke-width="1" opacity="0.9921568627450981" d="M 113.5 62.0 L 116.5 63.0 L 121.0 65.5 L 119.5 65.0 L 118.0 65.5 L 119.5 68.0 L 123.0 67.5 L 122.5 66.0 L 130.0 72.5 L 137.0 84.5 L 135.5 84.0 L 132.5 81.0 L 128.5 79.0 L 126.5 80.0 L 123.5 81.0 L 120.0 84.5 L 112.0 90.5 L 107.5 93.0 L 103.0 97.5 L 103.5 101.0 L 105.0 103.5 L 103.5 103.0 L 98.5 103.0 L 95.5 104.0 L 96.0 102.5 L 97.0 97.5 L 95.0 94.5 L 97.5 96.0 L 101.5 96.0 L 104.0 95.5 L 106.0 93.5 L 109.5 87.0 L 115.0 80.5 L 118.5 76.0 L 119.5 74.0 L 120.0 69.5 L 115.0 64.5 L 113.5 62.0 Z" /><path desc="l 4 p 1" fill="rgb(0,0,0)" stroke="rgb(0,0,0)" stroke-width="1" opacity="0.0" d="M 99.5 63.0 L 109.0 71.5 L 100.5 83.0 L 91.0 71.5 L 99.5 63.0 Z" /><path desc="l 0 p 2" fill="rgb(173,144,148)" stroke="rgb(173,144,148)" stroke-width="1" opacity="0.9921568627450981" d="M 161.5 77.0 L 178.5 95.0 L 181.0 96.5 L 181.5 98.0 L 184.0 99.5 L 174.5 106.0 Q 172.6 109.7 167.5 110.0 L 165.0 104.5 L 164.5 103.0 L 164.0 95.5 L 163.5 88.0 L 163.0 85.5 L 161.5 77.0 Z" /><path desc="l 0 p 3" fill="rgb(173,144,148)" stroke="rgb(173,144,148)" stroke-width="1" opacity="0.9921568627450981" d="M 37.5 78.0 L 38.0 82.5 L 36.5 87.0 L 36.0 95.5 L 36.0 101.5 L 35.0 104.5 L 32.5 110.0 L 29.5 109.0 L 26.0 106.5 L 16.0 99.5 L 19.0 97.5 L 20.5 95.0 L 33.0 83.5 L 37.5 78.0 Z" /><path desc="l 6 p 1" fill="rgb(253,252,252)" stroke="rgb(253,252,252)" stroke-width="1" opacity="0.10196078431372549" d="M 71.5 90.0 L 74.0 91.5 L 72.5 91.0 L 63.0 99.5 L 73.0 108.5 L 71.5 109.0 L 64.5 102.0 L 63.0 100.5 L 62.5 99.0 L 64.0 97.5 L 71.5 90.0 Z" /><path desc="l 6 p 2" fill="rgb(253,252,252)" stroke="rgb(253,252,252)" stroke-width="1" opacity="0.10196078431372549" d="M 127.5 90.0 L 138.0 99.5 L 127.5 109.0 L 127.5 108.0 L 137.0 99.5 L 127.5 91.0 L 126.0 91.5 L 127.5 90.0 Z" /><path desc="l 4 p 2" fill="rgb(0,0,0)" stroke="rgb(0,0,0)" stroke-width="1" opacity="0.0" d="M 71.5 91.0 L 76.5 94.0 L 84.0 99.5 L 76.5 105.0 L 74.5 107.0 L 71.5 108.0 L 65.5 102.0 L 64.0 100.5 L 63.5 99.0 L 65.0 97.5 L 71.5 91.0 Z" /><path desc="l 4 p 3" fill="rgb(0,0,0)" stroke="rgb(0,0,0)" stroke-width="1" opacity="0.0" d="M 127.5 91.0 L 137.0 99.5 L 130.5 106.0 L 129.0 107.5 L 126.5 108.0 L 120.5 102.0 L 116.0 99.5 L 127.5 91.0 Z" /><path desc="l 4 p 4" fill="rgb(0,0,0)" stroke="rgb(0,0,0)" stroke-width="1" opacity="0.0" d="M 99.5 116.0 L 101.0 116.5 L 109.0 127.5 L 99.5 136.0 L 93.5 130.0 L 91.5 128.0 L 92.0 126.5 L 99.5 116.0 Z" /><path desc="l 6 p 3" fill="rgb(253,252,252)" stroke="rgb(253,252,252)" stroke-width="1" opacity="0.10196078431372549" d="M 91.5 126.0 L 91.5 127.0 L 93.0 129.5 L 99.5 136.0 L 109.0 127.5 L 108.5 126.0 L 109.5 128.0 L 108.0 129.5 L 100.5 137.0 L 90.0 127.5 L 91.5 126.0 Z" /><path desc="l 5 p 4" fill="rgb(141,67,76)" stroke="rgb(141,67,76)" stroke-width="1" opacity="0.9921568627450981" d="M 89.5 158.0 L 94.0 158.5 L 105.5 159.0 L 107.5 158.0 L 110.5 158.0 L 111.0 161.5 L 100.5 176.0 L 97.0 173.5 L 91.0 164.5 L 90.0 162.5 L 89.0 160.5 L 89.5 158.0 Z" /></svg>