<svg width="200" height="200" version="1.1" xmlns="http://www.w3.org/2000/svg" desc="Created with ImageTracer.java version 1.1.2" ><path desc="l 1 p 0" fill="rgb(0,0,0)" stroke="rgb(0,0,0)" stroke-width="1" opacity="0.0" d="M 0.5 0.0 L 30.0 0.5 L 43.0 35.5 L 46.0 44.5 L 50.0 55.5 L 58.0 72.5 L 56.5 73.0 L 36.5 62.0 L 31.5 59.0 L 21.5 52.0 L 11.5 45.0 L 11.0 46.5 L 24.0 80.5 L 30.0 95.5 L 38.0 111.5 L 41.5 120.0 L 49.5 135.0 L 61.0 154.5 L 79.5 179.0 L 99.0 199.5 L 0.5 200.0 L 0.5 0.0 Z" /><path desc="l 1 p 1" fill="rgb(0,0,0)" stroke="rgb(0,0,0)" stroke-width="1" opacity="0.0" d="M 32.5 0.0 L 168.0 0.5 L 104.5 65.0 L 99.5 68.0 L 76.0 46.5 L 43.5 12.0 L 35.0 3.5 L 33.0 1.5 L 32.5 0.0 Z" /><path desc="l 2 p 0" fill="rgb(0,144,173)" stroke="rgb(0,144,173)" stroke-width="1" opacity="0.10980392156862745" d="M 168.5 0.0 L 170.0 0.5 L 149.5 20.0 L 150.0 18.5 L 153.5 15.0 L 168.5 0.0 Z" /><path desc="l 1 p 2" fill="rgb(0,0,0)" stroke="rgb(0,0,0)" stroke-width="1" opacity="0.0" d="M 170.5 0.0 L 200.0 0.5 L 199.5 200.0 L 101.0 199.5 L 117.0 183.5 L 127.5 170.0 L 141.5 150.0 L 152.5 131.0 L 161.0 114.5 L 175.5 81.0 L 189.0 45.5 L 187.5 45.0 L 177.0 53.5 L 168.0 59.5 L 160.5 64.0 L 142.5 73.0 L 143.0 71.5 L 152.0 50.5 L 158.0 33.5 L 164.0 16.5 L 168.5 4.0 L 170.5 0.0 Z" /><path desc="l 5 p 0" fill="rgb(1,136,170)" stroke="rgb(1,136,170)" stroke-width="1" opacity="0.9882352941176471" d="M 31.5 1.0 L 89.5 61.0 L 100.5 69.0 L 129.0 42.5 L 167.5 2.0 L 168.0 3.5 L 156.0 35.5 L 153.0 44.5 L 149.0 55.5 L 140.0 74.5 L 141.5 75.0 L 165.5 62.0 L 177.0 54.5 L 186.5 47.0 L 187.0 49.5 L 185.0 53.5 L 184.0 57.5 L 179.5 68.0 L 175.0 80.5 L 160.0 114.5 L 150.5 133.0 L 138.0 154.5 L 125.0 172.5 L 100.5 199.0 L 84.0 183.5 L 73.5 170.0 L 66.0 160.5 L 53.5 140.0 L 38.5 112.0 L 26.5 84.0 L 21.5 71.0 L 18.0 60.5 L 15.0 54.5 L 13.0 47.5 L 14.0 47.5 L 16.5 50.0 L 35.5 63.0 L 58.5 75.0 L 59.0 73.5 L 52.0 58.5 L 44.5 38.0 L 31.5 1.0 Z" /><path desc="l 7 p 0" fill="rgb(0,135,169)" stroke="rgb(0,135,169)" stroke-width="1" opacity="0.5254901960784314" d="M 158.5 11.0 L 158.0 12.5 L 155.0 15.5 L 141.5 29.0 L 142.0 27.5 L 145.0 24.5 L 158.5 11.0 Z" /><path desc="l 4 p 0" fill="rgb(232,244,248)" stroke="rgb(232,244,248)" stroke-width="1" opacity="1.0" d="M 44.5 22.0 L 87.5 66.0 L 92.0 69.5 L 100.5 75.0 L 109.0 68.5 L 120.0 58.5 L 139.0 39.5 L 154.5 23.0 L 155.0 24.5 L 145.5 50.0 L 139.0 65.5 L 129.0 85.5 L 130.5 86.0 L 155.5 73.0 L 165.5 68.0 L 176.5 61.0 L 176.0 62.5 L 164.5 92.0 L 151.0 121.5 L 142.0 138.5 L 129.0 157.5 L 118.5 172.0 L 100.5 192.0 L 90.0 182.5 L 84.5 176.0 L 67.5 153.0 L 57.5 137.0 L 46.0 114.5 L 36.0 93.5 L 23.0 61.5 L 25.5 63.0 L 50.0 76.5 L 70.5 86.0 L 71.0 84.5 L 67.0 78.5 L 59.0 61.5 L 52.0 43.5 L 44.5 22.0 Z" /><path desc="l 2 p 1" fill="rgb(0,144,173)" stroke="rgb(0,144,173)" stroke-width="1" opacity="0.10980392156862745" d="M 56.5 26.0 L 71.0 40.5 L 74.5 44.0 L 75.5 46.0 L 61.0 31.5 L 57.5 28.0 L 56.5 26.0 Z" /><path desc="l 2 p 2" fill="rgb(0,144,173)" stroke="rgb(0,144,173)" stroke-width="1" opacity="0.10980392156862745" d="M 140.5 29.0 L 139.0 31.5 L 133.0 37.5 L 107.5 63.0 L 109.0 60.5 L 115.0 54.5 L 140.5 29.0 Z" /><path desc="l 7 p 1" fill="rgb(0,135,169)" stroke="rgb(0,135,169)" stroke-width="1" opacity="0.5254901960784314" d="M 69.5 40.0 L 85.0 55.5 L 88.5 59.0 L 89.5 61.0 L 74.5 46.0 L 70.5 42.0 L 69.5 40.0 Z" /><path desc="l 5 p 1" fill="rgb(1,136,170)" stroke="rgb(1,136,170)" stroke-width="1" opacity="0.9882352941176471" d="M 130.5 61.0 L 131.0 62.5 L 123.5 79.0 L 121.0 88.5 L 119.0 99.5 L 120.5 100.0 L 159.5 80.0 L 160.0 82.5 L 153.0 97.5 L 141.0 122.5 L 132.5 137.0 L 120.5 155.0 L 98.5 182.0 L 98.0 83.5 L 106.5 81.0 L 112.5 78.0 L 118.5 73.0 L 130.5 61.0 Z" /><path desc="l 0 p 0" fill="rgb(174,220,231)" stroke="rgb(174,220,231)" stroke-width="1" opacity="0.996078431372549" d="M 82.5 80.0 L 90.0 85.5 L 91.5 96.0 L 93.0 95.5 L 92.5 160.0 L 91.5 147.0 L 91.0 156.5 L 90.5 161.0 L 88.5 164.0 L 81.5 154.0 L 80.5 156.0 L 73.5 145.0 L 69.0 136.5 L 58.5 113.0 L 56.0 105.5 L 55.0 101.5 L 55.0 95.5 L 63.5 95.0 L 66.5 96.0 Q 67.5 94.0 68.5 96.0 L 73.5 95.0 L 76.5 94.0 L 80.0 91.5 L 82.5 80.0 Z" /><path desc="l 1 p 3" fill="rgb(0,0,0)" stroke="rgb(0,0,0)" stroke-width="1" opacity="0.0" d="M 115.5 82.0 L 117.0 82.5 L 114.5 95.0 L 113.0 107.5 L 114.5 108.0 L 127.5 102.0 L 149.5 91.0 L 150.0 92.5 L 136.0 120.5 L 126.0 137.5 L 116.0 151.5 L 103.5 168.0 L 103.0 87.5 L 108.5 86.0 L 115.5 82.0 Z" /><path desc="l 6 p 0" fill="rgb(106,186,206)" stroke="rgb(106,186,206)" stroke-width="1" opacity="0.984313725490196" d="M 97.5 83.0 L 98.0 182.5 L 97.0 182.5 L 97.5 83.0 Z" /><path desc="l 7 p 2" fill="rgb(0,135,169)" stroke="rgb(0,135,169)" stroke-width="1" opacity="0.5254901960784314" d="M 103.5 86.0 L 105.0 86.5 L 103.0 87.5 L 102.5 170.0 L 102.0 87.5 L 103.5 86.0 Z" /><path desc="l 6 p 1" fill="rgb(106,186,206)" stroke="rgb(106,186,206)" stroke-width="1" opacity="0.984313725490196" d="M 91.5 147.0 L 92.5 160.0 L 93.0 172.5 L 91.0 171.5 L 83.5 160.0 L 82.0 157.5 L 81.0 154.5 L 82.0 154.5 L 88.5 164.0 L 90.5 161.0 L 91.0 156.5 L 91.5 147.0 Z" /><path desc="l 7 p 3" fill="rgb(0,135,169)" stroke="rgb(0,135,169)" stroke-width="1" opacity="0.5254901960784314" d="M 88.5 188.0 L 100.5 199.0 L 108.0 191.5 L 111.0 189.5 L 99.5 200.0 L 91.0 191.5 L 89.0 189.5 L 88.5 188.0 Z" /></svg>