<svg width="200" height="200" version="1.1" xmlns="http://www.w3.org/2000/svg" desc="Created with ImageTracer.java version 1.1.2" ><path desc="l 7 p 0" fill="rgb(0,1,0)" stroke="rgb(0,1,0)" stroke-width="1" opacity="0.0" d="M 0.5 0.0 L 98.0 0.5 L 81.0 44.5 L 116.5 45.0 L 117.0 43.5 L 99.0 0.5 L 199.5 0.0 L 200.0 97.5 L 197.5 98.0 L 155.5 81.0 L 155.0 116.5 L 156.5 117.0 L 199.5 99.0 L 200.0 199.5 L 102.5 200.0 L 102.0 197.5 L 119.0 155.5 L 83.5 155.0 L 83.0 156.5 L 101.0 199.5 L 0.5 200.0 L 0.0 102.5 L 2.5 102.0 L 44.5 119.0 L 45.0 83.5 L 43.5 83.0 L 0.5 101.0 L 0.5 0.0 Z" /><path desc="l 6 p 0" fill="rgb(94,143,18)" stroke="rgb(94,143,18)" stroke-width="1" opacity="0.984313725490196" d="M 98.5 2.0 L 100.0 2.5 L 111.0 30.5 L 116.0 44.5 L 81.5 45.0 L 82.0 43.5 L 98.5 2.0 Z" /><path desc="l 3 p 0" fill="rgb(212,230,185)" stroke="rgb(212,230,185)" stroke-width="1" opacity="1.0" d="M 98.5 16.0 L 100.0 16.5 L 109.0 39.5 L 89.5 40.0 L 89.0 38.5 L 98.5 16.0 Z" /><path desc="l 6 p 1" fill="rgb(94,143,18)" stroke="rgb(94,143,18)" stroke-width="1" opacity="0.984313725490196" d="M 168.5 29.0 L 169.0 30.5 L 156.0 60.5 L 150.5 72.0 L 144.0 66.5 L 142.5 64.0 L 141.0 63.5 L 129.5 51.0 L 126.0 48.5 L 126.5 47.0 L 168.5 29.0 Z" /><path desc="l 6 p 2" fill="rgb(94,143,18)" stroke="rgb(94,143,18)" stroke-width="1" opacity="0.984313725490196" d="M 29.5 31.0 L 58.5 43.0 L 72.0 49.5 L 48.5 74.0 L 47.0 73.5 L 29.5 31.0 Z" /><path desc="l 3 p 1" fill="rgb(212,230,185)" stroke="rgb(212,230,185)" stroke-width="1" opacity="1.0" d="M 158.5 39.0 L 159.0 41.5 L 149.5 63.0 L 135.0 49.5 L 158.5 39.0 Z" /><path desc="l 3 p 2" fill="rgb(212,230,185)" stroke="rgb(212,230,185)" stroke-width="1" opacity="1.0" d="M 39.5 41.0 L 63.0 50.5 L 49.5 65.0 L 39.5 41.0 Z" /><path desc="l 6 p 3" fill="rgb(94,143,18)" stroke="rgb(94,143,18)" stroke-width="1" opacity="0.984313725490196" d="M 97.5 48.0 L 106.5 49.0 L 111.0 49.5 L 115.0 50.5 L 123.5 54.0 L 133.0 60.5 L 142.0 69.5 L 148.0 81.5 L 151.0 91.5 L 152.0 101.5 L 151.0 103.5 L 151.0 106.5 L 150.0 112.5 L 149.0 116.5 L 146.0 122.5 L 143.0 128.5 L 139.5 133.0 L 130.5 142.0 L 118.5 148.0 L 113.5 150.0 L 107.5 151.0 L 96.5 152.0 Q 95.8 150.3 92.5 151.0 L 85.0 149.5 L 78.0 146.5 L 73.5 144.0 L 62.0 135.5 L 54.0 124.5 L 51.0 115.5 L 49.5 111.0 L 48.5 105.0 L 48.0 96.5 Q 49.8 95.8 49.0 92.5 L 50.5 85.0 L 53.5 78.0 L 56.0 73.5 L 63.5 63.0 L 68.0 59.5 L 80.0 52.5 L 89.0 49.5 L 93.5 49.0 Q 96.8 49.8 97.5 48.0 Z" /><path desc="l 3 p 3" fill="rgb(212,230,185)" stroke="rgb(212,230,185)" stroke-width="1" opacity="1.0" d="M 91.5 54.0 L 103.5 54.0 L 109.0 54.5 L 110.5 55.0 L 117.5 57.0 L 123.0 59.5 L 127.5 63.0 L 137.0 71.5 L 140.5 77.0 L 144.0 86.5 L 145.5 91.0 L 146.0 95.5 L 146.0 108.5 L 143.5 116.0 L 140.0 123.5 L 137.0 127.5 L 128.5 137.0 L 121.5 141.0 L 113.0 144.5 L 109.0 145.5 L 104.5 146.0 L 91.5 146.0 L 84.0 143.5 L 76.5 140.0 L 72.5 137.0 L 63.0 128.5 L 59.0 121.5 L 55.5 113.0 L 54.5 110.0 L 54.0 105.5 L 54.0 91.5 L 56.5 84.0 L 60.0 76.5 L 63.0 72.5 L 71.5 63.0 L 76.5 60.0 L 85.5 56.0 L 91.5 54.0 Z" /><path desc="l 6 p 4" fill="rgb(94,143,18)" stroke="rgb(94,143,18)" stroke-width="1" opacity="0.984313725490196" d="M 93.5 58.0 L 104.0 58.5 L 106.5 59.0 L 111.5 60.0 L 119.5 63.0 L 132.0 72.5 L 138.0 82.5 L 140.0 86.5 L 141.5 93.0 L 142.0 105.5 L 140.0 112.5 L 137.0 118.5 L 134.0 122.5 L 125.5 132.0 L 117.0 136.5 L 112.5 138.0 L 108.0 139.5 L 103.5 140.0 L 90.5 140.0 Q 89.8 138.3 86.5 139.0 Q 82.8 139.8 82.0 137.5 L 91.5 135.0 L 97.5 133.0 L 101.0 130.5 L 107.0 124.5 L 111.0 116.5 L 112.5 112.0 L 113.5 108.0 L 114.0 103.5 L 114.0 91.5 L 111.0 82.5 L 106.5 74.0 L 101.5 68.0 L 96.5 65.0 L 89.5 63.0 L 80.0 60.5 L 89.5 59.0 Q 92.8 59.8 93.5 58.0 Z" /><path desc="l 7 p 1" fill="rgb(0,1,0)" stroke="rgb(0,1,0)" stroke-width="1" opacity="0.0" d="M 105.5 64.0 L 112.5 66.0 L 120.5 70.0 L 131.0 79.5 L 134.5 87.0 L 136.5 94.0 L 137.0 103.5 L 135.0 110.5 L 130.0 119.5 L 124.5 126.0 L 114.5 132.0 L 104.5 135.0 L 104.5 134.0 L 109.0 130.5 L 114.0 122.5 L 116.5 117.0 L 118.5 109.0 L 119.0 103.5 L 119.0 89.5 L 117.0 84.5 L 115.0 78.5 L 109.5 69.0 L 106.5 66.0 L 105.5 64.0 Z" /><path desc="l 0 p 0" fill="rgb(159,199,97)" stroke="rgb(159,199,97)" stroke-width="1" opacity="0.996078431372549" d="M 81.5 69.0 L 88.0 69.5 L 90.5 70.0 Q 93.8 69.3 94.5 71.0 L 99.5 73.0 L 104.0 76.5 L 109.0 87.5 L 110.5 96.0 L 111.0 102.5 L 110.0 105.5 L 109.0 112.5 L 106.0 119.5 L 97.5 129.0 L 89.5 132.0 L 81.0 133.5 L 73.5 134.0 L 68.0 129.5 L 62.0 120.5 L 59.0 113.5 L 58.0 109.5 L 60.0 109.5 L 60.5 98.0 L 61.0 95.5 L 62.0 91.5 L 65.0 85.5 L 70.0 77.5 L 75.5 71.0 L 81.5 69.0 Z" /><path desc="l 6 p 5" fill="rgb(94,143,18)" stroke="rgb(94,143,18)" stroke-width="1" opacity="0.984313725490196" d="M 155.5 81.0 L 199.0 98.5 L 187.5 104.0 L 167.5 112.0 L 155.5 116.0 L 155.5 81.0 Z" /><path desc="l 6 p 6" fill="rgb(94,143,18)" stroke="rgb(94,143,18)" stroke-width="1" opacity="0.984313725490196" d="M 42.5 84.0 L 45.0 84.5 L 44.5 119.0 L 2.0 101.5 L 2.5 100.0 L 42.5 84.0 Z" /><path desc="l 3 p 4" fill="rgb(212,230,185)" stroke="rgb(212,230,185)" stroke-width="1" opacity="1.0" d="M 160.5 89.0 L 185.0 98.5 L 175.5 103.0 L 160.5 109.0 L 160.5 89.0 Z" /><path desc="l 3 p 5" fill="rgb(212,230,185)" stroke="rgb(212,230,185)" stroke-width="1" opacity="1.0" d="M 38.5 91.0 L 40.0 91.5 L 39.5 111.0 L 16.0 101.5 L 16.5 100.0 L 38.5 91.0 Z" /><path desc="l 4 p 0" fill="rgb(94,142,17)" stroke="rgb(94,142,17)" stroke-width="1" opacity="0.42745098039215684" d="M 152.5 125.0 L 152.0 126.5 L 148.5 130.0 L 134.5 144.0 L 130.0 148.5 L 128.5 151.0 L 128.5 152.0 Q 125.5 150.5 128.5 149.0 L 133.0 144.5 L 152.5 125.0 Z" /><path desc="l 6 p 7" fill="rgb(94,143,18)" stroke="rgb(94,143,18)" stroke-width="1" opacity="0.984313725490196" d="M 152.5 126.0 L 171.0 168.5 L 169.5 169.0 L 139.5 156.0 L 128.0 150.5 L 152.5 126.0 Z" /><path desc="l 6 p 8" fill="rgb(94,143,18)" stroke="rgb(94,143,18)" stroke-width="1" opacity="0.984313725490196" d="M 49.5 128.0 L 53.0 130.5 L 55.5 134.0 L 57.0 134.5 L 57.5 136.0 L 71.0 148.5 L 74.0 152.5 L 31.5 171.0 L 31.0 168.5 L 43.0 141.5 L 49.5 128.0 Z" /><path desc="l 3 p 6" fill="rgb(212,230,185)" stroke="rgb(212,230,185)" stroke-width="1" opacity="1.0" d="M 150.5 135.0 L 161.0 158.5 L 159.5 159.0 L 137.0 149.5 L 150.5 135.0 Z" /><path desc="l 3 p 7" fill="rgb(212,230,185)" stroke="rgb(212,230,185)" stroke-width="1" opacity="1.0" d="M 50.5 137.0 L 65.0 150.5 L 41.5 161.0 L 41.0 158.5 L 50.5 137.0 Z" /><path desc="l 6 p 9" fill="rgb(94,143,18)" stroke="rgb(94,143,18)" stroke-width="1" opacity="0.984313725490196" d="M 84.5 155.0 L 119.0 155.5 L 101.5 199.0 L 97.0 189.5 L 89.0 169.5 L 85.5 161.0 L 84.5 158.0 L 84.5 155.0 Z" /><path desc="l 3 p 8" fill="rgb(212,230,185)" stroke="rgb(212,230,185)" stroke-width="1" opacity="1.0" d="M 91.5 160.0 L 111.0 160.5 L 101.5 185.0 L 99.0 180.5 L 94.0 167.5 L 91.5 160.0 Z" /></svg>