<svg width="200" height="200" version="1.1" xmlns="http://www.w3.org/2000/svg" desc="Created with ImageTracer.java version 1.1.2" ><path desc="l 3 p 0" fill="rgb(254,254,254)" stroke="rgb(254,254,254)" stroke-width="1" opacity="0.0" d="M 0.5 0.0 L 200.0 0.5 L 199.5 200.0 L 0.0 199.5 L 0.5 0.0 Z" /><path desc="l 5 p 0" fill="rgb(188,9,24)" stroke="rgb(188,9,24)" stroke-width="1" opacity="0.984313725490196" d="M 134.5 2.0 L 138.0 4.5 L 125.5 25.0 L 119.5 37.0 L 118.0 40.5 L 116.0 50.5 Q 117.8 51.3 117.0 54.5 Q 116.3 57.8 118.0 58.5 L 121.0 63.5 L 129.0 75.5 L 139.0 93.5 L 147.5 116.0 L 152.0 109.5 L 158.5 103.0 L 162.0 101.5 L 166.5 101.0 L 167.0 104.5 L 161.0 117.5 L 159.0 124.5 L 158.0 130.5 L 157.0 139.5 L 156.0 147.5 L 155.5 151.0 L 154.0 155.5 L 150.5 162.0 L 140.5 173.0 L 134.5 177.0 L 126.5 181.0 L 117.5 185.0 L 104.5 188.0 L 97.5 189.0 L 83.5 189.0 L 78.0 187.5 L 67.5 185.0 L 57.5 180.0 L 46.0 172.5 L 37.0 164.5 L 27.5 152.0 L 25.0 147.5 L 23.5 142.0 L 23.0 128.5 L 25.5 119.0 L 26.0 116.5 Q 25.5 113.5 27.5 113.0 Q 31.3 112.3 32.0 114.5 L 32.0 124.5 L 33.0 131.5 L 34.0 136.5 L 36.5 141.0 L 37.0 139.5 L 35.5 134.0 L 35.0 120.5 L 37.0 115.5 L 40.0 110.5 L 43.0 105.5 L 44.0 100.5 Q 42.3 99.8 43.0 96.5 L 38.0 87.5 L 36.0 83.5 L 35.0 81.5 L 35.0 77.5 L 36.5 77.0 L 39.5 78.0 L 44.5 80.0 L 48.0 82.5 L 58.0 91.5 L 65.5 101.0 L 66.0 99.5 L 58.0 87.5 L 53.5 80.0 L 52.5 78.0 L 52.0 73.5 L 59.0 68.5 L 58.5 64.0 L 57.0 57.5 L 58.5 55.0 L 62.0 55.5 L 65.0 57.5 L 69.5 61.0 L 85.0 75.5 L 99.5 94.0 L 105.0 102.5 L 112.5 117.0 L 117.0 129.5 L 118.5 136.0 L 119.0 142.5 L 115.5 150.0 L 110.5 153.0 L 107.0 154.5 L 103.5 155.0 L 97.5 156.0 L 94.5 155.0 L 87.5 155.0 L 79.5 152.0 L 77.5 151.0 L 73.0 147.5 L 72.0 141.5 L 77.5 135.0 L 86.0 129.5 L 85.5 128.0 L 76.5 133.0 L 70.0 138.5 L 68.5 141.0 L 67.0 145.5 L 67.0 151.5 L 68.5 154.0 L 73.5 160.0 L 78.5 163.0 L 87.5 166.0 L 93.5 167.0 L 104.5 167.0 L 106.5 166.0 L 109.5 166.0 L 114.5 164.0 L 123.0 158.5 L 126.0 153.5 L 127.0 148.5 L 127.0 137.5 L 126.0 135.5 L 125.0 129.5 L 120.0 118.5 L 116.0 109.5 L 112.0 102.5 L 103.5 89.0 L 91.5 73.0 L 79.0 59.5 L 75.5 56.0 Q 73.0 55.0 74.0 50.5 L 80.0 40.5 L 85.0 34.5 L 95.5 24.0 L 101.0 19.5 L 110.0 12.5 L 114.5 10.0 L 118.0 11.5 L 117.0 15.5 L 118.5 15.0 L 122.5 11.0 L 134.5 2.0 Z" /><path desc="l 2 p 0" fill="rgb(251,195,200)" stroke="rgb(251,195,200)" stroke-width="1" opacity="1.0" d="M 123.5 17.0 L 123.0 18.5 L 117.0 29.5 L 113.0 40.5 L 111.5 48.0 L 111.0 53.5 L 112.0 55.5 L 112.0 58.5 L 115.5 65.0 L 121.0 73.5 L 127.0 82.5 L 131.0 90.5 L 133.0 93.5 L 134.0 96.5 L 131.5 98.0 L 126.5 89.0 L 118.0 76.5 L 111.5 66.0 L 109.0 60.5 L 107.5 54.0 L 106.5 57.0 L 102.5 49.0 L 93.0 54.5 L 95.0 60.5 L 94.5 62.0 L 96.0 63.5 L 103.5 73.0 L 123.0 103.5 L 121.5 105.0 Q 120.3 107.3 119.0 104.5 L 110.0 88.5 L 101.0 76.5 L 85.5 58.0 L 79.0 52.5 L 80.0 49.5 L 86.0 41.5 L 97.5 29.0 L 106.5 21.0 L 106.0 22.5 L 92.0 40.5 L 96.5 44.0 L 123.5 17.0 Z" /><path desc="l 1 p 0" fill="rgb(249,157,164)" stroke="rgb(249,157,164)" stroke-width="1" opacity="1.0" d="M 102.5 49.0 L 106.5 57.0 L 107.5 54.0 L 108.5 59.0 L 110.0 62.5 L 113.0 68.5 L 116.0 72.5 L 127.0 89.5 L 124.5 88.0 L 118.5 82.0 L 114.5 80.0 L 114.0 81.5 L 119.0 94.5 L 116.0 92.5 L 104.0 73.5 L 94.0 61.5 L 95.0 58.5 L 93.0 54.5 L 102.5 49.0 Z" /><path desc="l 2 p 1" fill="rgb(251,195,200)" stroke="rgb(251,195,200)" stroke-width="1" opacity="1.0" d="M 64.5 64.0 L 79.0 76.5 L 87.0 85.5 L 98.0 100.5 L 106.0 115.5 L 103.5 117.0 L 96.5 106.0 L 91.0 97.5 L 83.0 87.5 L 72.5 76.0 L 67.0 78.5 L 66.5 81.0 L 65.0 81.5 L 75.5 98.0 L 79.0 105.5 L 80.5 111.0 L 81.5 120.0 L 88.0 117.5 L 91.5 117.0 L 97.0 120.5 L 94.5 124.0 L 92.5 121.0 L 88.5 121.0 L 86.5 122.0 L 82.0 123.5 L 78.0 125.5 L 73.5 129.0 L 64.0 137.5 L 60.5 145.0 L 58.5 146.0 L 58.0 142.5 L 63.0 133.5 L 66.5 129.0 L 68.0 128.5 L 65.5 125.0 L 65.0 119.5 L 61.0 110.5 L 55.5 103.0 L 54.5 105.0 L 52.5 104.0 L 51.0 109.5 L 47.0 116.5 L 44.5 121.0 L 44.0 123.5 L 44.0 132.5 L 45.0 135.5 L 46.0 144.5 L 42.5 149.0 L 38.0 150.5 L 41.0 156.5 L 38.5 158.0 L 33.5 151.0 L 30.0 145.5 L 28.5 141.0 L 28.0 137.5 L 29.0 137.5 L 31.0 142.5 L 33.5 146.0 L 37.5 147.0 L 42.0 144.5 L 41.5 137.0 L 41.0 134.5 L 40.5 132.0 L 40.0 121.5 L 45.0 112.5 L 47.0 110.5 L 48.5 106.0 L 49.0 99.5 L 48.0 96.5 L 47.0 93.5 L 43.0 85.5 L 44.5 86.0 L 47.5 89.0 L 52.0 92.5 L 62.0 105.5 L 66.5 112.0 L 67.5 114.0 L 68.0 118.5 L 68.5 123.0 L 69.5 126.0 L 74.0 124.5 L 76.0 121.5 L 77.0 118.5 L 77.0 110.5 L 68.0 92.5 L 57.0 76.5 L 63.0 71.5 L 64.5 64.0 Z" /><path desc="l 1 p 1" fill="rgb(249,157,164)" stroke="rgb(249,157,164)" stroke-width="1" opacity="1.0" d="M 72.5 76.0 L 83.0 87.5 L 91.0 97.5 L 98.0 108.5 L 95.5 107.0 L 88.5 100.0 L 83.5 98.0 L 82.0 100.5 L 82.0 104.5 Q 83.8 105.3 83.0 108.5 L 83.5 113.0 L 85.5 116.0 L 87.5 117.0 L 89.0 116.5 L 81.5 120.0 L 81.0 114.5 L 80.5 111.0 L 79.0 106.5 L 76.0 98.5 L 65.0 81.5 L 67.0 80.5 Q 66.5 77.5 68.5 77.0 Q 71.8 77.8 72.5 76.0 Z" /><path desc="l 7 p 0" fill="rgb(246,120,130)" stroke="rgb(246,120,130)" stroke-width="1" opacity="0.996078431372549" d="M 114.5 80.0 L 120.5 84.0 L 128.0 91.5 L 135.0 107.5 L 131.5 109.0 L 130.0 108.5 L 129.5 111.0 L 127.5 112.0 L 122.0 101.5 L 118.0 95.5 Q 120.0 94.5 118.0 93.5 L 115.0 83.5 L 114.5 80.0 Z" /><path desc="l 1 p 2" fill="rgb(249,157,164)" stroke="rgb(249,157,164)" stroke-width="1" opacity="1.0" d="M 134.5 96.0 L 138.0 104.5 L 142.0 117.5 L 143.0 122.5 L 147.5 130.0 L 149.0 127.5 L 151.0 120.5 L 157.5 111.0 L 157.0 112.5 L 153.5 126.0 L 152.5 133.0 L 152.0 141.5 L 151.0 143.5 L 151.0 149.5 L 148.0 156.5 L 145.0 160.5 L 137.5 169.0 L 127.0 175.5 L 114.0 180.5 L 108.5 182.0 L 99.0 183.5 L 86.5 184.0 Q 85.8 182.3 82.5 183.0 L 71.5 181.0 L 65.0 178.5 L 52.5 171.0 L 39.0 158.5 L 41.0 155.5 L 40.5 154.0 L 51.5 166.0 L 68.5 176.0 L 80.5 179.0 L 87.5 180.0 L 101.5 180.0 L 103.5 179.0 L 106.5 179.0 L 122.0 173.5 L 128.0 170.5 L 132.5 167.0 L 143.0 157.5 L 144.5 155.0 L 147.0 147.5 L 149.0 131.5 L 146.5 131.0 L 144.0 130.5 L 141.0 128.5 L 138.5 119.0 L 134.5 107.0 L 131.0 98.5 L 134.5 96.0 Z" /><path desc="l 7 p 1" fill="rgb(246,120,130)" stroke="rgb(246,120,130)" stroke-width="1" opacity="0.996078431372549" d="M 83.5 98.0 L 86.5 99.0 L 91.5 103.0 L 99.0 109.5 L 105.0 122.5 L 102.5 123.0 L 99.0 124.5 L 98.5 127.0 L 98.0 123.5 L 97.5 121.0 L 94.5 118.0 L 88.5 116.0 Q 87.5 118.0 86.5 116.0 L 84.0 114.5 L 83.0 109.5 L 82.0 99.5 L 83.5 98.0 Z" /><path desc="l 1 p 3" fill="rgb(249,157,164)" stroke="rgb(249,157,164)" stroke-width="1" opacity="1.0" d="M 55.5 103.0 L 60.5 110.0 L 64.0 116.5 L 65.0 119.5 L 65.5 125.0 L 68.0 128.5 L 65.0 130.5 L 61.5 135.0 L 62.0 133.5 L 62.5 132.0 L 63.0 124.5 L 57.5 116.0 L 50.0 121.5 L 48.5 125.0 L 48.0 131.5 L 48.0 138.5 L 46.5 143.0 L 44.5 133.0 L 44.0 121.5 L 50.0 111.5 L 52.0 106.5 L 52.5 104.0 L 54.5 105.0 L 55.5 103.0 Z" /><path desc="l 1 p 4" fill="rgb(249,157,164)" stroke="rgb(249,157,164)" stroke-width="1" opacity="1.0" d="M 122.5 104.0 L 124.0 104.5 L 132.0 121.5 L 135.0 133.5 L 136.0 140.5 L 136.0 152.5 L 134.0 157.5 L 130.5 163.0 L 124.5 169.0 L 118.5 172.0 L 108.5 175.0 L 105.0 175.5 L 88.5 176.0 L 86.5 175.0 L 83.5 175.0 L 74.5 171.0 L 70.0 168.5 L 63.0 162.5 L 59.0 155.5 L 58.0 150.5 Q 58.8 147.3 57.0 146.5 L 61.5 144.0 L 62.0 146.5 Q 60.0 147.5 62.0 148.5 L 62.5 154.0 L 65.5 159.0 L 71.5 165.0 L 81.5 170.0 L 88.0 171.5 L 106.5 172.0 L 114.0 169.5 L 121.5 166.0 L 128.0 160.5 L 129.5 158.0 L 132.0 150.5 L 133.0 143.5 Q 131.3 142.8 132.0 139.5 L 131.0 131.5 L 128.0 122.5 L 120.0 106.5 L 122.5 104.0 Z" /><path desc="l 6 p 0" fill="rgb(244,71,85)" stroke="rgb(244,71,85)" stroke-width="1" opacity="0.996078431372549" d="M 130.5 108.0 L 132.5 109.0 L 134.5 108.0 L 138.0 119.5 L 139.0 123.5 Q 139.4 129.1 143.5 131.0 L 148.0 132.5 L 147.0 146.5 Q 145.3 147.3 146.0 150.5 L 143.0 155.5 L 141.0 158.5 L 135.5 165.0 L 132.0 167.5 L 121.0 173.5 L 114.5 176.0 L 108.5 178.0 L 91.5 180.0 L 89.5 179.0 L 86.5 179.0 L 81.0 178.5 L 77.0 177.5 L 66.5 174.0 L 57.5 169.0 L 50.5 164.0 L 43.0 156.5 L 51.5 149.0 Q 55.8 149.8 56.5 147.0 L 57.5 153.0 L 60.0 158.5 L 62.0 161.5 L 66.5 167.0 L 72.0 170.5 L 82.5 175.0 L 91.0 176.5 L 101.5 177.0 Q 102.3 175.3 105.5 176.0 L 112.5 175.0 L 119.5 172.0 L 125.5 168.0 L 132.0 162.5 L 136.0 153.5 L 137.0 148.5 L 137.0 137.5 L 136.0 134.5 L 135.0 129.5 L 128.0 111.5 L 130.0 110.5 L 130.5 108.0 Z" /><path desc="l 7 p 2" fill="rgb(246,120,130)" stroke="rgb(246,120,130)" stroke-width="1" opacity="0.996078431372549" d="M 56.5 116.0 L 60.0 118.5 L 62.0 122.5 L 62.5 124.0 L 63.0 131.5 L 59.5 139.0 L 57.0 146.5 L 58.0 148.5 L 58.0 152.5 L 57.0 152.5 L 56.5 147.0 Q 55.8 149.8 51.5 149.0 L 43.0 156.5 L 49.5 163.0 L 51.5 166.0 L 44.5 159.0 L 39.0 151.5 L 45.0 146.5 L 47.0 142.5 L 47.5 141.0 L 48.0 133.5 L 48.0 127.5 L 49.0 124.5 L 50.0 122.5 L 53.5 118.0 L 56.5 116.0 Z" /><path desc="l 1 p 5" fill="rgb(249,157,164)" stroke="rgb(249,157,164)" stroke-width="1" opacity="1.0" d="M 102.5 116.0 L 104.5 117.0 L 106.5 116.0 L 111.0 127.5 L 114.0 140.5 L 113.0 142.5 L 112.5 145.0 L 109.5 148.0 L 105.0 149.5 L 100.5 150.0 L 88.5 150.0 L 78.0 145.5 L 77.0 142.5 L 92.0 130.5 L 94.0 126.5 L 94.5 124.0 L 97.5 121.0 L 98.0 127.5 L 91.5 137.0 L 82.0 143.5 L 88.0 145.5 L 92.5 146.0 L 104.5 146.0 L 109.0 143.5 L 110.0 138.5 L 106.0 124.5 L 103.0 118.5 L 102.5 116.0 Z" /><path desc="l 6 p 1" fill="rgb(244,71,85)" stroke="rgb(244,71,85)" stroke-width="1" opacity="0.996078431372549" d="M 103.5 122.0 L 105.5 126.0 L 108.0 133.5 L 109.0 136.5 L 109.0 142.5 L 106.0 144.5 L 103.5 145.0 L 101.0 145.5 L 92.5 146.0 L 83.0 143.5 L 94.0 135.5 L 98.0 128.5 L 99.5 124.0 L 103.5 122.0 Z" /></svg>