<svg width="200" height="200" version="1.1" xmlns="http://www.w3.org/2000/svg" desc="Created with ImageTracer.java version 1.1.2" ><path desc="l 1 p 0" fill="rgb(254,254,254)" stroke="rgb(254,254,254)" stroke-width="1" opacity="0.0" d="M 0.5 0.0 L 200.0 0.5 L 199.5 200.0 L 0.0 199.5 L 0.5 0.0 Z" /><path desc="l 4 p 0" fill="rgb(137,79,38)" stroke="rgb(137,79,38)" stroke-width="1" opacity="0.996078431372549" d="M 69.5 8.0 L 75.5 8.0 Q 79.3 7.3 80.0 9.5 L 86.5 29.0 L 93.5 27.0 L 100.5 26.0 L 104.0 28.5 L 104.5 35.0 L 105.5 39.0 L 109.5 54.0 L 119.5 44.0 L 125.5 40.0 L 135.5 36.0 L 141.5 35.0 L 152.5 35.0 L 160.5 38.0 L 168.0 42.5 L 177.0 50.5 L 176.5 52.0 L 167.5 60.0 L 158.0 52.5 L 151.5 49.0 L 143.5 48.0 L 134.5 52.0 L 126.0 59.5 L 123.0 63.5 L 132.0 66.5 L 143.5 72.0 L 149.0 75.5 L 161.0 87.5 L 166.0 96.5 L 168.0 99.5 L 169.0 102.5 L 172.0 111.5 L 173.0 119.5 L 173.0 134.5 L 171.0 140.5 L 169.0 145.5 L 165.5 154.0 L 161.5 160.0 L 150.5 172.0 L 144.5 176.0 L 136.0 180.5 L 131.5 182.0 L 125.0 184.5 L 117.5 186.0 L 114.0 186.5 L 100.5 187.0 Q 99.8 185.3 96.5 186.0 L 83.5 183.0 L 73.5 178.0 L 66.0 173.5 L 54.0 162.5 L 47.0 150.5 L 44.0 144.5 L 42.0 137.5 L 41.0 129.5 L 41.0 114.5 L 43.5 106.0 L 47.0 97.5 L 49.5 93.0 L 55.0 85.5 L 42.0 63.5 L 39.0 58.5 Q 37.3 57.8 38.0 54.5 L 50.0 44.5 L 44.0 31.5 L 41.5 28.0 L 41.0 24.5 L 43.5 21.0 L 49.5 17.0 L 57.5 13.0 L 69.5 8.0 Z" /><path desc="l 5 p 0" fill="rgb(222,172,139)" stroke="rgb(222,172,139)" stroke-width="1" opacity="0.996078431372549" d="M 71.5 12.0 L 74.0 12.5 L 60.5 20.0 L 52.5 23.0 L 47.5 24.0 L 47.5 23.0 L 60.5 16.0 L 71.5 12.0 Z" /><path desc="l 5 p 1" fill="rgb(222,172,139)" stroke="rgb(222,172,139)" stroke-width="1" opacity="0.996078431372549" d="M 75.5 17.0 L 78.0 17.5 L 85.0 39.5 L 80.5 43.0 L 72.0 47.5 L 67.5 50.0 L 63.0 51.5 L 59.5 52.0 L 48.0 29.5 L 60.5 25.0 L 75.5 17.0 Z" /><path desc="l 5 p 2" fill="rgb(222,172,139)" stroke="rgb(222,172,139)" stroke-width="1" opacity="0.996078431372549" d="M 98.5 36.0 L 101.0 36.5 L 101.5 41.0 L 102.5 45.0 L 107.0 64.5 L 102.5 72.0 L 98.5 77.0 L 89.5 83.0 L 80.5 86.0 L 73.5 86.0 L 69.5 87.0 L 67.5 86.0 L 63.5 86.0 L 58.0 83.5 L 45.0 60.5 L 55.5 59.0 L 65.5 56.0 L 76.5 51.0 L 88.5 44.0 L 98.5 36.0 Z" /><path desc="l 5 p 3" fill="rgb(222,172,139)" stroke="rgb(222,172,139)" stroke-width="1" opacity="0.996078431372549" d="M 139.5 39.0 L 152.0 39.5 L 153.5 40.0 L 158.5 42.0 L 167.0 47.5 L 171.0 50.5 L 166.5 54.0 L 158.5 48.0 L 156.5 46.0 L 152.0 44.5 L 142.5 44.0 L 140.5 45.0 L 137.5 46.0 L 131.0 49.5 L 122.0 57.5 L 118.5 62.0 L 111.0 61.5 L 112.0 58.5 L 114.5 55.0 L 122.5 47.0 L 139.5 39.0 Z" /><path desc="l 5 p 4" fill="rgb(222,172,139)" stroke="rgb(222,172,139)" stroke-width="1" opacity="0.996078431372549" d="M 111.5 67.0 L 120.0 67.5 L 123.5 68.0 L 136.5 73.0 L 144.0 77.5 L 156.0 88.5 L 165.0 103.5 L 168.0 116.5 L 168.5 120.0 L 169.0 128.5 Q 167.3 129.3 168.0 132.5 L 166.5 140.0 L 163.0 149.5 L 160.0 154.5 L 146.5 169.0 L 138.5 174.0 L 129.5 178.0 L 121.0 180.5 L 115.0 181.5 L 99.5 182.0 L 96.5 181.0 L 86.5 179.0 L 76.0 174.5 L 66.5 168.0 L 59.0 161.5 L 56.0 157.5 L 49.0 144.5 L 47.0 139.5 L 45.5 132.0 L 45.0 117.5 L 46.0 114.5 L 47.0 109.5 L 49.0 103.5 L 52.0 97.5 L 57.5 89.0 L 62.5 90.0 L 68.5 91.0 L 74.5 92.0 Q 75.3 90.3 78.5 91.0 L 84.5 90.0 L 91.5 88.0 L 98.0 84.5 L 106.0 77.5 L 109.5 72.0 L 111.5 67.0 Z" /></svg>