<svg width="200" height="200" version="1.1" xmlns="http://www.w3.org/2000/svg" desc="Created with ImageTracer.java version 1.1.2" ><path desc="l 1 p 0" fill="rgb(0,0,0)" stroke="rgb(0,0,0)" stroke-width="1" opacity="0.0" d="M 0.5 0.0 L 84.0 0.5 L 73.0 2.5 L 67.5 4.0 L 60.0 6.5 L 48.5 12.0 L 37.0 19.5 L 20.0 35.5 L 9.5 52.0 L 6.0 59.5 L 5.5 61.0 L 5.0 66.5 Q 5.8 68.8 9.5 68.0 L 12.5 68.0 L 14.5 69.0 Q 17.8 68.3 18.5 70.0 L 25.5 73.0 L 37.0 81.5 L 44.0 91.5 L 47.0 97.5 L 48.5 102.0 L 49.0 105.5 L 50.0 107.5 L 50.0 111.5 L 50.5 116.0 L 52.5 119.0 L 58.5 119.0 L 62.5 120.0 L 67.5 122.0 L 72.0 125.5 L 74.5 131.0 L 75.0 136.5 L 70.5 144.0 L 66.0 146.5 L 64.5 147.0 L 61.0 149.5 L 61.5 154.0 L 72.5 162.0 L 83.0 172.5 L 88.0 180.5 L 97.0 199.5 L 0.5 200.0 L 0.5 0.0 Z" /><path desc="l 6 p 0" fill="rgb(1,136,170)" stroke="rgb(1,136,170)" stroke-width="1" opacity="0.9921568627450981" d="M 93.5 0.0 L 107.0 0.5 L 112.5 1.0 L 120.5 2.0 L 134.5 5.0 L 154.5 14.0 L 164.5 22.0 L 178.0 34.5 L 187.5 49.0 L 193.0 59.5 L 195.0 64.5 L 193.5 67.0 L 187.0 67.5 L 181.5 69.0 L 172.5 73.0 L 160.0 83.5 L 154.5 92.0 L 152.0 97.5 L 150.5 102.0 L 150.0 105.5 L 149.0 111.5 L 148.5 116.0 L 147.5 118.0 L 140.0 118.5 L 135.5 120.0 L 131.5 122.0 L 126.0 126.5 L 124.0 135.5 L 126.0 139.5 L 127.0 141.5 L 130.5 146.0 L 138.0 149.5 L 137.5 153.0 L 135.5 155.0 L 127.5 161.0 L 119.0 168.5 L 112.5 178.0 L 107.5 187.0 L 104.0 194.5 L 100.5 200.0 L 97.0 197.5 L 95.0 192.5 L 87.5 178.0 L 81.0 169.5 L 74.5 162.0 L 62.0 152.5 Q 61.3 148.8 63.5 148.0 L 68.5 146.0 L 73.0 142.5 L 75.5 136.0 L 76.0 132.5 Q 74.3 131.8 75.0 128.5 L 69.5 122.0 L 62.5 119.0 L 52.0 117.5 L 50.0 105.5 L 49.5 102.0 L 47.0 95.5 L 43.0 87.5 L 33.5 77.0 L 25.5 72.0 L 15.5 68.0 L 6.0 66.5 L 5.0 63.5 L 8.0 56.5 L 15.5 44.0 L 22.0 35.5 L 34.5 22.0 L 44.5 15.0 L 53.5 10.0 L 63.5 6.0 L 72.0 3.5 L 76.5 3.0 L 82.0 1.5 L 87.5 1.0 L 90.5 1.0 L 93.5 0.0 Z" /><path desc="l 1 p 1" fill="rgb(0,0,0)" stroke="rgb(0,0,0)" stroke-width="1" opacity="0.0" d="M 116.5 0.0 L 200.0 0.5 L 199.5 200.0 L 103.0 199.5 L 112.0 180.5 L 123.5 165.0 L 139.0 153.5 L 138.5 149.0 L 136.5 147.0 L 132.5 146.0 L 129.0 143.5 L 126.0 138.5 L 125.5 137.0 L 125.0 131.5 L 130.5 123.0 L 137.5 120.0 L 143.5 119.0 Q 148.0 120.0 149.0 117.5 L 149.5 116.0 L 150.0 110.5 L 150.0 107.5 L 151.0 105.5 L 151.5 102.0 L 154.0 95.5 L 159.0 86.5 L 164.5 80.0 L 174.5 73.0 L 184.5 69.0 L 189.5 68.0 Q 194.0 69.0 195.0 66.5 L 195.0 63.5 L 194.0 60.5 L 191.0 53.5 L 184.0 41.5 L 176.5 32.0 L 164.5 20.0 L 157.5 15.0 L 143.5 8.0 L 130.5 3.0 L 119.5 1.0 Q 115.5 1.8 116.5 0.0 Z" /><path desc="l 0 p 0" fill="rgb(197,229,238)" stroke="rgb(197,229,238)" stroke-width="1" opacity="0.996078431372549" d="M 89.5 6.0 L 110.0 6.5 L 119.0 7.5 L 124.5 9.0 L 129.5 10.0 L 137.0 12.5 L 147.5 17.0 L 161.0 26.5 L 171.0 35.5 L 179.5 47.0 L 187.0 60.5 L 176.0 64.5 L 166.5 70.0 L 154.0 81.5 L 147.5 93.0 L 145.0 100.5 L 142.5 112.0 L 134.5 114.0 L 132.0 114.5 L 127.5 117.0 L 123.0 120.5 L 120.0 125.5 L 119.0 130.5 L 119.0 139.5 L 120.0 142.5 L 128.0 151.5 L 126.5 154.0 L 113.0 166.5 L 100.5 187.0 L 99.0 186.5 L 93.5 176.0 L 87.0 167.5 L 75.5 155.0 L 72.0 152.5 L 77.5 146.0 L 80.5 140.0 L 82.0 132.5 L 80.5 127.0 L 77.5 122.0 L 72.5 117.0 L 64.5 113.0 L 60.0 112.5 L 57.0 111.5 L 56.0 104.5 L 54.0 97.5 L 52.0 92.5 L 48.0 85.5 L 43.5 79.0 L 35.5 71.0 L 24.5 65.0 L 19.5 63.0 L 13.0 61.5 L 16.0 54.5 L 24.0 41.5 L 36.5 28.0 L 49.5 19.0 L 63.0 12.5 L 73.5 9.0 L 84.5 7.0 L 87.5 7.0 L 89.5 6.0 Z" /><path desc="l 6 p 1" fill="rgb(1,136,170)" stroke="rgb(1,136,170)" stroke-width="1" opacity="0.9921568627450981" d="M 96.5 46.0 L 105.0 46.5 L 107.5 47.0 L 111.0 47.5 L 116.5 50.0 L 122.0 53.5 L 128.0 59.5 L 132.0 69.5 L 132.5 72.0 L 133.0 82.5 L 132.0 84.5 L 132.0 87.5 L 130.0 91.5 L 124.5 100.0 L 120.5 102.0 L 118.0 97.5 L 120.0 91.5 L 121.0 86.5 L 119.0 79.5 L 117.0 75.5 L 112.5 70.0 L 106.0 67.5 L 94.5 67.0 L 90.5 69.0 L 86.5 71.0 L 83.0 74.5 L 81.0 78.5 L 80.0 83.5 L 80.0 92.5 L 82.0 99.5 Q 81.3 101.8 77.5 101.0 L 72.0 95.5 L 69.5 90.0 L 67.5 83.0 L 67.0 73.5 L 69.0 66.5 L 73.0 59.5 L 80.5 51.0 L 84.5 49.0 L 89.0 47.5 L 92.5 47.0 Q 95.8 47.8 96.5 46.0 Z" /><path desc="l 1 p 2" fill="rgb(0,0,0)" stroke="rgb(0,0,0)" stroke-width="1" opacity="0.0" d="M 92.5 53.0 L 103.5 53.0 L 108.0 53.5 L 114.5 56.0 L 123.0 63.5 L 125.5 70.0 L 126.0 73.5 L 127.0 78.5 L 125.0 77.5 L 124.0 74.5 L 121.5 70.0 L 116.5 65.0 L 108.0 61.5 L 92.5 61.0 L 87.5 63.0 L 84.5 65.0 L 77.0 71.5 L 74.5 78.0 L 74.0 70.5 L 76.0 66.5 L 78.5 62.0 L 83.5 57.0 L 92.5 53.0 Z" /></svg>