<svg width="200" height="200" version="1.1" xmlns="http://www.w3.org/2000/svg" desc="Created with ImageTracer.java version 1.1.2" ><path desc="l 4 p 0" fill="rgb(254,254,254)" stroke="rgb(254,254,254)" stroke-width="1" opacity="0.0" d="M 0.5 0.0 L 200.0 0.5 L 199.5 200.0 L 0.0 199.5 L 0.5 0.0 Z" /><path desc="l 5 p 0" fill="rgb(2,137,170)" stroke="rgb(2,137,170)" stroke-width="1" opacity="0.984313725490196" d="M 82.5 15.0 L 108.5 15.0 L 118.0 15.5 L 120.5 16.0 L 131.5 18.0 L 144.5 21.0 L 151.0 22.5 L 157.5 25.0 L 167.5 29.0 L 179.5 34.0 L 185.0 37.5 L 186.0 45.5 Q 184.3 46.3 185.0 49.5 L 185.0 60.5 L 184.0 100.5 L 182.5 110.0 L 181.5 115.0 L 179.0 120.5 L 175.0 128.5 L 168.0 137.5 L 145.5 161.0 L 133.0 171.5 L 124.0 178.5 L 112.5 186.0 L 105.5 191.0 L 103.5 192.0 L 101.5 193.0 L 97.5 193.0 L 85.0 184.5 L 62.5 168.0 L 33.0 139.5 L 23.5 126.0 L 18.0 114.5 L 18.0 111.5 L 17.0 109.5 L 16.0 95.5 L 15.0 61.5 L 14.5 46.0 L 14.0 40.5 L 17.5 35.0 L 42.5 25.0 L 50.5 22.0 L 57.0 20.5 L 76.0 16.5 L 79.5 16.0 L 82.5 15.0 Z" /><path desc="l 7 p 0" fill="rgb(201,232,240)" stroke="rgb(201,232,240)" stroke-width="1" opacity="1.0" d="M 81.5 20.0 L 108.5 20.0 L 123.5 21.0 L 126.5 22.0 L 131.5 23.0 L 139.0 24.5 L 151.5 28.0 L 168.0 34.5 L 180.0 40.5 L 179.5 72.0 L 179.0 90.5 L 178.0 105.5 L 176.5 113.0 L 173.0 121.5 L 165.5 133.0 L 135.5 163.0 L 125.0 171.5 L 99.5 188.0 L 81.5 176.0 L 62.5 161.0 L 37.0 136.5 L 30.5 128.0 L 28.0 123.5 L 24.0 115.5 L 22.5 111.0 L 22.0 107.5 L 21.0 97.5 L 20.0 67.5 L 19.0 40.5 L 38.0 31.5 L 50.5 27.0 L 59.5 25.0 L 75.0 21.5 L 78.5 21.0 L 81.5 20.0 Z" /><path desc="l 5 p 1" fill="rgb(2,137,170)" stroke="rgb(2,137,170)" stroke-width="1" opacity="0.984313725490196" d="M 99.5 31.0 L 117.0 47.5 L 124.0 57.5 L 126.0 61.5 L 128.0 68.5 L 128.5 71.0 L 129.0 82.5 L 126.0 93.5 L 125.5 95.0 L 125.0 101.5 L 128.5 106.0 L 149.0 117.5 L 126.5 118.0 L 119.5 118.0 Q 116.5 117.5 116.0 119.5 L 110.5 132.0 L 107.0 142.5 L 100.5 169.0 L 99.0 166.5 L 98.0 162.5 L 93.0 142.5 L 89.5 132.0 L 82.5 118.0 L 61.0 117.5 L 52.0 116.5 L 62.0 111.5 L 74.0 103.5 L 74.5 102.0 L 75.0 95.5 L 72.0 84.5 L 71.5 82.0 L 71.0 73.5 L 72.0 70.5 L 73.0 65.5 L 75.0 59.5 L 77.0 56.5 L 84.0 46.5 L 99.5 31.0 Z" /><path desc="l 6 p 0" fill="rgb(117,197,216)" stroke="rgb(117,197,216)" stroke-width="1" opacity="0.996078431372549" d="M 147.5 37.0 L 155.0 37.5 L 157.5 38.0 L 169.5 41.0 L 169.5 39.0 L 172.0 40.5 L 175.5 46.0 L 176.5 43.0 L 177.0 45.5 Q 175.3 46.3 176.0 49.5 L 176.0 59.5 L 175.0 97.5 L 174.0 105.5 L 173.0 111.5 L 171.0 116.5 L 165.5 127.0 L 160.5 133.0 L 136.5 157.0 L 120.0 170.5 L 107.0 179.5 L 102.5 182.0 Q 101.8 183.8 98.5 183.0 L 80.5 171.0 L 64.5 157.0 L 44.0 137.5 L 46.5 132.0 L 52.5 126.0 L 56.0 124.5 L 56.5 123.0 L 58.5 124.0 L 61.5 122.0 L 65.5 122.0 L 80.5 122.0 L 80.5 123.0 L 78.0 123.5 L 82.0 124.5 L 86.5 136.0 L 91.0 152.5 L 95.0 167.5 L 96.0 171.5 Q 95.5 174.5 97.5 175.0 L 100.5 175.0 Q 103.5 175.5 104.0 173.5 L 106.5 161.0 L 111.0 144.5 L 114.0 135.5 L 119.5 122.0 L 141.5 122.0 L 150.0 121.5 L 154.0 119.5 Q 155.0 115.0 152.5 114.0 L 139.5 107.0 L 130.0 101.5 L 129.0 97.5 L 132.5 84.0 L 133.5 71.0 L 135.0 70.5 L 133.0 51.5 L 147.5 37.0 Z" /><path desc="l 0 p 0" fill="rgb(0,136,170)" stroke="rgb(0,136,170)" stroke-width="1" opacity="0.2901960784313726" d="M 99.5 38.0 L 117.0 54.5 L 119.0 57.5 L 116.0 55.5 L 100.5 39.0 L 95.5 43.0 L 96.0 41.5 L 99.5 38.0 Z" /><path desc="l 4 p 1" fill="rgb(254,254,254)" stroke="rgb(254,254,254)" stroke-width="1" opacity="0.0" d="M 99.5 39.0 L 116.0 54.5 L 121.0 62.5 L 122.5 67.0 L 123.0 70.5 L 124.0 80.5 L 121.0 91.5 L 120.5 94.0 L 120.0 102.5 L 121.0 104.5 L 126.5 111.0 L 128.0 111.5 L 121.5 112.0 L 115.5 113.0 L 112.0 115.5 L 104.0 134.5 L 100.5 147.0 L 99.0 146.5 L 98.5 143.0 L 97.0 138.5 L 93.0 126.5 L 89.0 118.5 L 85.5 113.0 L 79.5 112.0 L 72.0 111.5 L 79.0 105.5 L 79.5 103.0 L 80.0 94.5 L 77.5 86.0 L 76.5 81.0 L 76.0 75.5 L 77.0 72.5 L 77.5 68.0 L 79.0 63.5 L 82.5 57.0 L 85.0 53.5 L 94.5 43.0 L 99.5 39.0 Z" /><path desc="l 5 p 2" fill="rgb(2,137,170)" stroke="rgb(2,137,170)" stroke-width="1" opacity="0.984313725490196" d="M 97.5 59.0 L 103.0 59.5 L 109.0 61.5 L 115.0 67.5 L 116.5 72.0 L 117.0 81.5 L 115.0 87.5 L 113.0 93.5 L 109.5 102.0 L 103.5 115.0 L 98.5 116.0 L 96.0 114.5 L 88.5 98.0 L 84.0 85.5 L 83.5 83.0 L 83.0 71.5 L 88.5 63.0 L 97.5 59.0 Z" /><path desc="l 7 p 1" fill="rgb(201,232,240)" stroke="rgb(201,232,240)" stroke-width="1" opacity="1.0" d="M 97.5 64.0 L 103.0 64.5 L 106.5 66.0 L 111.0 70.5 L 111.5 73.0 L 112.0 81.5 L 106.0 96.5 L 104.0 101.5 L 99.5 110.0 L 92.0 93.5 L 88.5 83.0 L 88.0 72.5 L 92.5 66.0 L 97.5 64.0 Z" /><path desc="l 6 p 1" fill="rgb(117,197,216)" stroke="rgb(117,197,216)" stroke-width="1" opacity="0.996078431372549" d="M 164.5 134.0 L 163.5 136.0 L 158.5 141.0 L 138.5 161.0 L 139.5 159.0 L 144.5 154.0 L 164.5 134.0 Z" /><path desc="l 0 p 1" fill="rgb(0,136,170)" stroke="rgb(0,136,170)" stroke-width="1" opacity="0.2901960784313726" d="M 33.5 140.0 L 48.0 154.5 L 51.5 158.0 L 52.5 160.0 L 38.0 145.5 L 34.5 142.0 L 33.5 140.0 Z" /><path desc="l 0 p 2" fill="rgb(0,136,170)" stroke="rgb(0,136,170)" stroke-width="1" opacity="0.2901960784313726" d="M 166.5 140.0 L 166.0 141.5 L 162.5 145.0 L 147.5 160.0 L 148.0 158.5 L 151.5 155.0 L 166.5 140.0 Z" /></svg>