<svg width="200" height="200" version="1.1" xmlns="http://www.w3.org/2000/svg" desc="Created with ImageTracer.java version 1.1.2" ><path desc="l 2 p 0" fill="rgb(2,0,0)" stroke="rgb(2,0,0)" stroke-width="1" opacity="0.00392156862745098" d="M 0.5 0.0 L 200.0 0.5 L 199.5 136.0 L 198.5 122.0 L 197.0 112.5 L 196.0 107.5 L 189.5 95.0 L 177.5 82.0 L 168.5 77.0 L 158.5 86.0 L 152.0 88.5 L 148.5 89.0 L 137.5 89.0 L 134.5 88.0 L 131.0 87.5 L 127.5 67.0 L 122.5 68.0 L 115.5 70.0 L 97.0 47.5 L 90.5 39.0 L 83.5 28.0 L 76.5 14.0 L 75.0 20.5 L 73.5 31.0 L 73.0 51.5 Q 74.8 52.3 74.0 55.5 L 75.0 58.5 L 79.0 63.5 L 77.5 63.0 L 73.0 59.5 L 67.0 50.5 L 62.5 41.0 L 61.0 43.5 L 60.0 47.5 L 56.5 62.0 L 56.0 52.5 L 57.0 49.5 L 58.0 42.5 L 61.0 31.5 L 67.0 6.5 L 65.5 6.0 L 49.0 20.5 L 40.0 36.5 L 37.0 49.5 L 36.0 58.5 L 36.0 72.5 L 37.5 77.0 L 45.5 73.0 L 50.0 70.5 L 54.0 66.5 L 55.5 64.0 L 56.0 67.5 L 55.0 69.5 L 55.0 72.5 L 55.0 85.5 L 56.0 87.5 L 56.0 90.5 L 60.0 98.5 L 57.5 97.0 L 54.0 99.5 L 46.5 109.0 L 32.5 117.0 L 28.5 119.0 L 23.0 123.5 L 23.5 125.0 L 32.5 129.0 L 43.5 132.0 L 53.5 134.0 Q 56.5 133.5 57.0 135.5 L 63.0 143.5 L 75.0 156.5 L 71.5 157.0 L 61.5 153.0 L 59.5 156.0 L 59.0 158.5 L 69.5 170.0 L 73.5 172.0 L 80.5 174.0 L 85.5 175.0 L 92.5 175.0 L 97.5 177.0 L 104.0 181.5 L 102.5 184.0 L 89.0 188.5 L 89.5 193.0 L 110.0 192.5 L 116.0 191.5 L 122.5 189.0 L 128.5 186.0 L 132.5 183.0 L 139.0 177.5 L 148.0 165.5 L 143.5 165.0 L 140.5 166.0 L 136.0 166.5 L 122.5 167.0 Q 120.5 166.5 121.0 163.5 L 121.0 154.5 L 122.5 154.0 L 130.5 159.0 L 135.0 160.5 L 141.5 161.0 L 144.5 160.0 L 149.5 158.0 L 153.0 156.5 L 157.5 156.0 L 161.5 158.0 L 163.5 159.0 L 168.0 162.5 L 172.5 172.0 L 175.5 180.0 L 179.0 174.5 L 180.0 170.5 L 180.0 161.5 L 179.0 159.5 L 179.0 156.5 L 174.0 147.5 Q 174.5 145.5 177.5 146.0 L 188.5 150.0 L 188.0 148.5 L 185.5 143.0 L 180.5 136.0 L 177.5 134.0 L 173.5 133.0 L 169.5 132.0 L 166.5 133.0 L 163.0 133.5 L 158.5 135.0 L 151.5 139.0 L 150.0 136.5 L 147.5 127.0 L 147.0 125.5 Q 147.5 122.5 145.5 122.0 L 142.0 130.5 L 141.0 133.5 L 137.5 140.0 L 124.5 128.0 L 118.0 122.5 L 115.5 121.0 L 111.5 120.0 L 103.5 120.0 L 100.5 121.0 L 93.0 126.5 L 91.0 131.5 L 94.0 132.5 L 99.5 133.0 L 106.0 133.5 L 110.0 134.5 L 113.0 142.5 L 115.0 146.5 L 119.0 151.5 L 111.5 155.0 L 108.5 157.0 L 104.5 158.0 L 104.0 156.5 L 108.0 146.5 L 106.5 146.0 L 101.0 147.5 L 95.5 148.0 L 90.5 143.0 Q 88.5 142.5 89.0 139.5 L 89.0 131.5 L 91.0 125.5 L 96.5 118.0 L 100.5 117.0 L 106.5 117.0 L 130.5 117.0 L 132.5 118.0 L 135.5 118.0 L 145.5 119.0 L 152.5 120.0 L 159.0 121.5 L 159.5 126.0 L 161.5 132.0 L 170.0 125.5 L 174.5 116.0 L 182.0 122.5 L 195.5 141.0 Q 199.9 143.1 200.0 149.5 L 200.0 159.5 L 200.0 199.5 L 0.5 200.0 L 0.0 79.5 L 2.0 80.5 L 7.0 86.5 L 12.0 93.5 L 23.5 106.0 L 28.5 109.0 L 30.0 109.5 L 35.5 110.0 L 40.5 108.0 L 50.0 99.5 L 52.5 96.0 L 53.5 94.0 L 54.0 89.5 L 54.0 75.5 L 52.5 75.0 L 45.5 79.0 L 41.5 81.0 L 34.5 83.0 L 32.0 83.5 L 25.5 84.0 L 8.0 79.5 L 4.5 79.0 L 0.0 77.5 L 0.5 0.0 Z" /><path desc="l 0 p 0" fill="rgb(120,15,15)" stroke="rgb(120,15,15)" stroke-width="1" opacity="0.9607843137254902" d="M 65.5 7.0 L 66.0 10.5 L 61.0 29.5 L 56.0 50.5 L 55.0 60.5 L 54.5 64.0 L 52.5 67.0 L 47.5 72.0 L 37.5 76.0 L 37.0 67.5 L 37.0 64.5 L 36.0 62.5 L 37.0 60.5 L 37.0 57.5 L 37.5 50.0 L 38.0 47.5 L 41.0 36.5 L 47.5 24.0 L 59.5 11.0 L 65.5 7.0 Z" /><path desc="l 0 p 1" fill="rgb(120,15,15)" stroke="rgb(120,15,15)" stroke-width="1" opacity="0.9607843137254902" d="M 76.5 15.0 L 82.5 27.0 L 88.5 37.0 L 93.5 44.0 L 116.5 71.0 L 126.5 67.0 L 128.0 72.5 L 129.5 82.0 L 130.0 85.5 Q 129.5 88.5 131.5 89.0 L 147.5 90.0 L 150.5 89.0 Q 153.8 89.8 154.5 88.0 L 161.0 84.5 L 167.0 79.5 Q 167.5 77.5 170.5 78.0 L 185.0 89.5 L 191.5 99.0 L 195.0 107.5 L 196.5 113.0 L 197.0 118.5 L 198.0 120.5 L 198.0 123.5 L 199.0 135.5 L 199.5 142.0 L 200.0 144.5 L 198.0 143.5 L 176.5 116.0 L 174.5 115.0 L 171.5 122.0 L 164.5 130.0 L 161.5 131.0 L 158.5 120.0 L 130.5 117.0 L 123.0 116.5 L 99.5 116.0 L 92.0 122.5 L 89.0 130.5 L 88.5 133.0 L 88.0 140.5 L 95.5 149.0 L 106.5 147.0 L 107.0 148.5 L 103.0 158.5 L 105.5 159.0 L 119.0 151.5 L 113.0 141.5 L 110.5 134.0 L 104.5 133.0 L 91.0 131.5 L 92.5 129.0 L 97.5 123.0 L 104.5 121.0 L 109.5 120.0 L 115.0 121.5 L 125.0 128.5 L 135.5 140.0 L 137.5 141.0 L 142.5 131.0 L 145.5 123.0 L 150.5 139.0 L 159.0 135.5 L 165.0 133.5 L 173.5 133.0 L 177.0 134.5 L 183.0 139.5 L 187.0 148.5 L 185.5 149.0 L 181.0 146.5 L 173.5 146.0 L 174.0 147.5 L 177.0 153.5 L 178.5 158.0 L 179.0 161.5 L 180.0 169.5 L 175.5 180.0 L 173.0 171.5 L 168.5 163.0 L 166.5 160.0 L 160.0 156.5 L 152.5 156.0 L 145.0 159.5 L 134.5 160.0 L 126.5 156.0 L 121.5 153.0 L 120.5 157.0 L 120.0 165.5 L 122.5 167.0 L 125.0 167.5 L 130.5 168.0 L 132.5 167.0 L 135.5 167.0 L 145.5 166.0 L 146.0 167.5 L 132.5 183.0 L 123.0 188.5 L 115.5 191.0 L 110.5 192.0 L 90.5 193.0 L 89.0 188.5 L 96.5 187.0 L 105.0 182.5 L 103.5 180.0 L 96.0 175.5 L 91.5 174.0 L 83.5 174.0 L 77.5 173.0 L 68.5 168.0 L 62.0 161.5 L 59.0 157.5 L 61.5 154.0 L 75.5 158.0 L 76.0 156.5 L 62.0 142.5 L 55.5 133.0 L 48.0 132.5 L 37.5 130.0 L 31.5 128.0 L 24.0 124.5 L 24.5 122.0 L 26.5 120.0 L 38.5 115.0 L 42.0 112.5 L 54.0 101.5 L 56.5 97.0 L 59.5 100.0 L 61.0 100.5 L 58.0 93.5 L 56.5 89.0 L 56.0 85.5 L 55.0 74.5 L 56.0 71.5 L 56.0 66.5 L 59.0 53.5 L 62.5 42.0 L 68.0 52.5 L 72.0 58.5 L 78.5 65.0 L 80.0 64.5 L 76.0 58.5 L 74.0 53.5 L 73.0 39.5 L 74.0 37.5 L 74.0 33.5 L 74.5 27.0 L 75.0 24.5 L 76.5 15.0 Z" /><path desc="l 1 p 0" fill="rgb(192,104,104)" stroke="rgb(192,104,104)" stroke-width="1" opacity="0.996078431372549" d="M 58.5 19.0 L 58.0 20.5 L 53.5 39.0 L 51.5 48.0 L 51.0 52.5 L 50.0 59.5 Q 50.8 62.8 49.0 63.5 L 47.5 66.0 L 41.5 69.0 L 41.0 61.5 Q 42.8 60.8 42.0 57.5 L 42.0 52.5 L 43.0 49.5 L 44.0 43.5 L 45.0 39.5 L 47.0 35.5 L 52.5 25.0 L 56.5 20.0 L 58.5 19.0 Z" /><path desc="l 1 p 1" fill="rgb(192,104,104)" stroke="rgb(192,104,104)" stroke-width="1" opacity="0.996078431372549" d="M 78.5 30.0 L 84.5 39.0 L 96.0 53.5 L 113.5 75.0 L 116.5 75.0 L 119.5 74.0 L 123.5 73.0 L 125.0 84.5 L 127.5 92.0 L 136.0 93.5 L 151.5 94.0 L 157.5 92.0 L 169.5 83.0 L 174.5 87.0 L 184.0 95.5 L 188.0 102.5 L 190.0 106.5 L 191.0 110.5 L 193.0 116.5 L 194.0 129.5 L 191.0 127.5 L 186.0 120.5 L 177.5 111.0 L 175.5 110.0 Q 174.8 108.3 171.5 109.0 L 169.0 116.5 L 164.5 125.0 L 160.5 109.0 L 158.0 109.5 L 156.0 111.5 L 153.5 115.0 L 142.0 113.5 L 131.0 112.5 L 96.5 112.0 L 90.0 117.5 L 85.0 126.5 L 84.5 130.0 L 84.0 142.5 L 93.5 153.0 L 100.0 153.5 L 99.5 155.0 L 99.0 161.5 L 102.5 164.0 L 104.5 163.0 L 107.5 163.0 L 115.5 159.0 L 116.0 165.5 L 116.5 169.0 L 118.5 171.0 L 125.5 172.0 L 137.0 172.5 L 129.0 179.5 L 123.0 183.5 L 117.5 186.0 L 106.5 188.0 L 106.5 187.0 L 109.0 184.5 L 110.0 181.5 L 104.5 175.0 L 97.5 171.0 L 94.5 170.0 L 85.5 170.0 L 83.5 169.0 L 79.5 169.0 L 75.0 167.5 L 67.0 160.5 L 68.5 160.0 L 73.0 161.5 L 78.5 162.0 L 83.0 158.5 L 64.0 137.5 L 57.5 129.0 L 42.5 127.0 L 32.0 123.5 L 32.5 122.0 L 45.5 116.0 L 54.0 108.5 L 57.5 104.0 L 67.5 113.0 L 69.0 110.5 L 69.0 106.5 L 66.0 99.5 L 63.0 94.5 L 60.5 85.0 L 60.0 68.5 L 61.0 65.5 L 62.0 59.5 L 63.5 54.0 L 67.0 58.5 L 76.5 69.0 L 82.5 72.0 L 88.5 74.0 L 93.5 75.0 L 94.0 71.5 L 83.0 60.5 Q 79.3 58.7 79.0 53.5 L 78.0 45.5 L 78.5 30.0 Z" /><path desc="l 0 p 2" fill="rgb(120,15,15)" stroke="rgb(120,15,15)" stroke-width="1" opacity="0.9607843137254902" d="M 83.5 47.0 L 111.5 80.0 L 116.5 81.0 L 118.5 80.0 Q 120.5 80.5 120.0 83.5 L 121.0 91.5 L 119.5 91.0 L 116.5 88.0 L 113.0 85.5 L 105.5 76.0 L 100.0 73.5 L 99.5 71.0 L 97.5 68.0 L 93.5 63.0 L 85.0 55.5 L 83.5 47.0 Z" /><path desc="l 0 p 3" fill="rgb(120,15,15)" stroke="rgb(120,15,15)" stroke-width="1" opacity="0.9607843137254902" d="M 66.5 67.0 L 73.5 73.0 L 82.5 78.0 L 93.0 81.5 L 87.5 83.0 L 84.5 84.0 L 81.0 87.5 L 81.5 92.0 L 83.0 94.5 L 87.5 99.0 L 94.5 103.0 L 103.0 106.5 L 93.5 108.0 L 85.0 115.5 L 81.0 123.5 L 79.0 131.5 L 79.0 136.5 L 78.0 139.5 L 80.0 145.5 L 78.5 145.0 L 74.5 141.0 L 72.0 139.5 L 61.5 125.0 L 50.5 123.0 Q 46.8 123.8 46.0 121.5 L 57.5 112.0 L 62.0 115.5 L 65.0 117.5 L 69.5 118.0 L 74.0 114.5 Q 73.3 111.3 75.0 110.5 L 74.0 108.5 L 74.0 105.5 L 69.5 95.0 L 68.0 92.5 L 66.0 86.5 L 65.5 84.0 L 65.0 72.5 L 66.5 67.0 Z" /><path desc="l 0 p 4" fill="rgb(120,15,15)" stroke="rgb(120,15,15)" stroke-width="1" opacity="0.9607843137254902" d="M 51.5 76.0 L 53.0 76.5 L 54.0 82.5 L 54.0 92.5 L 51.0 96.5 L 42.5 106.0 L 38.5 108.0 L 31.5 110.0 L 18.0 100.5 L 12.0 91.5 L 1.0 79.5 L 4.5 79.0 L 7.5 80.0 L 16.5 82.0 L 22.0 83.5 L 34.5 84.0 Q 35.3 82.3 38.5 83.0 L 51.5 76.0 Z" /><path desc="l 0 p 5" fill="rgb(120,15,15)" stroke="rgb(120,15,15)" stroke-width="1" opacity="0.9607843137254902" d="M 99.5 79.0 L 103.0 81.5 L 103.5 83.0 L 105.0 83.5 L 114.5 94.0 L 116.0 94.5 L 117.5 97.0 L 120.0 98.5 L 119.5 102.0 L 110.5 102.0 L 105.5 101.0 L 101.5 100.0 L 99.0 99.5 L 94.5 97.0 L 86.0 90.5 L 87.5 88.0 L 93.0 87.5 L 97.0 86.5 L 98.0 82.5 Q 97.5 79.5 99.5 79.0 Z" /><path desc="l 1 p 2" fill="rgb(192,104,104)" stroke="rgb(192,104,104)" stroke-width="1" opacity="0.996078431372549" d="M 48.5 83.0 L 49.0 91.5 L 40.5 102.0 L 32.5 105.0 L 26.5 101.0 L 19.0 94.5 L 14.0 86.5 L 15.5 87.0 L 20.5 88.0 L 23.0 88.5 L 32.5 89.0 L 38.5 87.0 L 42.5 86.0 L 48.5 83.0 Z" /><path desc="l 0 p 6" fill="rgb(120,15,15)" stroke="rgb(120,15,15)" stroke-width="1" opacity="0.9607843137254902" d="M 169.5 90.0 L 181.0 100.5 L 186.0 110.5 L 185.0 110.5 L 182.5 108.0 L 176.5 104.0 L 171.5 103.0 L 165.5 107.0 L 164.5 105.0 L 161.0 103.5 L 157.5 103.0 L 152.0 107.5 L 151.5 109.0 L 136.0 107.5 L 122.0 106.5 L 125.0 102.5 L 126.0 99.5 L 125.0 97.5 L 126.5 97.0 L 129.5 98.0 L 136.5 99.0 L 146.5 100.0 L 148.5 99.0 L 153.5 99.0 L 156.5 98.0 L 161.5 96.0 L 169.5 90.0 Z" /><path desc="l 1 p 3" fill="rgb(192,104,104)" stroke="rgb(192,104,104)" stroke-width="1" opacity="0.996078431372549" d="M 105.5 125.0 L 109.5 125.0 L 112.5 126.0 L 119.0 129.5 L 127.0 137.5 L 130.5 142.0 L 133.5 144.0 L 135.0 144.5 L 140.5 145.0 L 144.5 139.0 L 147.5 145.0 L 151.0 144.5 L 155.0 142.5 L 164.0 138.5 L 168.5 137.0 L 171.5 138.0 L 174.0 138.5 L 177.0 140.5 L 171.5 142.0 L 168.0 144.5 L 169.0 149.5 L 171.0 152.5 L 173.0 156.5 L 174.0 161.5 L 173.0 161.5 L 166.5 154.0 L 160.0 151.5 L 152.5 151.0 L 147.5 154.0 L 143.5 155.0 L 136.5 156.0 L 130.5 153.0 L 125.5 150.0 L 120.0 145.5 L 116.5 138.0 L 113.5 130.0 L 109.0 128.5 L 105.5 128.0 L 100.0 127.5 L 105.5 125.0 Z" /></svg>