<svg width="200" height="200" version="1.1" xmlns="http://www.w3.org/2000/svg" desc="Created with ImageTracer.java version 1.1.2" ><path desc="l 5 p 0" fill="rgb(0,0,0)" stroke="rgb(0,0,0)" stroke-width="1" opacity="0.0" d="M 0.5 0.0 L 200.0 0.5 L 199.5 165.0 L 182.0 154.5 L 183.0 148.5 L 183.0 137.5 L 180.5 130.0 L 175.5 120.0 L 169.5 113.0 L 161.0 107.5 L 155.5 105.0 L 150.5 104.0 Q 149.8 102.3 146.5 103.0 L 139.5 102.0 L 137.5 103.0 L 132.5 103.0 L 133.0 101.5 L 138.0 92.5 L 140.0 88.5 L 141.5 83.0 L 142.0 66.5 L 139.0 58.5 L 134.5 50.0 L 126.5 41.0 L 113.0 33.5 L 112.5 13.0 L 87.0 13.5 L 87.0 28.5 L 87.0 31.5 Q 87.5 34.5 85.5 35.0 L 78.5 38.0 L 75.0 40.5 L 67.0 47.5 L 60.5 59.0 L 58.5 66.0 L 58.0 82.5 L 62.0 92.5 L 69.0 103.5 L 67.5 103.0 L 57.5 102.0 L 54.5 103.0 L 50.0 103.5 L 42.5 106.0 L 34.0 110.5 L 28.0 115.5 L 20.5 127.0 L 17.5 137.0 L 17.0 151.5 L 18.0 154.5 L 0.5 165.0 L 0.5 0.0 Z" /><path desc="l 7 p 0" fill="rgb(136,79,39)" stroke="rgb(136,79,39)" stroke-width="1" opacity="0.996078431372549" d="M 88.5 13.0 L 112.0 13.5 L 112.5 35.0 L 121.5 39.0 L 125.5 42.0 L 133.0 48.5 L 139.0 59.5 L 141.0 67.5 L 142.0 76.5 L 141.0 79.5 L 140.5 84.0 L 139.0 88.5 L 136.0 94.5 L 133.5 99.0 L 130.0 103.5 L 135.5 104.0 L 138.5 103.0 L 145.5 103.0 L 148.5 104.0 L 153.5 105.0 L 160.5 108.0 L 166.5 112.0 L 172.0 116.5 L 178.0 126.5 L 181.0 133.5 L 182.0 140.5 L 182.0 153.5 Q 179.8 154.8 182.5 156.0 L 199.0 165.5 L 198.0 169.5 L 195.5 173.0 L 187.5 186.0 L 184.5 185.0 L 182.0 183.5 L 168.5 176.0 L 158.0 182.5 L 148.0 185.5 L 134.5 186.0 L 125.5 183.0 L 116.5 178.0 L 108.0 170.5 L 103.0 161.5 L 100.5 155.0 L 99.0 155.5 L 97.0 161.5 L 94.0 166.5 L 90.5 172.0 L 84.5 178.0 L 74.5 183.0 L 71.0 184.5 L 66.0 185.5 L 52.5 186.0 L 40.5 182.0 L 30.5 176.0 L 18.0 183.5 L 15.5 185.0 L 12.5 186.0 L 4.5 173.0 L 2.0 169.5 L 1.0 165.5 L 19.0 154.5 L 18.0 152.5 L 18.0 149.5 L 18.0 136.5 L 20.5 129.0 L 25.5 120.0 L 30.5 114.0 L 33.5 112.0 L 43.0 106.5 L 46.5 105.0 L 54.0 103.5 L 63.5 103.0 L 70.5 105.0 L 69.0 102.5 L 64.0 95.5 L 59.5 84.0 L 58.0 73.5 L 59.0 70.5 L 59.0 65.5 L 63.0 56.5 L 66.5 50.0 L 73.5 42.0 L 88.0 34.5 L 88.5 13.0 Z" /><path desc="l 2 p 0" fill="rgb(236,209,192)" stroke="rgb(236,209,192)" stroke-width="1" opacity="1.0" d="M 93.5 18.0 L 107.0 18.5 L 107.5 39.0 L 111.0 39.5 L 114.5 41.0 L 121.5 45.0 L 129.0 51.5 L 132.5 57.0 L 136.0 67.5 L 137.0 77.5 L 134.5 87.0 L 129.5 96.0 L 124.5 102.0 L 113.5 108.0 L 110.0 109.5 L 105.0 110.5 L 95.5 111.0 L 86.5 108.0 L 78.0 103.5 L 72.0 98.5 L 66.5 89.0 L 64.0 80.5 L 63.0 71.5 L 64.0 68.5 L 65.0 63.5 L 67.0 58.5 L 69.0 55.5 L 71.0 52.5 L 76.5 46.0 L 84.5 41.0 L 93.0 38.5 L 93.5 18.0 Z" /><path desc="l 7 p 1" fill="rgb(136,79,39)" stroke="rgb(136,79,39)" stroke-width="1" opacity="0.996078431372549" d="M 93.5 50.0 L 103.5 50.0 L 107.0 50.5 L 111.5 52.0 L 121.0 60.5 L 124.5 70.0 L 125.0 78.5 L 123.0 84.5 L 121.5 87.0 L 114.5 95.0 L 109.0 97.5 L 103.5 99.0 L 94.5 99.0 L 89.5 97.0 L 86.5 95.0 L 79.0 88.5 L 75.5 79.0 L 75.0 70.5 L 78.0 63.5 L 81.0 58.5 L 86.5 53.0 L 93.5 50.0 Z" /><path desc="l 5 p 1" fill="rgb(0,0,0)" stroke="rgb(0,0,0)" stroke-width="1" opacity="0.0" d="M 94.5 55.0 L 102.5 55.0 Q 105.8 54.3 106.5 56.0 L 110.5 58.0 L 116.0 62.5 L 119.0 69.5 L 119.5 71.0 L 120.0 77.5 L 118.0 82.5 L 112.5 90.0 L 106.5 93.0 L 104.0 93.5 L 96.5 94.0 Q 95.8 92.3 92.5 93.0 L 84.0 86.5 L 81.0 79.5 L 80.5 78.0 L 80.0 72.5 L 81.5 68.0 L 85.0 62.5 L 88.5 58.0 L 94.5 55.0 Z" /><path desc="l 0 p 0" fill="rgb(214,166,134)" stroke="rgb(214,166,134)" stroke-width="1" opacity="0.996078431372549" d="M 76.5 58.0 L 75.0 60.5 L 72.5 67.0 L 72.0 70.5 L 71.0 75.5 L 73.0 82.5 L 75.0 87.5 L 77.0 90.5 L 83.5 98.0 L 87.5 100.0 L 94.5 102.0 L 101.5 103.0 L 104.5 102.0 L 110.5 101.0 L 115.0 98.5 L 124.0 90.5 L 126.0 86.5 L 128.0 79.5 L 129.0 73.5 L 128.0 71.5 L 128.0 68.5 L 124.0 59.5 L 126.0 60.5 L 129.5 71.0 L 131.0 70.5 L 131.5 73.0 L 132.0 67.5 L 130.0 61.5 L 131.0 61.5 L 132.5 66.0 L 133.0 69.5 L 133.0 81.5 L 130.5 88.0 L 126.0 95.5 L 119.5 102.0 L 114.5 105.0 L 107.5 107.0 L 105.0 107.5 L 95.5 108.0 L 88.5 106.0 L 82.5 103.0 L 78.5 100.0 L 72.0 93.5 L 68.0 85.5 L 67.5 82.0 L 67.0 67.5 L 69.5 61.0 L 70.0 62.5 L 69.0 64.5 L 69.0 67.5 L 70.5 71.0 L 72.0 65.5 L 74.0 61.5 L 76.5 58.0 Z" /><path desc="l 2 p 1" fill="rgb(236,209,192)" stroke="rgb(236,209,192)" stroke-width="1" opacity="1.0" d="M 54.5 108.0 L 64.0 108.5 L 69.0 109.5 L 75.5 112.0 L 79.5 115.0 L 89.0 123.5 L 94.0 134.5 L 95.5 141.0 L 96.0 147.5 L 95.0 150.5 L 94.0 155.5 L 93.0 158.5 L 89.5 165.0 L 81.5 174.0 L 68.5 180.0 L 62.5 181.0 L 52.5 181.0 Q 51.8 179.3 48.5 180.0 L 38.5 175.0 L 34.0 171.5 Q 33.5 169.5 30.5 170.0 L 14.5 180.0 L 7.0 167.5 L 24.0 157.5 L 22.0 142.5 L 23.0 140.5 L 23.0 136.5 L 25.5 130.0 L 30.0 122.5 L 34.5 117.0 L 49.5 109.0 L 52.5 109.0 L 54.5 108.0 Z" /><path desc="l 2 p 2" fill="rgb(236,209,192)" stroke="rgb(236,209,192)" stroke-width="1" opacity="1.0" d="M 136.5 108.0 L 146.0 108.5 L 151.0 109.5 L 156.0 111.5 L 163.0 115.5 L 169.0 120.5 L 174.0 129.5 L 177.0 136.5 L 178.0 146.5 L 177.0 149.5 L 176.0 157.5 L 193.0 167.5 L 185.5 180.0 L 175.0 173.5 L 171.5 171.0 L 167.5 170.0 L 159.5 176.0 L 153.5 179.0 L 148.0 180.5 L 134.5 181.0 L 127.0 178.5 L 119.5 174.0 L 112.0 167.5 L 108.5 162.0 L 105.0 151.5 L 104.0 141.5 L 106.5 133.0 L 110.0 125.5 L 113.0 121.5 L 119.5 115.0 L 123.0 112.5 L 130.5 110.0 L 136.5 108.0 Z" /><path desc="l 0 p 1" fill="rgb(214,166,134)" stroke="rgb(214,166,134)" stroke-width="1" opacity="0.996078431372549" d="M 55.5 111.0 L 63.0 111.5 L 69.5 113.0 L 75.5 115.0 L 87.0 125.5 L 89.0 129.5 L 92.0 138.5 L 93.0 146.5 L 92.0 149.5 L 91.5 153.0 L 88.0 161.5 L 82.5 169.0 L 72.0 175.5 L 65.0 177.5 L 53.5 178.0 L 53.5 177.0 L 65.0 176.5 L 64.5 175.0 Q 65.3 176.8 68.5 176.0 L 74.0 172.5 L 70.5 172.0 L 67.5 173.0 L 64.0 173.5 L 56.5 174.0 L 56.5 173.0 L 61.5 173.0 L 65.5 172.0 L 74.5 169.0 L 81.0 163.5 L 86.0 154.5 L 88.0 144.5 L 87.0 141.5 L 86.5 138.0 L 85.0 133.5 L 83.0 130.5 L 81.0 127.5 L 75.5 121.0 L 65.5 117.0 L 63.0 116.5 L 54.5 116.0 L 48.5 118.0 L 42.5 122.0 L 37.0 126.5 L 34.0 131.5 L 31.5 138.0 L 30.5 144.0 L 30.0 138.5 L 32.0 132.5 L 33.0 127.5 L 31.0 128.5 L 27.5 136.0 L 27.0 134.5 L 29.5 129.0 L 32.0 125.5 L 38.5 118.0 L 50.5 112.0 L 53.5 112.0 L 55.5 111.0 Z" /><path desc="l 0 p 2" fill="rgb(214,166,134)" stroke="rgb(214,166,134)" stroke-width="1" opacity="0.996078431372549" d="M 137.5 111.0 L 145.0 111.5 L 147.5 112.0 L 156.5 115.0 L 160.5 118.0 L 168.0 124.5 L 172.0 132.5 L 173.5 137.0 L 174.0 141.5 L 173.0 141.5 L 172.0 135.5 L 168.5 128.0 L 167.0 128.5 L 169.0 137.5 L 168.0 137.5 L 166.0 131.5 L 164.5 129.0 L 158.5 122.0 L 151.5 118.0 L 146.0 116.5 L 137.5 116.0 L 128.5 119.0 L 126.0 120.5 L 118.0 127.5 L 114.0 136.5 L 112.0 146.5 L 113.0 148.5 L 113.0 151.5 L 116.0 158.5 L 121.5 166.0 L 130.5 171.0 L 135.0 172.5 L 130.5 173.0 Q 129.8 171.3 126.5 172.0 L 127.5 174.0 L 133.5 176.0 L 138.5 177.0 L 147.0 177.5 L 135.5 178.0 L 128.0 175.5 L 120.5 171.0 L 116.0 167.5 L 112.0 161.5 L 110.0 157.5 L 109.0 153.5 L 108.0 150.5 L 107.0 142.5 L 108.0 139.5 L 109.0 134.5 L 112.0 127.5 L 115.0 123.5 L 121.5 117.0 L 124.0 115.5 L 131.5 113.0 L 137.5 111.0 Z" /><path desc="l 7 p 2" fill="rgb(136,79,39)" stroke="rgb(136,79,39)" stroke-width="1" opacity="0.996078431372549" d="M 53.5 120.0 L 65.0 120.5 L 71.5 123.0 L 79.0 129.5 L 83.0 138.5 L 84.0 142.5 L 84.0 149.5 L 81.0 156.5 L 75.5 164.0 L 67.5 168.0 L 62.5 169.0 L 52.5 169.0 L 48.5 167.0 L 41.0 162.5 L 36.0 154.5 L 34.5 149.0 L 34.0 141.5 L 36.0 136.5 L 37.5 132.0 L 44.5 124.0 L 53.5 120.0 Z" /><path desc="l 7 p 3" fill="rgb(136,79,39)" stroke="rgb(136,79,39)" stroke-width="1" opacity="0.996078431372549" d="M 134.5 120.0 L 143.5 120.0 L 147.0 120.5 L 150.5 122.0 L 156.5 125.0 L 161.0 129.5 L 165.0 138.5 L 165.5 141.0 L 166.0 149.5 L 164.0 154.5 L 160.5 160.0 L 154.5 166.0 L 147.0 168.5 L 134.5 169.0 L 130.5 167.0 L 122.0 161.5 L 118.5 156.0 L 116.5 150.0 L 116.0 140.5 L 118.0 136.5 L 119.5 132.0 L 126.5 124.0 L 134.5 120.0 Z" /><path desc="l 5 p 2" fill="rgb(0,0,0)" stroke="rgb(0,0,0)" stroke-width="1" opacity="0.0" d="M 54.5 125.0 L 64.0 125.5 L 67.0 126.5 L 74.0 131.5 L 78.0 139.5 L 78.5 142.0 L 79.0 148.5 L 77.0 152.5 L 74.5 157.0 L 70.5 161.0 L 64.0 163.5 L 54.5 164.0 L 50.5 162.0 L 46.5 160.0 L 43.0 156.5 L 40.0 150.5 L 39.0 142.5 L 40.5 138.0 L 43.5 133.0 L 49.5 127.0 L 54.5 125.0 Z" /><path desc="l 5 p 3" fill="rgb(0,0,0)" stroke="rgb(0,0,0)" stroke-width="1" opacity="0.0" d="M 136.5 125.0 L 146.0 125.5 L 151.5 128.0 L 158.0 134.5 L 160.5 142.0 L 161.0 147.5 L 159.5 151.0 L 157.0 155.5 L 152.5 161.0 L 146.0 163.5 L 136.5 164.0 L 132.5 162.0 L 128.5 160.0 L 125.0 156.5 L 122.0 150.5 L 121.0 142.5 L 122.5 138.0 L 128.5 129.0 L 136.5 125.0 Z" /><path desc="l 5 p 4" fill="rgb(0,0,0)" stroke="rgb(0,0,0)" stroke-width="1" opacity="0.0" d="M 99.5 157.0 L 101.0 157.5 L 102.0 160.5 L 106.0 168.5 L 114.5 178.0 L 119.5 181.0 L 128.5 185.0 L 136.0 186.5 L 145.5 187.0 L 147.5 186.0 L 150.5 186.0 L 161.5 182.0 L 166.0 178.5 Q 166.8 176.3 170.5 177.0 L 181.5 184.0 L 187.5 187.0 L 199.5 168.0 L 200.0 199.5 L 0.5 200.0 L 0.0 168.5 L 2.0 169.5 L 12.5 187.0 L 15.5 186.0 L 19.0 183.5 L 27.5 179.0 L 29.0 177.5 L 31.5 177.0 L 37.5 181.0 L 45.0 184.5 L 54.0 186.5 L 64.5 187.0 L 73.0 184.5 L 80.5 181.0 L 84.5 178.0 L 93.0 170.5 L 99.5 157.0 Z" /></svg>