<svg width="200" height="200" version="1.1" xmlns="http://www.w3.org/2000/svg" desc="Created with ImageTracer.java version 1.1.2" ><path desc="l 4 p 0" fill="rgb(254,254,254)" stroke="rgb(254,254,254)" stroke-width="1" opacity="0.0" d="M 0.5 0.0 L 200.0 0.5 L 199.5 38.0 L 193.5 31.0 L 187.0 28.5 L 179.5 27.0 L 175.0 26.5 L 164.5 26.0 Q 163.8 27.8 160.5 27.0 L 155.5 28.0 L 147.5 31.0 L 138.5 37.0 L 129.5 44.0 L 119.0 54.5 L 108.5 70.0 L 104.5 78.0 L 102.5 84.0 L 101.5 88.0 L 101.0 100.5 L 101.0 135.5 Q 102.8 136.3 102.0 139.5 L 102.5 146.0 L 107.0 143.5 L 109.5 143.0 L 123.5 157.0 L 130.5 163.0 L 136.5 167.0 L 147.5 172.0 L 154.0 167.5 L 155.0 163.5 L 155.0 157.5 L 155.0 153.5 L 156.0 150.5 L 157.0 146.5 L 160.0 140.5 L 162.0 131.5 Q 159.8 130.3 162.5 129.0 L 167.0 124.5 L 174.5 110.0 L 180.0 93.5 L 183.0 81.5 L 186.0 72.5 L 190.0 60.5 L 193.5 55.0 L 198.0 51.5 L 199.5 47.0 L 200.0 199.5 L 0.5 200.0 L 0.5 0.0 Z" /><path desc="l 6 p 0" fill="rgb(135,1,169)" stroke="rgb(135,1,169)" stroke-width="1" opacity="0.984313725490196" d="M 168.5 26.0 Q 169.3 27.8 172.5 27.0 L 181.0 27.5 L 189.5 30.0 L 192.5 32.0 L 199.0 37.5 L 200.0 43.5 Q 198.3 44.3 199.0 47.5 L 198.0 49.5 L 193.5 55.0 L 192.0 55.5 L 189.0 61.5 L 185.5 71.0 L 181.5 85.0 L 179.0 92.5 L 178.0 97.5 L 174.5 108.0 L 171.0 116.5 L 168.5 121.0 L 163.5 127.0 Q 159.8 128.3 161.0 134.5 L 156.0 148.5 L 154.5 153.0 L 154.0 157.5 L 155.0 159.5 L 155.0 163.5 L 154.0 165.5 L 150.5 170.0 L 145.5 171.0 L 129.0 161.5 L 122.0 155.5 L 110.5 143.0 L 106.0 143.5 L 102.5 145.0 L 102.0 85.5 L 108.5 71.0 L 114.0 62.5 L 121.5 53.0 L 133.5 41.0 L 148.0 31.5 L 155.0 28.5 L 160.5 27.0 L 165.5 27.0 L 168.5 26.0 Z" /><path desc="l 6 p 1" fill="rgb(135,1,169)" stroke="rgb(135,1,169)" stroke-width="1" opacity="0.984313725490196" d="M 24.5 27.0 L 37.0 27.5 L 40.5 28.0 L 44.0 28.5 L 48.5 30.0 L 57.5 35.0 L 63.5 39.0 L 77.0 50.5 L 85.0 60.5 L 91.5 70.0 L 95.0 76.5 L 97.5 84.0 L 99.0 90.5 L 99.0 101.5 L 99.0 144.5 L 96.5 145.0 L 94.0 143.5 L 89.5 143.0 L 71.5 162.0 L 61.0 168.5 L 53.5 172.0 L 47.0 167.5 L 46.5 165.0 L 46.0 158.5 L 45.5 151.0 L 45.0 148.5 L 40.0 136.5 L 40.0 132.5 L 39.5 130.0 L 38.0 128.5 L 32.0 121.5 L 27.5 112.0 L 24.5 104.0 L 19.0 85.5 L 17.0 77.5 L 13.5 67.0 L 12.0 62.5 L 10.0 58.5 L 7.5 55.0 L 3.0 51.5 L 1.5 46.0 L 1.0 39.5 L 7.5 32.0 L 15.5 29.0 L 20.5 28.0 Q 23.8 28.8 24.5 27.0 Z" /><path desc="l 1 p 0" fill="rgb(244,203,254)" stroke="rgb(244,203,254)" stroke-width="1" opacity="1.0" d="M 25.5 32.0 L 37.0 32.5 L 39.5 33.0 L 43.0 33.5 L 49.5 36.0 L 55.5 40.0 L 67.0 48.5 L 78.0 59.5 L 87.5 74.0 L 92.5 86.0 L 94.0 92.5 L 94.0 102.5 L 93.0 104.5 L 93.0 107.5 L 92.5 112.0 L 90.5 114.0 L 90.0 112.5 L 91.0 109.5 L 90.0 107.5 L 85.5 102.0 L 77.5 97.0 L 69.0 94.5 L 56.5 94.0 L 54.5 95.0 L 51.5 95.0 L 48.5 96.0 L 43.0 100.5 L 42.0 105.5 Q 43.8 106.3 43.0 109.5 L 47.5 116.0 L 57.0 121.5 L 65.0 123.5 L 74.5 124.0 L 76.5 123.0 L 75.5 125.0 L 72.5 127.0 L 71.0 127.5 L 65.5 128.0 L 59.5 126.0 L 55.5 125.0 L 49.5 122.0 L 44.5 118.0 L 43.5 120.0 L 42.0 119.5 L 44.5 123.0 L 48.0 125.5 L 49.0 131.5 L 49.0 134.5 L 50.0 137.5 L 52.0 143.5 L 49.5 145.0 L 45.5 137.0 L 45.0 129.5 Q 47.3 128.3 44.5 127.0 L 38.0 121.5 L 30.5 106.0 L 28.0 99.5 L 26.0 91.5 L 22.0 78.5 L 21.5 75.0 L 20.0 70.5 L 17.5 63.0 L 14.5 56.0 L 10.5 51.0 L 7.0 48.5 L 6.0 40.5 L 12.0 35.5 L 18.0 33.5 L 22.5 33.0 L 25.5 32.0 Z" /><path desc="l 1 p 1" fill="rgb(244,203,254)" stroke="rgb(244,203,254)" stroke-width="1" opacity="1.0" d="M 161.5 32.0 L 174.5 32.0 L 180.0 32.5 L 185.5 34.0 L 189.5 36.0 L 194.0 39.5 L 194.0 44.5 L 192.5 49.0 L 186.0 54.5 L 180.5 69.0 L 179.0 74.5 L 177.5 77.0 L 174.5 78.0 L 174.0 75.5 L 176.5 69.0 L 177.0 67.5 L 179.0 62.5 L 181.0 56.5 L 185.5 49.0 L 190.0 45.5 L 189.5 41.0 L 187.5 39.0 L 180.0 36.5 L 174.5 36.0 L 160.5 36.0 L 154.5 38.0 L 143.5 45.0 L 129.0 57.5 L 126.0 61.5 L 117.0 74.5 L 112.0 85.5 L 111.0 90.5 L 111.0 99.5 L 112.0 99.5 L 114.5 97.0 L 121.5 93.0 L 127.5 91.0 L 132.5 90.0 L 132.5 91.0 L 128.0 92.5 L 118.5 97.0 L 107.5 103.0 L 107.0 87.5 L 110.5 78.0 L 115.5 69.0 L 118.5 65.0 L 126.5 55.0 L 136.5 45.0 L 145.5 39.0 L 156.5 33.0 L 159.5 33.0 L 161.5 32.0 Z" /><path desc="l 3 p 0" fill="rgb(233,152,253)" stroke="rgb(233,152,253)" stroke-width="1" opacity="0.996078431372549" d="M 160.5 36.0 L 174.5 36.0 L 180.0 36.5 L 181.5 37.0 L 186.5 39.0 L 190.0 41.5 L 189.5 46.0 L 186.5 49.0 L 185.0 49.5 L 180.0 58.5 L 177.0 66.5 L 174.0 77.5 L 175.5 77.0 L 178.0 77.5 L 171.0 103.5 L 167.0 112.5 L 161.0 122.5 L 156.5 127.0 Q 154.5 127.5 155.0 130.5 Q 156.8 131.3 156.0 134.5 L 150.5 148.0 L 149.5 151.0 L 149.0 159.5 L 150.0 162.5 L 148.5 165.0 L 144.0 164.5 L 142.0 163.5 L 134.5 159.0 L 128.0 153.5 L 117.0 142.5 L 111.5 138.0 L 107.0 137.5 L 107.0 112.5 L 107.0 105.5 Q 106.5 102.5 108.5 102.0 L 112.0 100.5 Q 110.3 99.8 111.0 96.5 L 111.0 87.5 L 114.0 79.5 L 122.5 66.0 L 133.5 53.0 L 143.5 45.0 L 154.5 38.0 L 160.5 36.0 Z" /><path desc="l 3 p 1" fill="rgb(233,152,253)" stroke="rgb(233,152,253)" stroke-width="1" opacity="0.996078431372549" d="M 61.5 59.0 L 66.0 59.5 L 69.0 61.5 L 78.5 69.0 L 78.5 67.0 L 85.5 78.0 L 89.0 87.5 L 90.0 91.5 L 90.0 100.5 L 87.5 99.0 L 78.0 93.5 L 70.5 91.0 L 65.5 90.0 L 57.5 90.0 L 54.5 91.0 L 51.0 91.5 L 46.5 93.0 L 41.0 96.5 L 40.0 98.5 L 38.5 103.0 L 37.5 100.0 L 35.0 99.5 L 33.5 95.0 L 32.5 88.0 L 32.0 77.5 L 61.5 59.0 Z" /><path desc="l 7 p 0" fill="rgb(211,62,248)" stroke="rgb(211,62,248)" stroke-width="1" opacity="0.996078431372549" d="M 165.5 76.0 L 168.5 76.0 L 170.5 77.0 L 173.0 78.5 L 172.5 83.0 L 171.0 87.5 L 169.0 94.5 L 166.0 103.5 L 163.0 111.5 L 154.5 123.0 L 153.0 123.5 L 151.5 127.0 L 151.0 131.5 L 152.0 133.5 L 146.5 147.0 L 145.0 153.5 L 144.5 160.0 L 133.0 152.5 L 128.0 148.5 L 116.5 136.0 L 111.0 133.5 L 111.5 121.0 L 116.5 124.0 L 121.5 126.0 L 126.5 127.0 L 138.5 127.0 L 150.5 122.0 L 157.0 117.5 L 161.5 109.0 L 163.0 103.5 Q 161.3 102.8 162.0 99.5 L 157.5 94.0 L 153.5 92.0 L 147.0 90.5 L 136.0 88.5 L 141.0 86.5 L 141.5 84.0 L 165.5 76.0 Z" /><path desc="l 2 p 0" fill="rgb(120,0,151)" stroke="rgb(120,0,151)" stroke-width="1" opacity="0.23137254901960785" d="M 101.5 88.0 L 102.0 135.5 L 101.0 135.5 L 101.5 88.0 Z" /><path desc="l 6 p 2" fill="rgb(135,1,169)" stroke="rgb(135,1,169)" stroke-width="1" opacity="0.984313725490196" d="M 63.5 94.0 L 69.5 95.0 L 80.0 99.5 L 89.0 106.5 L 90.0 112.5 L 85.5 119.0 L 77.0 122.5 L 62.5 123.0 L 56.5 121.0 L 46.0 113.5 L 43.5 108.0 L 43.0 101.5 L 45.5 98.0 L 50.5 96.0 L 57.5 95.0 L 60.5 95.0 L 63.5 94.0 Z" /><path desc="l 6 p 3" fill="rgb(135,1,169)" stroke="rgb(135,1,169)" stroke-width="1" opacity="0.984313725490196" d="M 131.5 94.0 L 140.5 94.0 L 147.5 95.0 L 153.5 97.0 L 157.0 99.5 L 158.0 105.5 L 156.0 109.5 L 154.0 113.5 L 150.5 117.0 L 145.5 120.0 L 138.5 122.0 L 136.0 122.5 L 126.5 123.0 L 121.0 121.5 L 112.0 115.5 L 110.0 109.5 L 111.0 107.5 L 116.5 101.0 L 131.5 94.0 Z" /><path desc="l 4 p 1" fill="rgb(254,254,254)" stroke="rgb(254,254,254)" stroke-width="1" opacity="0.0" d="M 64.5 99.0 L 67.5 100.0 L 72.5 101.0 L 80.0 105.5 L 85.0 109.5 L 84.0 112.5 L 80.5 116.0 L 76.0 117.5 L 63.5 118.0 L 60.0 116.5 L 55.5 114.0 L 49.0 108.5 L 48.0 103.5 L 52.5 101.0 L 58.5 100.0 L 61.5 100.0 L 64.5 99.0 Z" /><path desc="l 4 p 2" fill="rgb(254,254,254)" stroke="rgb(254,254,254)" stroke-width="1" opacity="0.0" d="M 133.5 99.0 L 143.0 99.5 L 145.5 100.0 L 149.5 101.0 L 153.0 103.5 L 152.0 106.5 L 145.5 114.0 L 137.5 117.0 L 135.0 117.5 L 127.5 118.0 L 123.0 116.5 L 116.0 111.5 L 117.0 108.5 L 121.5 104.0 L 133.5 99.0 Z" /><path desc="l 3 p 2" fill="rgb(233,152,253)" stroke="rgb(233,152,253)" stroke-width="1" opacity="0.996078431372549" d="M 93.5 103.0 L 94.0 136.5 Q 93.3 138.8 89.5 138.0 L 81.0 143.5 L 69.5 157.0 L 63.5 161.0 L 56.5 165.0 L 52.5 166.0 L 51.0 163.5 L 51.0 157.5 L 51.0 152.5 L 50.0 149.5 L 48.0 144.5 L 50.5 144.0 L 52.0 143.5 L 50.0 138.5 L 49.0 132.5 L 48.5 127.0 L 45.5 123.0 L 42.0 120.5 L 40.0 117.5 L 44.0 119.5 L 43.0 117.5 L 44.5 118.0 L 47.5 121.0 L 52.5 124.0 L 59.5 126.0 L 62.5 127.0 L 70.0 128.5 L 64.5 131.0 L 55.0 137.5 L 53.5 142.0 L 53.0 146.5 L 54.5 149.0 L 55.0 152.5 L 56.5 160.0 L 60.5 158.0 L 65.5 154.0 L 73.0 147.5 L 80.5 138.0 L 89.0 133.5 L 90.0 130.5 L 89.0 128.5 L 90.0 126.5 L 88.5 122.0 L 85.5 124.0 L 78.5 127.0 L 71.5 128.0 L 71.5 127.0 L 81.5 121.0 L 85.5 119.0 L 89.0 115.5 L 89.5 114.0 L 93.0 111.5 L 93.5 103.0 Z" /><path desc="l 7 p 1" fill="rgb(211,62,248)" stroke="rgb(211,62,248)" stroke-width="1" opacity="0.996078431372549" d="M 88.5 122.0 L 90.0 127.5 L 89.0 129.5 L 90.0 131.5 L 88.5 134.0 L 83.0 136.5 L 79.0 139.5 L 66.5 154.0 L 56.5 160.0 L 55.0 152.5 Q 55.8 149.3 54.0 148.5 L 53.0 142.5 L 56.5 136.0 L 69.5 129.0 L 75.5 127.0 L 79.0 126.5 L 82.5 125.0 L 85.5 124.0 L 88.5 122.0 Z" /></svg>