<svg width="200" height="200" version="1.1" xmlns="http://www.w3.org/2000/svg" desc="Created with ImageTracer.java version 1.1.2" ><path desc="l 1 p 0" fill="rgb(0,0,0)" stroke="rgb(0,0,0)" stroke-width="1" opacity="0.0" d="M 0.5 0.0 L 99.0 0.5 L 86.5 19.0 L 75.0 33.5 L 60.5 50.0 L 52.0 56.5 L 41.0 62.5 L 41.5 64.0 L 50.0 68.5 L 57.0 73.5 L 26.0 89.5 L 9.5 97.0 L 2.0 99.5 L 2.5 101.0 L 14.5 105.0 L 32.5 112.0 L 44.5 118.0 L 51.0 121.5 L 58.0 126.5 L 56.5 129.0 L 45.0 136.5 L 52.5 145.0 L 67.5 135.0 L 69.0 137.5 L 55.0 146.5 L 62.5 155.0 L 72.5 149.0 L 75.5 147.0 L 78.5 146.0 L 79.5 148.0 L 65.0 157.5 L 71.5 164.0 L 73.0 165.5 L 74.5 165.0 L 88.5 156.0 L 89.0 157.5 L 74.0 168.5 L 89.5 185.0 L 99.0 199.5 L 0.5 200.0 L 0.5 0.0 Z" /><path desc="l 1 p 1" fill="rgb(0,0,0)" stroke="rgb(0,0,0)" stroke-width="1" opacity="0.0" d="M 101.5 0.0 L 200.0 0.5 L 199.5 200.0 L 101.0 199.5 L 119.0 173.5 L 139.5 150.0 L 150.5 142.0 L 159.0 137.5 L 157.5 135.0 L 150.5 132.0 L 143.0 127.5 L 144.5 125.0 L 163.5 115.0 L 173.5 110.0 L 185.5 105.0 L 198.0 100.5 L 197.5 99.0 L 188.5 96.0 L 172.5 90.0 L 156.0 82.5 L 149.0 78.5 L 141.0 72.5 L 155.0 63.5 L 147.5 55.0 L 142.5 58.0 L 132.5 65.0 L 131.0 62.5 L 145.0 52.5 L 139.5 47.0 L 138.0 45.5 L 135.5 45.0 L 121.5 54.0 L 120.5 52.0 L 122.5 50.0 L 134.0 42.5 L 126.5 34.0 L 111.5 44.0 L 111.0 42.5 L 126.0 32.5 L 117.0 22.5 L 107.5 11.0 L 103.0 3.5 L 101.5 0.0 Z" /><path desc="l 5 p 0" fill="rgb(138,3,171)" stroke="rgb(138,3,171)" stroke-width="1" opacity="0.996078431372549" d="M 100.5 1.0 L 105.0 9.5 L 114.0 20.5 L 121.5 28.0 L 123.0 29.5 L 124.0 32.5 L 110.0 42.5 L 111.5 45.0 L 126.5 35.0 L 133.0 42.5 L 119.0 51.5 L 121.5 55.0 L 131.5 49.0 L 134.5 47.0 L 137.5 46.0 L 142.0 50.5 L 143.5 52.0 L 142.5 54.0 L 129.0 62.5 L 131.5 65.0 L 133.0 65.5 L 134.5 64.0 L 147.5 56.0 L 152.0 60.5 L 153.5 62.0 L 152.5 64.0 L 140.0 72.5 L 140.5 74.0 L 151.5 81.0 L 159.5 85.0 L 172.5 91.0 L 196.0 99.5 L 195.5 101.0 L 182.0 105.5 L 163.5 114.0 L 141.0 126.5 L 148.0 131.5 L 158.0 136.5 L 143.5 146.0 L 129.0 159.5 L 109.5 185.0 L 99.5 199.0 L 95.0 190.5 L 86.0 179.5 L 78.5 172.0 L 77.0 170.5 L 76.0 167.5 L 90.0 157.5 L 88.5 155.0 L 73.5 165.0 L 67.0 157.5 L 81.0 147.5 L 79.0 145.5 L 76.5 145.0 L 62.5 154.0 L 58.0 149.5 L 56.5 147.0 L 58.5 145.0 L 70.0 137.5 L 67.5 134.0 L 52.5 144.0 L 46.0 136.5 L 60.0 127.5 L 59.5 126.0 L 48.5 119.0 L 40.5 115.0 L 27.5 109.0 L 4.0 100.5 L 4.5 99.0 L 15.0 95.5 L 26.5 90.0 L 46.5 80.0 L 58.0 73.5 L 57.5 72.0 L 43.0 63.5 L 43.5 62.0 L 49.5 59.0 L 56.5 54.0 L 71.0 40.5 L 90.5 15.0 L 100.5 1.0 Z" /><path desc="l 3 p 0" fill="rgb(240,189,253)" stroke="rgb(240,189,253)" stroke-width="1" opacity="1.0" d="M 99.5 11.0 L 116.0 31.5 L 101.0 41.5 L 108.5 50.0 L 126.5 39.0 L 128.0 41.5 L 113.0 52.5 L 118.5 58.0 L 120.0 59.5 L 121.5 59.0 L 130.5 53.0 L 135.0 50.5 L 137.5 50.0 L 139.0 52.5 L 124.0 62.5 L 130.5 70.0 L 133.0 69.5 L 135.0 67.5 L 142.0 62.5 L 144.5 61.0 L 147.5 60.0 L 149.0 62.5 L 133.0 73.5 L 133.5 75.0 L 147.5 85.0 L 157.5 90.0 L 180.0 99.5 L 179.5 101.0 L 157.5 111.0 L 133.0 125.5 L 139.5 133.0 L 146.0 136.5 L 144.5 139.0 L 135.5 146.0 L 122.0 159.5 L 100.5 189.0 L 84.0 168.5 L 99.0 158.5 L 90.5 149.0 L 73.5 161.0 L 72.0 159.5 Q 69.8 158.3 72.5 157.0 L 87.0 147.5 L 78.5 140.0 L 67.5 148.0 L 62.5 150.0 L 61.0 147.5 L 76.0 137.5 L 68.5 129.0 L 58.5 136.0 L 55.5 139.0 L 52.5 140.0 L 51.0 137.5 L 67.0 125.5 L 52.5 115.0 L 39.5 108.0 L 24.5 102.0 L 19.0 99.5 L 46.5 86.0 L 67.0 74.5 L 62.5 69.0 L 54.0 63.5 L 55.5 61.0 L 65.0 53.5 L 78.0 40.5 L 99.5 11.0 Z" /><path desc="l 0 p 0" fill="rgb(212,83,245)" stroke="rgb(212,83,245)" stroke-width="1" opacity="0.996078431372549" d="M 99.5 18.0 L 110.0 30.5 L 95.0 41.5 L 129.5 77.0 L 144.0 87.5 L 163.0 97.5 L 157.5 98.0 L 129.5 79.0 L 108.0 61.5 L 99.5 54.0 L 82.0 70.5 L 70.0 79.5 L 62.5 85.0 L 55.5 89.0 L 51.5 90.0 L 53.5 87.0 L 74.0 75.5 L 69.5 70.0 L 61.0 62.5 L 63.0 61.5 L 64.5 59.0 L 78.0 46.5 L 99.5 18.0 Z" /><path desc="l 5 p 1" fill="rgb(138,3,171)" stroke="rgb(138,3,171)" stroke-width="1" opacity="0.996078431372549" d="M 99.5 60.0 L 114.5 73.0 L 128.5 84.0 L 151.0 99.5 L 149.5 102.0 L 132.0 113.5 L 119.0 123.5 L 99.5 140.0 L 89.5 130.0 L 76.0 119.5 L 49.0 100.5 L 50.5 98.0 L 64.5 89.0 L 77.5 79.0 L 81.5 76.0 L 88.5 70.0 L 99.5 60.0 Z" /><path desc="l 1 p 2" fill="rgb(0,0,0)" stroke="rgb(0,0,0)" stroke-width="1" opacity="0.0" d="M 99.5 68.0 L 117.0 82.5 L 141.0 99.5 L 140.5 101.0 L 125.0 111.5 L 112.0 121.5 L 99.5 132.0 L 81.5 116.0 L 59.0 100.5 L 59.5 99.0 L 80.5 84.0 L 90.5 76.0 L 99.5 68.0 Z" /><path desc="l 0 p 1" fill="rgb(212,83,245)" stroke="rgb(212,83,245)" stroke-width="1" opacity="0.996078431372549" d="M 157.5 102.0 L 158.0 105.5 L 135.5 118.0 L 136.5 116.0 L 157.5 102.0 Z" /></svg>