<svg width="200" height="200" version="1.1" xmlns="http://www.w3.org/2000/svg" desc="Created with ImageTracer.java version 1.1.2" ><path desc="l 0 p 0" fill="rgb(254,254,254)" stroke="rgb(254,254,254)" stroke-width="1" opacity="0.0" d="M 0.5 0.0 L 200.0 0.5 L 199.5 200.0 L 128.0 199.5 L 135.0 193.5 L 137.0 189.5 L 139.0 180.5 L 140.0 172.5 L 140.0 159.5 L 140.0 142.5 L 140.5 136.0 L 142.5 130.0 L 144.0 129.5 L 151.5 129.0 Q 152.3 130.8 155.5 130.0 L 164.5 130.0 L 171.0 125.5 L 173.5 118.0 L 174.0 109.5 L 170.5 101.0 L 169.5 98.0 L 169.0 88.5 L 168.5 73.0 L 168.0 69.5 L 167.0 61.5 L 165.0 52.5 L 163.0 46.5 L 159.5 39.0 L 152.5 29.0 L 143.5 20.0 L 128.5 13.0 L 117.5 10.0 L 109.5 9.0 L 83.5 9.0 L 80.5 10.0 L 74.5 11.0 L 71.5 12.0 L 68.0 12.5 L 64.5 14.0 L 55.5 18.0 L 49.5 22.0 L 42.0 28.5 L 36.5 37.0 L 33.0 44.5 L 30.0 52.5 L 28.5 60.0 L 27.5 66.0 L 27.0 76.5 L 26.0 92.5 L 25.5 99.0 L 23.5 103.0 L 21.5 107.0 L 21.0 116.5 Q 22.8 117.3 22.0 120.5 L 26.5 127.0 L 33.0 129.5 L 45.5 130.0 L 47.5 129.0 L 51.5 129.0 L 56.0 132.5 L 57.5 141.0 L 58.0 150.5 L 57.0 152.5 L 57.0 158.5 L 57.0 179.5 L 59.5 187.0 L 64.0 194.5 L 68.0 199.5 L 0.5 200.0 L 0.5 0.0 Z" /><path desc="l 4 p 0" fill="rgb(1,86,69)" stroke="rgb(1,86,69)" stroke-width="1" opacity="0.984313725490196" d="M 87.5 9.0 L 111.0 9.5 L 119.5 11.0 L 126.5 13.0 L 134.5 16.0 L 139.5 19.0 L 151.0 27.5 L 156.5 35.0 L 163.0 47.5 L 165.0 53.5 L 167.0 63.5 L 168.0 76.5 L 168.5 94.0 L 169.0 97.5 L 170.0 100.5 L 172.0 105.5 L 173.0 110.5 L 173.0 120.5 L 167.5 128.0 L 162.0 129.5 L 156.5 130.0 Q 155.8 128.3 152.5 129.0 L 142.5 129.0 L 140.5 133.0 L 140.0 140.5 L 140.0 163.5 L 139.0 180.5 L 137.0 187.5 L 135.0 191.5 L 130.5 197.0 L 126.5 200.0 L 126.0 187.5 Q 128.0 186.5 126.0 185.5 L 126.0 163.5 L 125.5 155.0 L 124.5 152.0 L 119.0 153.5 L 108.5 154.0 L 77.5 154.0 L 71.5 151.0 L 70.5 163.0 L 70.0 174.5 L 69.5 200.0 L 64.0 193.5 L 60.0 187.5 L 58.0 181.5 L 57.5 175.0 L 57.0 157.5 L 58.0 155.5 L 58.0 152.5 L 58.0 138.5 L 57.0 135.5 L 56.0 132.5 L 53.5 129.0 L 44.5 129.0 L 37.5 130.0 L 34.5 129.0 Q 31.3 129.8 30.5 128.0 L 25.0 124.5 L 23.0 120.5 L 22.0 116.5 L 21.0 109.5 L 25.0 102.5 L 26.5 96.0 L 27.0 89.5 L 27.0 70.5 Q 28.8 69.8 28.0 66.5 L 29.0 59.5 L 30.0 56.5 L 31.0 51.5 L 33.0 44.5 L 40.0 32.5 L 48.5 23.0 L 60.5 16.0 L 74.5 11.0 L 82.5 10.0 L 85.5 10.0 L 87.5 9.0 Z" /><path desc="l 6 p 0" fill="rgb(158,226,189)" stroke="rgb(158,226,189)" stroke-width="1" opacity="1.0" d="M 87.5 14.0 L 111.0 14.5 L 122.5 17.0 L 126.5 18.0 L 132.0 20.5 L 136.5 23.0 L 146.0 29.5 L 153.0 38.5 L 159.0 51.5 L 162.0 65.5 L 163.0 75.5 L 163.0 90.5 L 163.5 96.0 L 165.0 102.5 L 167.0 106.5 L 168.0 110.5 L 168.0 118.5 L 164.5 124.0 L 161.5 124.0 L 158.5 125.0 Q 157.8 123.3 154.5 124.0 L 151.5 124.0 L 148.5 123.0 Q 147.8 124.8 144.5 124.0 L 141.0 124.5 L 137.0 127.5 L 135.5 132.0 L 135.0 135.5 L 134.5 140.0 L 134.0 150.5 L 135.0 152.5 L 135.0 155.5 L 135.0 169.5 L 134.0 171.5 L 134.0 174.5 L 133.5 180.0 L 132.5 185.0 L 131.0 155.5 L 130.0 150.5 L 129.5 147.0 L 128.0 142.5 L 127.0 137.5 L 122.5 132.0 Q 119.3 132.8 118.5 131.0 Q 116.5 131.5 117.0 134.5 L 118.0 137.5 L 120.0 147.5 L 116.0 148.5 L 107.5 149.0 L 81.5 149.0 L 76.0 147.5 L 76.5 141.0 L 77.0 139.5 L 79.0 133.5 L 72.5 133.0 L 69.0 138.5 L 67.0 143.5 L 67.0 147.5 L 66.0 150.5 L 64.5 184.0 L 63.0 177.5 L 62.5 173.0 L 62.0 161.5 L 63.0 159.5 L 63.0 154.5 L 63.0 136.5 Q 61.3 135.8 62.0 132.5 L 61.0 130.5 L 56.5 125.0 L 51.5 124.0 L 39.5 124.0 L 34.5 124.0 L 31.5 123.0 L 28.0 119.5 L 27.0 115.5 L 27.0 108.5 L 30.0 102.5 L 31.0 98.5 L 32.0 90.5 L 32.0 73.5 L 33.0 65.5 L 35.0 54.5 L 38.0 46.5 L 43.5 36.0 L 52.5 26.0 L 63.5 20.0 L 76.5 16.0 L 82.5 15.0 L 85.5 15.0 L 87.5 14.0 Z" /><path desc="l 5 p 0" fill="rgb(68,192,133)" stroke="rgb(68,192,133)" stroke-width="1" opacity="0.996078431372549" d="M 128.5 29.0 L 132.5 30.0 L 140.5 33.0 Q 141.8 30.8 143.0 33.5 L 147.0 37.5 L 147.5 39.0 L 149.0 39.5 L 153.0 47.5 L 156.0 56.5 L 157.5 63.0 L 158.5 70.0 L 159.0 80.5 L 157.0 79.5 L 153.5 75.0 L 141.5 69.0 L 133.0 66.5 L 122.5 66.0 L 116.5 68.0 L 110.5 72.0 L 102.0 79.5 L 100.5 84.0 L 100.0 87.5 L 99.5 93.0 L 98.5 91.0 L 96.0 91.5 L 94.5 93.0 L 94.0 90.5 L 95.0 88.5 L 95.0 82.5 L 94.0 79.5 L 90.0 74.5 L 91.0 72.5 L 91.0 69.5 Q 90.0 65.0 92.5 64.0 L 97.5 59.0 L 117.5 39.0 L 128.5 29.0 Z" /><path desc="l 4 p 1" fill="rgb(1,86,69)" stroke="rgb(1,86,69)" stroke-width="1" opacity="0.984313725490196" d="M 64.5 70.0 L 74.0 70.5 L 78.5 72.0 L 82.5 74.0 L 89.0 79.5 L 90.5 83.0 L 91.0 88.5 L 90.0 90.5 L 90.0 94.5 L 88.0 99.5 L 85.5 103.0 L 79.5 109.0 L 69.0 116.5 L 63.5 120.0 L 59.5 121.0 L 55.5 122.0 L 50.5 120.0 L 48.0 119.5 L 45.0 117.5 L 41.0 114.5 L 37.0 108.5 L 36.0 104.5 L 36.0 95.5 L 37.0 93.5 L 37.0 89.5 L 39.0 84.5 L 44.5 78.0 L 54.0 73.5 L 64.5 70.0 Z" /><path desc="l 4 p 2" fill="rgb(1,86,69)" stroke="rgb(1,86,69)" stroke-width="1" opacity="0.984313725490196" d="M 123.5 70.0 L 132.0 70.5 L 141.0 73.5 L 147.5 77.0 L 152.0 79.5 L 156.0 83.5 L 158.5 90.0 L 159.0 93.5 L 160.0 104.5 L 158.0 109.5 L 152.5 116.0 L 143.5 120.0 L 139.5 120.0 L 137.5 121.0 L 133.0 119.5 L 126.5 115.0 L 116.5 108.0 L 113.5 106.0 L 106.0 99.5 L 104.5 92.0 L 104.0 86.5 L 106.5 81.0 L 112.5 75.0 L 123.5 70.0 Z" /><path desc="l 0 p 1" fill="rgb(254,254,254)" stroke="rgb(254,254,254)" stroke-width="1" opacity="0.0" d="M 65.5 75.0 L 73.0 75.5 L 77.5 77.0 L 80.0 78.5 L 84.0 81.5 L 85.0 85.5 L 85.0 93.5 L 83.5 97.0 L 78.5 103.0 L 68.0 110.5 L 61.5 115.0 L 60.0 115.5 L 52.5 116.0 L 43.0 108.5 L 41.5 105.0 L 41.0 95.5 L 42.0 93.5 L 42.0 90.5 L 43.0 87.5 L 46.5 83.0 L 59.5 77.0 L 65.5 75.0 Z" /><path desc="l 0 p 2" fill="rgb(254,254,254)" stroke="rgb(254,254,254)" stroke-width="1" opacity="0.0" d="M 125.5 75.0 L 131.5 76.0 L 137.5 78.0 L 142.5 80.0 L 151.0 85.5 L 153.0 89.5 L 154.0 95.5 L 154.0 106.5 L 148.5 112.0 L 143.0 114.5 L 135.5 115.0 L 112.0 98.5 L 110.5 95.0 L 110.0 85.5 L 113.5 81.0 L 118.5 78.0 L 125.5 75.0 Z" /><path desc="l 4 p 3" fill="rgb(1,86,69)" stroke="rgb(1,86,69)" stroke-width="1" opacity="0.984313725490196" d="M 96.5 96.0 L 107.0 105.5 L 111.0 112.5 L 112.0 116.5 L 112.0 122.5 L 107.5 129.0 L 102.0 128.5 L 98.5 127.0 L 91.5 130.0 L 85.0 124.5 L 84.0 120.5 L 84.0 113.5 L 88.5 106.0 L 96.5 96.0 Z" /><path desc="l 0 p 3" fill="rgb(254,254,254)" stroke="rgb(254,254,254)" stroke-width="1" opacity="0.0" d="M 97.5 103.0 L 103.5 110.0 L 105.0 112.5 L 106.5 116.0 L 107.0 120.5 L 104.5 124.0 L 102.0 122.5 L 96.5 122.0 L 91.5 124.0 L 89.5 121.0 L 89.0 115.5 L 94.0 107.5 L 97.5 103.0 Z" /><path desc="l 5 p 1" fill="rgb(68,192,133)" stroke="rgb(68,192,133)" stroke-width="1" opacity="0.996078431372549" d="M 78.5 114.0 L 80.0 114.5 Q 80.8 117.8 79.0 118.5 L 80.5 124.0 L 83.0 128.5 L 87.5 133.0 L 92.5 134.0 L 94.5 133.0 L 100.5 132.0 L 102.5 133.0 L 108.5 133.0 L 113.0 129.5 L 115.5 124.0 L 117.0 118.5 Q 115.3 117.8 116.0 114.5 L 117.5 114.0 L 125.5 120.0 L 135.0 124.5 L 133.0 126.5 L 132.0 130.5 L 130.5 136.0 L 123.5 128.0 L 118.0 128.5 L 115.0 130.5 L 114.0 133.5 L 114.0 139.5 L 116.0 143.5 Q 115.5 145.5 112.5 145.0 L 106.5 145.0 L 80.5 145.0 L 80.0 141.5 L 81.5 138.0 L 82.0 134.5 L 78.5 130.0 L 77.0 129.5 L 71.5 129.0 L 68.0 131.5 L 66.5 134.0 Q 64.3 133.3 65.0 129.5 L 62.0 125.5 L 67.5 123.0 L 78.5 114.0 Z" /><path desc="l 0 p 4" fill="rgb(254,254,254)" stroke="rgb(254,254,254)" stroke-width="1" opacity="0.0" d="M 72.5 152.0 L 77.5 154.0 L 83.5 154.0 L 92.0 154.5 L 109.5 155.0 L 111.5 154.0 L 114.5 154.0 L 120.5 154.0 L 124.5 153.0 L 125.5 159.0 L 126.0 169.5 L 126.0 199.5 L 70.5 200.0 L 70.0 176.5 Q 71.8 175.8 71.0 172.5 L 71.0 162.5 L 71.5 155.0 L 72.5 152.0 Z" /></svg>