<svg width="200" height="200" version="1.1" xmlns="http://www.w3.org/2000/svg" desc="Created with ImageTracer.java version 1.1.2" ><path desc="l 2 p 0" fill="rgb(254,254,254)" stroke="rgb(254,254,254)" stroke-width="1" opacity="0.0" d="M 0.5 0.0 L 200.0 0.5 L 199.5 200.0 L 0.0 199.5 L 0.5 0.0 Z" /><path desc="l 6 p 0" fill="rgb(95,144,19)" stroke="rgb(95,144,19)" stroke-width="1" opacity="0.9921568627450981" d="M 132.5 7.0 L 135.0 7.5 L 134.5 14.0 L 134.0 16.5 L 132.5 23.0 L 128.5 29.0 Q 124.8 29.8 124.0 27.5 L 119.5 22.0 L 117.0 21.5 L 115.0 19.5 L 115.5 16.0 L 118.5 12.0 L 122.5 10.0 L 126.5 9.0 L 132.5 7.0 Z" /><path desc="l 6 p 1" fill="rgb(95,144,19)" stroke="rgb(95,144,19)" stroke-width="1" opacity="0.9921568627450981" d="M 144.5 10.0 L 146.0 10.5 L 150.5 19.0 L 153.0 27.5 L 151.5 32.0 L 140.5 31.0 L 137.5 31.0 Q 134.5 31.5 134.0 29.5 L 134.5 23.0 L 137.0 17.5 L 144.5 10.0 Z" /><path desc="l 6 p 2" fill="rgb(95,144,19)" stroke="rgb(95,144,19)" stroke-width="1" opacity="0.9921568627450981" d="M 107.5 22.0 L 112.0 22.5 L 115.5 24.0 L 123.0 30.5 L 124.0 34.5 L 124.0 39.5 L 116.5 60.0 L 114.5 66.0 L 112.0 71.5 L 108.5 78.0 L 102.5 84.0 L 98.5 86.0 L 92.0 88.5 L 88.5 89.0 L 80.5 90.0 L 78.5 89.0 L 74.5 89.0 L 66.0 85.5 L 60.0 80.5 L 58.0 76.5 L 56.0 69.5 L 55.5 67.0 L 55.0 60.5 L 56.0 58.5 L 56.0 55.5 L 57.5 52.0 L 63.5 45.0 L 89.0 32.5 L 107.5 22.0 Z" /><path desc="l 7 p 0" fill="rgb(178,211,126)" stroke="rgb(178,211,126)" stroke-width="1" opacity="0.996078431372549" d="M 107.5 27.0 L 110.5 27.0 L 112.5 28.0 L 114.5 29.0 L 119.0 32.5 L 120.0 35.5 L 112.0 60.5 L 108.5 69.0 L 106.5 73.0 L 101.5 79.0 L 90.5 84.0 L 85.5 85.0 L 76.5 85.0 L 65.0 79.5 L 61.0 71.5 L 60.0 66.5 L 60.0 58.5 L 64.5 50.0 L 81.5 42.0 L 107.5 27.0 Z" /><path desc="l 6 p 3" fill="rgb(95,144,19)" stroke="rgb(95,144,19)" stroke-width="1" opacity="0.9921568627450981" d="M 139.5 34.0 L 144.5 35.0 L 150.0 37.5 L 156.0 43.5 L 160.5 53.0 L 163.5 64.0 L 164.5 70.0 L 165.0 89.5 L 161.0 99.5 L 153.5 111.0 L 144.5 117.0 L 134.5 119.0 L 130.0 117.5 L 125.0 114.5 L 119.0 108.5 L 115.0 100.5 L 114.5 97.0 L 114.0 83.5 L 123.0 58.5 L 125.5 51.0 L 128.5 44.0 L 133.5 37.0 L 139.5 34.0 Z" /><path desc="l 7 p 1" fill="rgb(178,211,126)" stroke="rgb(178,211,126)" stroke-width="1" opacity="0.996078431372549" d="M 138.5 39.0 L 144.0 39.5 L 145.5 40.0 L 151.0 44.5 L 156.5 56.0 L 160.0 68.5 L 161.0 83.5 L 160.0 86.5 L 158.5 94.0 L 155.0 101.5 L 147.5 110.0 L 141.5 113.0 L 133.5 114.0 L 129.0 111.5 L 124.0 107.5 L 119.5 98.0 L 118.5 94.0 L 118.0 87.5 L 128.0 58.5 L 131.0 48.5 L 138.5 39.0 Z" /><path desc="l 6 p 4" fill="rgb(95,144,19)" stroke="rgb(95,144,19)" stroke-width="1" opacity="0.9921568627450981" d="M 22.5 54.0 L 33.0 55.5 L 36.5 57.0 L 39.5 59.0 L 45.0 63.5 L 46.5 66.0 L 48.5 71.0 L 49.0 74.5 L 50.0 81.5 L 49.0 83.5 L 49.0 88.5 L 46.5 94.0 L 40.5 101.0 L 35.0 103.5 L 23.5 104.0 L 21.0 102.5 L 15.0 97.5 L 10.0 82.5 L 9.0 70.5 L 10.0 68.5 L 10.0 64.5 L 11.5 62.0 L 16.5 56.0 L 22.5 54.0 Z" /><path desc="l 7 p 2" fill="rgb(178,211,126)" stroke="rgb(178,211,126)" stroke-width="1" opacity="0.996078431372549" d="M 20.5 59.0 L 26.5 59.0 L 31.5 60.0 L 36.5 62.0 L 41.0 65.5 L 42.5 68.0 L 44.5 74.0 L 45.0 84.5 L 43.0 90.5 L 38.5 97.0 L 32.0 99.5 L 26.5 100.0 L 20.0 96.5 L 17.0 90.5 L 15.5 85.0 L 14.5 80.0 L 14.0 67.5 L 15.0 64.5 L 18.5 60.0 L 20.5 59.0 Z" /><path desc="l 6 p 5" fill="rgb(95,144,19)" stroke="rgb(95,144,19)" stroke-width="1" opacity="0.9921568627450981" d="M 68.5 95.0 L 86.0 95.5 L 93.0 97.5 L 98.5 100.0 L 101.5 101.0 L 104.0 102.5 L 107.5 105.0 L 116.0 112.5 L 119.0 117.5 L 123.0 126.5 L 124.0 131.5 L 125.0 134.5 L 126.0 142.5 L 126.5 145.0 L 129.0 149.5 L 131.5 153.0 L 135.0 160.5 L 136.0 165.5 L 136.0 174.5 L 134.0 178.5 L 132.0 182.5 L 127.5 187.0 L 123.5 189.0 L 116.5 191.0 L 113.0 191.5 L 104.5 192.0 L 102.5 191.0 L 98.5 191.0 L 90.0 188.5 L 83.5 185.0 L 79.5 182.0 L 70.0 173.5 L 64.5 168.0 L 57.5 164.0 L 51.5 162.0 L 41.5 161.0 L 31.5 160.0 L 25.5 158.0 L 23.0 156.5 L 16.0 150.5 L 13.0 142.5 L 12.0 137.5 L 12.0 127.5 L 14.0 121.5 L 15.5 119.0 L 20.5 113.0 L 33.0 108.5 L 51.5 101.0 L 61.5 97.0 L 68.5 95.0 Z" /><path desc="l 7 p 3" fill="rgb(178,211,126)" stroke="rgb(178,211,126)" stroke-width="1" opacity="0.996078431372549" d="M 74.5 99.0 L 81.0 99.5 L 88.5 101.0 L 99.5 105.0 L 110.0 112.5 L 112.0 115.5 L 117.0 124.5 L 120.0 134.5 L 121.0 143.5 L 125.0 152.5 L 128.0 156.5 L 130.5 161.0 L 131.0 164.5 Q 130.3 167.8 132.0 168.5 L 131.0 170.5 L 131.0 173.5 L 129.0 178.5 L 126.5 182.0 L 120.5 185.0 L 115.0 186.5 L 102.5 187.0 L 99.5 186.0 L 93.5 185.0 L 89.5 183.0 L 81.0 177.5 L 73.0 169.5 L 65.5 163.0 L 57.5 159.0 L 51.0 157.5 L 46.5 157.0 L 30.5 155.0 L 27.0 153.5 L 19.0 146.5 L 16.0 133.5 L 17.0 131.5 L 17.0 127.5 L 18.0 123.5 L 24.5 116.0 L 30.5 114.0 L 35.5 113.0 L 49.5 107.0 L 67.5 100.0 L 71.5 100.0 L 74.5 99.0 Z" /><path desc="l 6 p 6" fill="rgb(95,144,19)" stroke="rgb(95,144,19)" stroke-width="1" opacity="0.9921568627450981" d="M 186.5 109.0 L 189.0 109.5 L 190.5 112.0 L 192.0 115.5 L 192.0 121.5 L 185.5 129.0 L 183.5 130.0 L 179.5 124.0 L 178.5 122.0 L 178.0 116.5 L 182.5 111.0 L 186.5 109.0 Z" /><path desc="l 6 p 7" fill="rgb(95,144,19)" stroke="rgb(95,144,19)" stroke-width="1" opacity="0.9921568627450981" d="M 163.5 121.0 L 170.0 121.5 L 171.5 122.0 L 173.5 123.0 L 178.0 126.5 L 180.0 135.5 L 178.0 140.5 L 176.5 145.0 L 169.5 153.0 L 163.0 156.5 L 156.5 158.0 L 147.5 158.0 L 141.0 153.5 L 138.5 147.0 L 138.0 135.5 L 140.0 131.5 L 141.0 129.5 L 144.5 125.0 L 156.0 122.5 L 160.5 122.0 L 163.5 121.0 Z" /><path desc="l 7 p 4" fill="rgb(178,211,126)" stroke="rgb(178,211,126)" stroke-width="1" opacity="0.996078431372549" d="M 166.5 125.0 L 169.5 126.0 L 172.0 126.5 L 174.0 128.5 L 175.0 132.5 L 175.0 138.5 L 167.5 149.0 L 161.0 152.5 L 158.0 153.5 L 148.5 154.0 L 144.0 150.5 L 142.5 145.0 L 142.0 137.5 Q 143.8 136.8 143.0 133.5 L 146.5 129.0 L 154.5 127.0 L 161.5 126.0 L 164.5 126.0 L 166.5 125.0 Z" /></svg>