<svg width="200" height="200" version="1.1" xmlns="http://www.w3.org/2000/svg" desc="Created with ImageTracer.java version 1.1.2" ><path desc="l 7 p 0" fill="rgb(0,1,1)" stroke="rgb(0,1,1)" stroke-width="1" opacity="0.00392156862745098" d="M 0.5 0.0 L 79.0 0.5 L 62.0 26.5 L 53.0 41.5 L 43.5 60.0 L 36.0 77.5 L 31.0 92.5 L 26.5 107.0 L 23.0 124.5 L 21.0 141.5 L 20.0 159.5 L 22.0 158.5 L 27.5 149.0 L 35.0 134.5 L 46.5 110.0 L 53.5 96.0 L 61.5 83.0 L 61.0 84.5 L 47.0 114.5 L 42.0 126.5 L 46.5 129.0 L 65.5 103.0 L 75.0 91.5 L 93.5 72.0 L 107.5 62.0 L 115.5 67.0 L 126.0 76.5 L 131.0 84.5 L 139.0 100.5 L 148.0 126.5 L 137.5 135.0 L 126.0 145.5 L 117.0 157.5 L 110.0 170.5 L 106.0 181.5 L 101.0 196.5 L 105.0 199.5 L 0.5 200.0 L 0.5 0.0 Z" /><path desc="l 7 p 1" fill="rgb(0,1,1)" stroke="rgb(0,1,1)" stroke-width="1" opacity="0.00392156862745098" d="M 80.5 0.0 L 200.0 0.5 L 199.5 200.0 L 106.0 199.5 L 118.5 187.0 L 127.0 180.5 L 141.0 170.5 L 159.5 159.0 L 175.0 151.5 L 180.0 149.5 L 173.5 146.0 L 168.5 145.0 L 162.5 144.0 L 160.5 145.0 L 156.5 145.0 L 156.5 144.0 L 172.0 135.5 L 160.5 99.0 L 151.0 75.5 L 142.5 60.0 L 129.0 40.5 L 119.5 30.0 L 113.5 25.0 L 94.0 9.5 L 83.5 3.0 L 81.5 1.0 Q 79.1 0.9 80.5 0.0 Z" /><path desc="l 6 p 0" fill="rgb(1,85,68)" stroke="rgb(1,85,68)" stroke-width="1" opacity="0.984313725490196" d="M 79.5 1.0 L 95.5 11.0 L 107.0 19.5 L 125.0 36.5 L 134.5 49.0 L 144.0 63.5 L 153.0 81.5 L 157.5 93.0 L 167.0 120.5 L 169.5 129.0 L 171.0 135.5 L 154.0 145.5 L 156.5 146.0 L 159.5 145.0 L 168.5 145.0 L 179.0 149.5 L 167.5 154.0 L 159.0 158.5 L 136.5 173.0 L 119.5 186.0 L 107.0 197.5 L 106.5 199.0 L 102.0 196.5 L 104.0 189.5 L 109.0 174.5 L 114.0 164.5 L 117.0 159.5 L 122.5 151.0 L 127.5 145.0 L 138.5 134.0 L 149.0 126.5 L 137.0 94.5 L 131.5 84.0 L 126.5 77.0 L 119.5 69.0 L 113.5 65.0 L 109.0 62.5 L 106.5 62.0 L 91.5 74.0 L 76.0 88.5 L 46.5 128.0 L 42.0 126.5 L 64.0 79.5 L 62.0 80.5 L 51.5 99.0 L 43.0 116.5 L 38.0 128.5 L 29.0 145.5 L 20.5 159.0 L 21.0 157.5 L 21.5 141.0 L 22.5 132.0 L 25.0 116.5 L 29.0 101.5 L 29.5 98.0 L 31.0 93.5 L 37.0 76.5 L 45.5 57.0 L 53.0 42.5 L 64.0 24.5 L 79.5 1.0 Z" /><path desc="l 1 p 0" fill="rgb(166,228,194)" stroke="rgb(166,228,194)" stroke-width="1" opacity="1.0" d="M 80.5 8.0 L 83.5 9.0 L 90.5 14.0 L 108.0 27.5 L 118.0 36.5 L 130.5 52.0 L 143.0 72.5 L 148.0 82.5 L 150.0 88.5 L 153.0 95.5 L 158.0 109.5 L 163.0 125.5 L 164.5 130.0 L 165.0 133.5 L 159.5 136.0 L 154.5 139.0 L 147.0 145.5 L 143.5 151.0 L 143.0 148.5 L 150.5 139.0 L 163.0 131.5 L 154.5 106.0 L 148.5 90.0 L 146.0 83.5 L 140.0 71.5 L 130.0 55.5 L 121.0 44.5 L 108.5 31.0 L 100.5 25.0 L 99.5 28.0 L 94.0 31.5 L 80.5 43.0 L 50.5 69.0 L 49.0 68.5 L 40.0 91.5 L 34.5 110.0 L 32.0 120.5 L 34.0 119.5 L 44.0 97.5 L 52.0 82.5 L 59.5 72.0 L 65.5 65.0 L 73.5 59.0 L 77.5 57.0 L 81.5 56.0 L 85.0 58.5 L 86.0 61.5 L 73.0 80.5 L 74.0 80.5 L 77.0 77.5 L 87.5 67.0 L 99.0 58.5 L 103.0 55.5 L 105.0 54.5 L 108.5 54.0 L 120.0 60.5 L 132.0 71.5 L 140.0 84.5 L 146.0 97.5 L 157.0 127.5 L 154.5 132.0 L 148.5 136.0 L 143.5 140.0 L 130.0 152.5 L 124.0 161.5 L 120.0 167.5 L 115.0 179.5 L 116.5 180.0 L 132.0 167.5 L 151.0 155.5 L 145.0 154.5 L 156.5 151.0 L 162.5 150.0 L 162.5 151.0 L 149.0 158.5 L 134.5 168.0 L 124.0 175.5 L 110.5 187.0 L 110.0 185.5 L 116.0 171.5 L 125.0 156.5 L 130.0 150.5 L 139.5 140.0 L 155.0 128.5 L 144.0 98.5 L 141.5 92.0 L 135.5 81.0 L 130.0 73.5 L 121.5 64.0 L 106.5 56.0 L 94.0 64.5 L 71.0 86.5 L 60.5 100.0 L 60.0 98.5 L 74.5 73.0 L 80.0 66.5 L 82.0 61.5 L 78.5 59.0 L 72.5 63.0 L 62.0 72.5 L 51.0 88.5 L 42.5 106.0 L 27.5 138.0 L 27.0 133.5 Q 28.8 132.8 28.0 129.5 L 30.0 115.5 L 35.5 96.0 L 43.0 75.5 L 52.0 55.5 L 65.0 32.5 L 80.5 8.0 Z" /><path desc="l 2 p 0" fill="rgb(115,207,163)" stroke="rgb(115,207,163)" stroke-width="1" opacity="0.996078431372549" d="M 98.5 23.0 L 114.0 36.5 L 113.5 38.0 L 110.5 37.0 L 105.5 37.0 L 87.0 53.5 L 87.0 56.5 Q 87.5 59.5 85.5 60.0 L 85.5 58.0 L 79.5 56.0 L 68.5 63.0 L 62.0 68.5 L 50.5 85.0 L 44.5 96.0 L 44.0 94.5 L 45.0 92.5 L 42.5 91.0 L 38.5 98.0 L 38.0 96.5 L 45.0 78.5 L 50.5 66.0 L 51.0 67.5 L 50.5 69.0 L 80.5 43.0 L 94.0 31.5 L 100.0 27.5 L 98.5 23.0 Z" /><path desc="l 0 p 0" fill="rgb(53,184,122)" stroke="rgb(53,184,122)" stroke-width="1" opacity="0.996078431372549" d="M 105.5 37.0 L 110.5 37.0 L 113.5 38.0 Q 114.5 36.0 115.5 38.0 L 119.0 41.5 L 130.0 56.5 L 138.0 68.5 L 144.0 80.5 L 151.0 95.5 L 159.0 120.5 L 161.0 126.5 L 162.0 131.5 L 156.5 135.0 L 151.0 138.5 L 145.0 144.5 L 142.5 149.0 L 142.0 151.5 L 144.5 155.0 L 150.0 155.5 L 130.0 168.5 L 115.5 180.0 L 115.0 178.5 L 123.0 163.5 L 131.0 152.5 L 139.5 143.0 L 156.0 130.5 L 157.0 126.5 L 147.0 99.5 L 145.0 94.5 L 140.0 84.5 L 137.0 79.5 L 131.5 71.0 L 127.5 66.0 L 118.5 59.0 L 111.5 55.0 L 105.5 54.0 L 97.0 59.5 L 87.5 67.0 L 77.0 76.5 L 73.5 81.0 L 74.0 79.5 L 78.0 73.5 L 82.0 68.5 L 84.5 65.0 Q 87.0 64.0 86.0 59.5 L 85.5 58.0 L 87.0 58.5 L 87.0 55.5 Q 86.5 52.5 88.5 52.0 L 93.5 47.0 L 105.5 37.0 Z" /><path desc="l 0 p 1" fill="rgb(53,184,122)" stroke="rgb(53,184,122)" stroke-width="1" opacity="0.996078431372549" d="M 42.5 91.0 L 45.0 92.5 L 33.5 119.0 L 33.0 116.5 L 36.0 106.5 L 37.0 101.5 L 42.5 91.0 Z" /><path desc="l 6 p 1" fill="rgb(1,85,68)" stroke="rgb(1,85,68)" stroke-width="1" opacity="0.984313725490196" d="M 85.5 99.0 L 91.5 101.0 L 99.0 107.5 L 92.0 112.5 L 83.5 116.0 L 77.5 111.0 L 72.5 110.0 L 67.0 109.5 L 74.0 104.5 L 82.5 100.0 L 85.5 99.0 Z" /><path desc="l 6 p 2" fill="rgb(1,85,68)" stroke="rgb(1,85,68)" stroke-width="1" opacity="0.984313725490196" d="M 117.5 99.0 L 124.0 100.5 L 129.5 104.0 L 138.0 109.5 L 131.5 110.0 L 126.5 111.0 L 120.5 116.0 L 114.5 113.0 L 106.0 107.5 L 114.0 100.5 L 117.5 99.0 Z" /><path desc="l 6 p 3" fill="rgb(1,85,68)" stroke="rgb(1,85,68)" stroke-width="1" opacity="0.984313725490196" d="M 49.5 137.0 L 61.5 138.0 L 70.5 142.0 L 78.0 148.5 L 81.0 153.5 L 86.5 165.0 L 89.0 171.5 L 93.0 181.5 L 95.0 186.5 L 99.0 193.5 L 96.5 196.0 L 95.0 196.5 L 93.0 194.5 L 84.0 185.5 L 68.0 167.5 L 53.5 152.0 L 37.0 140.5 Q 37.5 138.5 40.5 139.0 L 45.5 138.0 Q 48.8 138.8 49.5 137.0 Z" /><path desc="l 1 p 1" fill="rgb(166,228,194)" stroke="rgb(166,228,194)" stroke-width="1" opacity="1.0" d="M 51.5 143.0 L 61.0 143.5 L 66.5 146.0 L 73.0 150.5 L 77.0 156.5 L 82.5 169.0 L 86.0 178.5 L 83.0 176.5 L 75.0 167.5 L 54.5 146.0 L 52.0 144.5 L 51.5 143.0 Z" /><path desc="l 0 p 2" fill="rgb(53,184,122)" stroke="rgb(53,184,122)" stroke-width="1" opacity="0.996078431372549" d="M 56.5 145.0 L 59.5 145.0 L 61.5 146.0 L 67.0 148.5 L 71.0 151.5 L 76.0 159.5 L 80.0 168.5 L 78.0 167.5 L 59.5 148.0 L 57.0 146.5 L 56.5 145.0 Z" /></svg>