<svg width="200" height="200" version="1.1" xmlns="http://www.w3.org/2000/svg" desc="Created with ImageTracer.java version 1.1.2" ><path desc="l 5 p 0" fill="rgb(0,0,0)" stroke="rgb(0,0,0)" stroke-width="1" opacity="0.0" d="M 0.5 0.0 L 97.0 0.5 L 66.5 31.0 L 58.5 39.0 Q 54.8 40.3 56.0 46.5 L 64.5 61.0 L 69.0 71.5 L 73.0 84.5 L 67.0 86.5 L 63.5 87.0 L 60.0 87.5 L 55.5 89.0 L 40.0 93.5 L 28.5 97.0 L 23.5 99.0 L 20.0 101.5 L 21.0 104.5 L 24.5 108.0 L 90.0 142.5 L 87.0 144.5 L 86.0 153.5 L 87.0 155.5 L 87.0 158.5 L 89.5 175.0 L 93.0 187.5 L 95.0 194.5 L 98.0 199.5 L 0.5 200.0 L 0.5 0.0 Z" /><path desc="l 4 p 0" fill="rgb(252,250,250)" stroke="rgb(252,250,250)" stroke-width="1" opacity="0.13725490196078433" d="M 97.5 0.0 L 95.5 3.0 L 88.0 10.5 L 56.5 42.0 L 58.5 39.0 L 66.0 31.5 L 97.5 0.0 Z" /><path desc="l 6 p 0" fill="rgb(109,16,16)" stroke="rgb(109,16,16)" stroke-width="1" opacity="0.996078431372549" d="M 99.5 0.0 L 144.0 43.5 L 133.5 62.0 L 129.0 72.5 L 126.0 84.5 L 156.5 94.0 L 171.5 98.0 L 176.5 100.0 L 180.0 102.5 L 178.5 105.0 L 119.5 136.0 L 105.5 143.0 L 102.5 145.0 Q 101.8 146.8 98.5 146.0 L 80.5 136.0 L 21.0 104.5 L 20.0 102.5 L 23.5 100.0 L 26.5 99.0 L 36.5 96.0 L 74.0 84.5 L 72.0 75.5 L 68.5 66.0 L 65.0 58.5 L 60.0 50.5 L 57.5 46.0 L 57.0 42.5 L 99.5 0.0 Z" /><path desc="l 4 p 1" fill="rgb(252,250,250)" stroke="rgb(252,250,250)" stroke-width="1" opacity="0.13725490196078433" d="M 102.5 0.0 L 142.0 38.5 L 141.0 38.5 L 138.5 36.0 L 111.0 9.5 L 104.5 3.0 L 102.5 0.0 Z" /><path desc="l 5 p 1" fill="rgb(0,0,0)" stroke="rgb(0,0,0)" stroke-width="1" opacity="0.0" d="M 103.5 0.0 L 200.0 0.5 L 199.5 200.0 L 102.0 199.5 L 106.5 190.0 L 109.0 182.5 L 110.5 175.0 L 113.0 159.5 L 114.0 147.5 L 111.5 143.0 L 110.0 142.5 L 154.5 119.0 L 169.5 111.0 L 174.0 108.5 L 180.0 103.5 Q 180.5 100.5 178.5 100.0 L 173.0 97.5 L 165.5 95.0 L 150.5 91.0 L 145.5 89.0 L 136.5 87.0 L 133.0 86.5 L 127.0 84.5 L 131.0 72.5 L 133.0 66.5 L 136.0 59.5 L 141.0 51.5 L 143.0 47.5 L 144.0 42.5 L 138.5 35.0 L 112.0 9.5 L 105.5 3.0 L 103.5 0.0 Z" /><path desc="l 0 p 0" fill="rgb(139,73,73)" stroke="rgb(139,73,73)" stroke-width="1" opacity="0.8313725490196079" d="M 97.5 1.0 L 95.5 4.0 L 88.0 11.5 L 57.5 42.0 L 59.5 39.0 L 67.0 31.5 L 97.5 1.0 Z" /><path desc="l 0 p 1" fill="rgb(139,73,73)" stroke="rgb(139,73,73)" stroke-width="1" opacity="0.8313725490196079" d="M 102.5 1.0 L 129.5 28.0 L 136.5 35.0 L 138.5 38.0 L 111.5 11.0 L 104.5 4.0 L 102.5 1.0 Z" /><path desc="l 7 p 0" fill="rgb(182,62,62)" stroke="rgb(182,62,62)" stroke-width="1" opacity="0.996078431372549" d="M 99.5 6.0 L 138.0 43.5 L 135.5 42.0 L 128.5 35.0 L 100.5 7.0 L 62.5 44.0 L 64.0 41.5 L 71.0 34.5 L 99.5 6.0 Z" /><path desc="l 1 p 0" fill="rgb(223,169,169)" stroke="rgb(223,169,169)" stroke-width="1" opacity="0.996078431372549" d="M 99.5 7.0 L 138.0 44.5 L 132.0 53.5 L 127.5 63.0 L 124.0 71.5 L 121.0 82.5 L 119.0 97.5 L 118.5 101.0 L 116.5 105.0 L 99.5 113.0 L 82.0 103.5 L 77.5 77.0 L 76.0 70.5 L 72.5 63.0 L 62.0 44.5 L 99.5 7.0 Z" /><path desc="l 7 p 1" fill="rgb(182,62,62)" stroke="rgb(182,62,62)" stroke-width="1" opacity="0.996078431372549" d="M 99.5 13.0 L 131.0 43.5 L 128.0 41.5 L 120.5 34.0 L 117.5 31.0 L 116.0 30.5 L 116.5 33.0 L 118.5 35.0 L 126.0 42.5 L 124.5 42.0 L 122.0 40.5 L 119.0 38.5 L 116.5 38.0 L 116.0 61.5 L 119.0 59.5 L 125.5 50.0 L 124.0 52.5 L 118.0 67.5 L 116.5 72.0 L 116.0 81.5 Q 117.8 82.3 117.0 85.5 L 116.0 88.5 L 115.0 95.5 L 114.5 99.0 L 112.5 102.0 L 99.5 108.0 L 86.0 100.5 L 84.0 82.5 L 83.0 80.5 L 83.0 77.5 L 80.5 70.0 L 78.0 64.5 L 75.5 58.0 L 71.0 48.5 L 69.5 47.0 L 69.0 44.5 L 97.5 15.0 L 99.0 14.5 L 99.5 13.0 Z" /><path desc="l 6 p 1" fill="rgb(109,16,16)" stroke="rgb(109,16,16)" stroke-width="1" opacity="0.996078431372549" d="M 116.5 30.0 L 132.0 44.5 L 124.5 57.0 L 119.0 71.5 L 116.5 82.0 L 116.0 72.5 L 123.0 54.5 L 121.0 55.5 L 116.5 62.0 L 116.0 38.5 L 118.5 38.0 L 124.5 42.0 L 123.0 39.5 L 116.0 32.5 L 116.5 30.0 Z" /><path desc="l 5 p 2" fill="rgb(0,0,0)" stroke="rgb(0,0,0)" stroke-width="1" opacity="0.0" d="M 73.5 91.0 L 75.0 100.5 L 76.0 104.5 L 79.0 109.5 L 77.5 109.0 L 61.0 101.5 L 69.0 95.5 L 70.5 93.0 L 73.5 91.0 Z" /><path desc="l 1 p 1" fill="rgb(223,169,169)" stroke="rgb(223,169,169)" stroke-width="1" opacity="0.996078431372549" d="M 59.5 94.0 L 58.5 96.0 L 51.0 101.5 L 51.5 104.0 L 53.5 106.0 L 89.5 121.0 L 96.5 125.0 L 101.5 126.0 L 134.5 111.0 L 144.5 107.0 L 149.0 103.5 L 148.0 100.5 L 145.5 98.0 L 142.0 95.5 L 143.5 95.0 L 170.0 103.5 L 127.5 126.0 L 108.5 136.0 L 103.5 139.0 L 98.5 140.0 L 30.0 103.5 L 59.5 94.0 Z" /><path desc="l 7 p 2" fill="rgb(182,62,62)" stroke="rgb(182,62,62)" stroke-width="1" opacity="0.996078431372549" d="M 69.5 118.0 L 88.5 126.0 L 95.5 129.0 L 101.5 130.0 L 115.5 124.0 L 116.5 126.0 L 120.5 124.0 L 119.5 126.0 L 99.5 136.0 L 91.0 130.5 L 80.5 125.0 L 72.5 121.0 L 70.5 119.0 Q 68.1 118.9 69.5 118.0 Z" /><path desc="l 6 p 2" fill="rgb(109,16,16)" stroke="rgb(109,16,16)" stroke-width="1" opacity="0.996078431372549" d="M 88.5 144.0 L 92.0 144.5 L 94.0 145.5 L 98.0 147.5 L 101.5 148.0 L 106.5 145.0 L 111.5 144.0 Q 113.8 144.8 113.0 148.5 L 112.0 150.5 L 112.0 154.5 L 111.5 160.0 L 110.0 168.5 L 109.0 175.5 L 107.0 183.5 L 104.5 192.0 L 100.5 200.0 L 98.0 198.5 L 93.0 183.5 L 90.0 169.5 L 88.5 160.0 L 88.5 144.0 Z" /><path desc="l 1 p 2" fill="rgb(223,169,169)" stroke="rgb(223,169,169)" stroke-width="1" opacity="0.996078431372549" d="M 93.5 151.0 L 100.5 154.0 L 106.5 151.0 L 107.0 159.5 Q 105.3 160.3 106.0 163.5 L 105.0 168.5 L 103.5 177.0 L 100.5 188.0 L 99.0 187.5 L 94.5 166.0 L 93.5 160.0 L 93.5 151.0 Z" /></svg>