<svg width="200" height="200" version="1.1" xmlns="http://www.w3.org/2000/svg" desc="Created with ImageTracer.java version 1.1.2" ><path desc="l 2 p 0" fill="rgb(2,0,0)" stroke="rgb(2,0,0)" stroke-width="1" opacity="0.0" d="M 0.5 0.0 L 200.0 0.5 L 199.5 200.0 L 0.0 199.5 L 0.5 0.0 Z" /><path desc="l 0 p 0" fill="rgb(121,14,14)" stroke="rgb(121,14,14)" stroke-width="1" opacity="0.984313725490196" d="M 99.5 3.0 L 193.0 61.5 L 189.5 68.0 L 181.5 66.0 L 178.5 70.0 L 155.5 84.0 L 134.5 96.0 L 120.0 102.5 L 119.5 111.0 L 118.0 123.5 L 113.0 166.5 L 111.5 179.0 L 111.0 186.5 L 110.0 190.5 L 109.5 194.0 L 106.5 197.0 L 97.5 197.0 L 93.0 196.5 L 90.0 193.5 L 88.0 174.5 L 83.0 131.5 L 81.5 120.0 L 81.0 111.5 L 80.0 106.5 Q 80.8 102.8 78.5 102.0 L 47.5 86.0 L 32.0 76.5 L 19.0 67.5 L 18.5 66.0 L 10.5 68.0 L 7.0 61.5 L 99.5 3.0 Z" /><path desc="l 1 p 0" fill="rgb(190,99,99)" stroke="rgb(190,99,99)" stroke-width="1" opacity="0.996078431372549" d="M 99.5 12.0 L 163.0 51.5 L 160.5 52.0 L 145.5 47.0 L 121.5 40.0 L 108.5 36.0 L 103.0 34.5 L 96.5 34.0 L 81.5 39.0 L 68.5 43.0 L 37.5 52.0 L 37.5 51.0 L 99.5 12.0 Z" /><path desc="l 0 p 1" fill="rgb(121,14,14)" stroke="rgb(121,14,14)" stroke-width="1" opacity="0.984313725490196" d="M 99.5 18.0 L 115.5 27.0 L 132.0 37.5 L 129.5 38.0 L 117.5 34.0 L 98.5 29.0 L 93.5 31.0 L 87.5 32.0 L 68.5 38.0 L 69.5 36.0 L 99.5 18.0 Z" /><path desc="l 2 p 1" fill="rgb(2,0,0)" stroke="rgb(2,0,0)" stroke-width="1" opacity="0.0" d="M 98.5 42.0 L 102.0 42.5 L 106.5 44.0 L 118.0 47.5 L 169.0 62.5 L 114.5 64.0 L 105.5 55.0 L 103.5 53.0 L 101.5 52.0 L 97.5 52.0 L 88.5 61.0 L 86.5 63.0 L 84.5 64.0 L 81.5 64.0 L 69.5 64.0 L 66.5 63.0 L 58.5 63.0 L 31.0 62.5 L 61.0 53.5 L 69.5 51.0 L 74.5 49.0 L 83.5 47.0 L 89.5 45.0 L 98.5 42.0 Z" /><path desc="l 1 p 1" fill="rgb(190,99,99)" stroke="rgb(190,99,99)" stroke-width="1" opacity="0.996078431372549" d="M 99.5 59.0 L 107.5 66.0 L 112.0 69.5 L 119.5 70.0 L 142.5 70.0 L 144.5 69.0 L 150.5 69.0 L 163.5 69.0 L 166.5 69.0 L 168.5 68.0 L 169.0 69.5 L 135.5 89.0 L 122.0 95.5 L 119.5 96.0 L 115.0 99.5 L 107.0 167.5 L 105.0 184.5 L 104.5 189.0 L 103.5 191.0 L 98.5 191.0 Q 95.5 191.5 95.0 189.5 L 94.5 180.0 L 93.0 167.5 L 88.0 125.5 L 86.0 108.5 L 85.0 101.5 L 84.5 99.0 L 82.5 97.0 L 74.0 93.5 L 57.5 85.0 L 31.0 69.5 L 31.5 68.0 L 33.5 69.0 L 38.5 69.0 L 57.0 69.5 L 87.5 70.0 L 99.5 59.0 Z" /><path desc="l 0 p 2" fill="rgb(121,14,14)" stroke="rgb(121,14,14)" stroke-width="1" opacity="0.984313725490196" d="M 99.5 65.0 L 106.0 70.5 L 110.0 73.5 L 116.5 74.0 L 135.5 74.0 L 137.5 73.0 L 142.5 73.0 L 144.5 74.0 L 146.5 73.0 L 151.5 73.0 L 151.5 74.0 L 112.0 95.5 L 110.5 101.0 L 110.0 105.5 L 108.0 124.5 L 105.0 151.5 L 104.5 156.0 L 104.0 165.5 L 103.0 167.5 L 103.0 170.5 L 100.5 187.0 L 99.0 186.5 L 98.5 180.0 L 98.0 177.5 L 97.5 175.0 L 97.0 165.5 Q 95.3 164.8 96.0 161.5 L 96.0 158.5 L 95.0 156.5 L 94.5 147.0 L 94.0 142.5 Q 94.8 139.3 93.0 138.5 Q 94.8 137.8 94.0 134.5 L 93.0 132.5 L 93.0 129.5 Q 93.8 126.3 92.0 125.5 L 91.5 115.0 L 91.0 110.5 L 90.0 107.5 L 90.0 101.5 Q 90.8 98.3 89.0 97.5 L 86.5 94.0 L 69.5 86.0 L 48.0 73.5 L 53.5 73.0 L 56.5 74.0 L 62.5 74.0 L 89.5 74.0 L 99.5 65.0 Z" /></svg>