<svg width="200" height="200" version="1.1" xmlns="http://www.w3.org/2000/svg" desc="Created with ImageTracer.java version 1.1.2" ><path desc="l 6 p 0" fill="rgb(0,1,0)" stroke="rgb(0,1,0)" stroke-width="1" opacity="0.0" d="M 0.5 0.0 L 200.0 0.5 L 199.5 4.0 L 194.5 1.0 L 171.5 26.0 L 160.0 36.5 L 32.0 175.5 L 44.5 176.0 L 51.0 176.5 L 55.5 178.0 L 65.5 184.0 L 74.5 188.0 L 87.5 192.0 L 95.0 193.5 L 100.5 194.0 L 113.5 195.0 L 115.5 194.0 L 118.5 194.0 L 124.0 193.5 L 132.5 192.0 L 145.5 187.0 L 154.5 181.0 L 162.5 175.0 L 173.0 164.5 L 180.0 154.5 L 185.5 144.0 L 192.0 126.5 L 193.5 116.0 L 194.0 93.5 L 193.0 91.5 L 193.0 87.5 L 190.0 79.5 L 185.0 69.5 L 181.5 64.0 L 176.0 66.5 L 177.5 76.0 L 178.0 97.5 L 177.0 100.5 L 176.0 106.5 L 174.5 112.0 L 170.0 124.5 L 165.0 132.5 L 151.5 147.0 L 130.5 159.0 L 115.5 163.0 L 108.5 164.0 L 94.5 164.0 L 92.0 162.5 L 158.5 67.0 L 180.0 36.5 L 182.0 31.5 L 185.0 26.5 L 199.5 6.0 L 200.0 199.5 L 0.5 200.0 L 0.0 196.5 L 2.5 198.0 L 5.5 199.0 L 28.5 174.0 L 40.0 163.5 L 168.0 24.5 L 155.5 24.0 L 149.0 23.5 L 142.0 20.5 L 136.5 17.0 L 129.5 14.0 L 122.5 11.0 L 114.0 8.5 L 105.0 6.5 L 100.5 6.0 L 96.0 5.5 L 84.5 5.0 L 81.5 6.0 L 75.0 6.5 L 69.5 8.0 L 60.5 11.0 L 55.5 13.0 L 48.5 17.0 L 40.5 23.0 L 26.0 36.5 L 18.0 48.5 L 12.0 61.5 L 7.0 78.5 L 6.5 84.0 L 6.0 106.5 L 7.0 108.5 L 7.0 112.5 Q 8.8 113.3 8.0 116.5 L 10.5 121.0 L 15.0 130.5 L 18.5 136.0 L 24.0 133.5 L 22.5 124.0 L 22.0 102.5 L 23.0 99.5 L 24.0 93.5 L 25.5 88.0 L 30.0 75.5 L 35.0 67.5 L 48.5 53.0 L 69.5 41.0 L 84.5 37.0 L 91.5 36.0 L 105.5 36.0 L 108.0 37.5 L 41.5 133.0 L 20.0 163.5 L 18.0 168.5 L 15.0 173.5 L 0.5 194.0 L 0.5 0.0 Z" /><path desc="l 4 p 0" fill="rgb(2,86,70)" stroke="rgb(2,86,70)" stroke-width="1" opacity="0.9921568627450981" d="M 194.5 2.0 L 197.0 2.5 L 199.0 4.5 L 198.0 7.5 L 196.0 10.5 L 189.0 20.5 L 167.5 51.0 L 90.0 163.5 Q 90.8 165.8 94.5 165.0 L 105.5 166.0 L 107.5 165.0 L 110.5 165.0 L 115.0 164.5 L 121.5 163.0 L 133.5 159.0 L 144.0 153.5 L 151.5 148.0 L 163.0 137.5 L 168.0 130.5 L 173.0 120.5 L 176.0 112.5 L 178.5 101.0 L 179.0 79.5 Q 177.3 78.8 178.0 75.5 L 177.0 66.5 L 181.5 65.0 L 185.0 69.5 L 189.0 79.5 L 192.0 92.5 L 192.5 97.0 L 193.0 111.5 L 192.0 113.5 L 192.0 118.5 L 188.5 132.0 L 181.5 149.0 L 175.0 159.5 L 159.5 176.0 L 150.5 182.0 L 140.0 187.5 L 133.5 190.0 L 124.5 192.0 L 116.5 193.0 L 98.5 193.0 L 91.5 191.0 L 82.5 189.0 L 74.5 186.0 L 64.0 181.5 L 55.5 177.0 L 53.0 175.5 L 47.5 175.0 L 35.0 174.5 L 194.5 2.0 Z" /><path desc="l 4 p 1" fill="rgb(2,86,70)" stroke="rgb(2,86,70)" stroke-width="1" opacity="0.9921568627450981" d="M 78.5 7.0 L 95.5 7.0 L 102.0 7.5 L 104.5 8.0 L 117.5 11.0 L 130.5 16.0 L 143.0 22.5 L 147.0 24.5 L 152.5 25.0 L 165.0 25.5 L 5.5 198.0 L 3.0 197.5 L 1.0 195.5 L 1.5 193.0 L 3.0 191.5 L 11.0 179.5 L 32.5 149.0 L 110.0 36.5 Q 109.3 34.3 105.5 35.0 L 94.5 34.0 L 92.5 35.0 L 89.5 35.0 L 85.0 35.5 L 78.5 37.0 L 66.5 41.0 L 56.0 46.5 L 48.5 52.0 L 37.0 62.5 L 32.0 69.5 L 27.0 79.5 L 24.0 87.5 L 22.0 96.5 L 21.0 104.5 L 21.0 120.5 Q 22.8 121.3 22.0 124.5 L 23.0 133.5 L 18.5 135.0 L 15.5 131.0 L 13.0 125.5 L 9.0 113.5 L 7.5 104.0 L 7.0 88.5 L 8.0 86.5 L 8.0 81.5 L 11.5 68.0 L 17.0 54.5 L 26.5 39.0 L 41.5 23.0 L 54.0 15.5 L 61.5 12.0 L 68.5 10.0 L 78.5 7.0 Z" /><path desc="l 2 p 0" fill="rgb(186,233,210)" stroke="rgb(186,233,210)" stroke-width="1" opacity="1.0" d="M 81.5 13.0 L 99.0 13.5 L 106.0 14.5 L 111.5 16.0 L 123.5 20.0 L 130.0 22.5 L 141.0 28.5 L 143.5 30.0 L 146.5 31.0 L 151.0 31.5 L 35.5 156.0 L 37.0 153.5 L 98.5 65.0 L 114.0 41.5 L 117.5 37.0 L 120.0 32.5 L 113.5 30.0 L 105.0 28.5 L 90.5 28.0 L 88.5 29.0 L 83.5 29.0 L 71.0 32.5 L 63.5 35.0 L 49.0 43.5 L 43.5 48.0 L 32.0 58.5 L 23.5 72.0 L 19.5 81.0 L 16.0 91.5 L 14.5 108.0 L 13.0 93.5 L 14.0 91.5 L 14.0 88.5 L 14.5 83.0 L 16.0 75.5 L 17.0 72.5 L 20.0 63.5 L 23.0 56.5 L 29.5 46.0 L 36.0 37.5 L 45.5 28.0 L 57.5 21.0 L 63.5 18.0 L 71.0 15.5 L 77.5 14.0 Q 80.8 14.8 81.5 13.0 Z" /><path desc="l 1 p 0" fill="rgb(109,198,158)" stroke="rgb(109,198,158)" stroke-width="1" opacity="0.996078431372549" d="M 79.5 19.0 L 95.5 19.0 L 102.0 19.5 L 107.0 20.5 L 114.5 23.0 L 123.5 26.0 L 133.0 30.5 L 129.5 31.0 L 128.5 29.0 L 119.5 26.0 L 106.5 23.0 L 99.5 23.0 L 95.5 22.0 L 93.5 23.0 L 90.5 23.0 L 84.0 23.5 L 82.5 24.0 L 73.5 26.0 L 64.5 29.0 L 57.5 32.0 L 48.0 37.5 L 35.5 47.0 L 35.5 46.0 L 38.0 43.5 L 48.5 33.0 L 63.5 24.0 L 74.0 20.5 L 79.5 19.0 Z" /><path desc="l 7 p 0" fill="rgb(253,254,254)" stroke="rgb(253,254,254)" stroke-width="1" opacity="0.1450980392156863" d="M 39.5 23.0 L 39.5 24.0 L 37.0 26.5 L 27.0 36.5 L 19.0 48.5 L 13.5 60.0 L 13.0 58.5 L 19.0 46.5 L 23.0 40.5 L 39.5 23.0 Z" /><path desc="l 7 p 1" fill="rgb(253,254,254)" stroke="rgb(253,254,254)" stroke-width="1" opacity="0.1450980392156863" d="M 167.5 24.0 L 168.0 25.5 L 29.5 174.0 L 31.5 171.0 L 39.0 163.5 L 167.5 24.0 Z" /><path desc="l 7 p 2" fill="rgb(253,254,254)" stroke="rgb(253,254,254)" stroke-width="1" opacity="0.1450980392156863" d="M 170.5 26.0 L 168.5 29.0 L 161.0 36.5 L 32.5 176.0 L 32.0 174.5 L 170.5 26.0 Z" /><path desc="l 1 p 1" fill="rgb(109,198,158)" stroke="rgb(109,198,158)" stroke-width="1" opacity="0.996078431372549" d="M 129.5 34.0 Q 134.0 33.0 135.0 35.5 L 133.0 40.5 Q 135.0 41.5 133.0 42.5 L 129.5 46.0 L 128.0 46.5 Q 130.3 47.8 127.5 49.0 L 122.0 54.5 L 109.0 69.5 L 82.5 98.0 L 83.0 96.5 L 92.5 82.0 L 105.0 63.5 L 123.5 39.0 L 125.0 38.5 Q 122.8 37.3 125.5 36.0 L 127.0 36.5 L 129.5 34.0 Z" /><path desc="l 2 p 1" fill="rgb(186,233,210)" stroke="rgb(186,233,210)" stroke-width="1" opacity="1.0" d="M 164.5 44.0 L 163.0 46.5 L 101.5 135.0 L 86.0 158.5 L 82.5 163.0 L 80.0 167.5 L 86.5 170.0 L 95.0 171.5 L 109.5 172.0 L 111.5 171.0 L 116.5 171.0 L 129.0 167.5 L 141.5 162.0 L 153.0 155.5 L 168.0 141.5 L 176.5 128.0 L 180.5 119.0 L 184.0 108.5 L 185.5 92.0 L 187.0 105.5 L 186.0 107.5 L 186.0 111.5 L 185.5 117.0 L 184.0 122.5 L 182.0 132.5 L 178.5 140.0 L 170.5 154.0 L 164.0 162.5 L 154.5 172.0 L 151.0 174.5 L 138.0 181.5 L 131.5 184.0 L 119.0 186.5 L 101.5 187.0 Q 100.8 185.3 97.5 186.0 Q 94.3 186.8 93.5 185.0 L 83.0 182.5 L 68.0 176.5 L 59.0 171.5 L 52.5 169.0 L 49.0 168.5 L 164.5 44.0 Z" /><path desc="l 7 p 3" fill="rgb(253,254,254)" stroke="rgb(253,254,254)" stroke-width="1" opacity="0.1450980392156863" d="M 47.5 53.0 L 45.5 56.0 L 38.0 63.5 L 30.5 75.0 L 31.0 73.5 L 33.0 69.5 L 37.0 64.5 L 47.5 53.0 Z" /><path desc="l 1 p 2" fill="rgb(109,198,158)" stroke="rgb(109,198,158)" stroke-width="1" opacity="0.996078431372549" d="M 117.5 102.0 L 117.0 103.5 L 107.5 118.0 L 95.0 136.5 L 76.5 161.0 L 75.0 161.5 Q 77.3 162.8 74.5 164.0 L 73.0 163.5 L 70.5 166.0 L 68.5 167.0 L 66.0 165.5 L 65.0 163.5 L 67.0 159.5 Q 65.0 158.5 67.0 157.5 L 70.5 154.0 L 72.0 153.5 Q 69.8 152.3 72.5 151.0 L 78.0 145.5 L 91.0 130.5 L 117.5 102.0 Z" /><path desc="l 7 p 4" fill="rgb(253,254,254)" stroke="rgb(253,254,254)" stroke-width="1" opacity="0.1450980392156863" d="M 169.5 125.0 L 169.0 126.5 L 167.0 130.5 L 163.0 135.5 L 152.5 147.0 L 154.5 144.0 L 162.0 136.5 L 169.5 125.0 Z" /><path desc="l 1 p 3" fill="rgb(109,198,158)" stroke="rgb(109,198,158)" stroke-width="1" opacity="0.996078431372549" d="M 163.5 154.0 L 163.5 155.0 L 161.0 157.5 L 150.5 168.0 L 138.5 175.0 L 131.5 178.0 L 122.5 180.0 L 114.5 181.0 L 98.5 181.0 L 89.0 178.5 L 76.5 174.0 L 67.0 169.5 L 70.5 169.0 L 71.5 171.0 L 80.5 174.0 L 93.5 177.0 L 100.5 177.0 L 103.5 178.0 L 105.5 177.0 L 108.5 177.0 L 113.5 177.0 L 116.5 176.0 L 122.5 175.0 L 131.5 173.0 L 141.0 168.5 L 150.5 163.0 L 163.5 154.0 Z" /><path desc="l 7 p 5" fill="rgb(253,254,254)" stroke="rgb(253,254,254)" stroke-width="1" opacity="0.1450980392156863" d="M 175.5 160.0 L 175.5 161.0 L 173.0 163.5 L 159.5 178.0 L 150.5 184.0 L 151.5 182.0 L 162.5 174.0 L 172.0 164.5 L 175.5 160.0 Z" /></svg>