<svg width="200" height="200" version="1.1" xmlns="http://www.w3.org/2000/svg" desc="Created with ImageTracer.java version 1.1.2" ><path desc="l 6 p 0" fill="rgb(1,0,0)" stroke="rgb(1,0,0)" stroke-width="1" opacity="0.0" d="M 0.5 0.0 L 200.0 0.5 L 199.5 200.0 L 0.0 199.5 L 0.5 0.0 Z" /><path desc="l 7 p 0" fill="rgb(136,78,38)" stroke="rgb(136,78,38)" stroke-width="1" opacity="0.9882352941176471" d="M 95.5 3.0 L 106.5 3.0 L 112.5 4.0 L 119.5 6.0 L 126.0 8.5 L 135.5 15.0 L 144.0 22.5 L 151.5 34.0 L 156.0 45.5 L 157.0 51.5 L 157.0 61.5 L 155.0 67.5 L 151.5 74.0 L 146.5 80.0 L 135.5 85.0 L 132.5 86.0 Q 129.5 85.5 129.0 87.5 L 134.0 99.5 L 141.0 113.5 L 151.0 128.5 L 171.5 156.0 L 175.0 156.5 L 180.0 158.5 L 187.0 162.5 L 192.0 166.5 L 195.5 174.0 L 196.0 182.5 L 195.0 185.5 L 189.5 193.0 L 184.5 196.0 L 180.5 197.0 L 172.5 197.0 L 169.0 195.5 L 159.0 186.5 L 154.5 177.0 L 154.0 175.5 L 151.5 172.0 L 142.0 164.5 L 125.0 148.5 L 111.0 137.5 L 104.5 133.0 L 90.5 127.0 L 88.0 135.5 L 85.0 139.5 L 77.5 148.0 L 67.5 152.0 L 65.0 152.5 L 52.5 153.0 L 41.0 149.5 L 34.5 146.0 L 26.5 141.0 L 18.0 133.5 L 9.0 119.5 L 6.5 113.0 L 5.0 106.5 L 4.0 97.5 L 5.0 95.5 L 5.0 92.5 L 7.0 87.5 L 10.5 81.0 L 13.5 77.0 L 20.0 72.5 L 20.5 23.0 L 58.5 23.0 L 67.5 23.0 L 70.5 23.0 L 72.5 24.0 L 75.5 17.0 L 78.0 13.5 L 83.5 8.0 L 95.5 3.0 Z" /><path desc="l 3 p 0" fill="rgb(240,219,205)" stroke="rgb(240,219,205)" stroke-width="1" opacity="1.0" d="M 100.5 7.0 L 108.5 8.0 L 112.0 8.5 L 116.5 10.0 L 121.5 12.0 L 128.5 16.0 L 135.0 20.5 L 143.0 28.5 L 150.0 41.5 L 152.5 50.0 L 153.0 59.5 L 151.0 65.5 L 147.5 72.0 L 142.5 77.0 L 138.5 79.0 L 131.5 81.0 L 123.5 82.0 Q 122.8 80.3 119.5 81.0 L 116.0 80.5 L 111.5 79.0 L 103.0 75.5 L 97.0 71.5 L 85.0 60.5 L 80.5 53.0 L 78.0 47.5 L 76.0 40.5 L 75.0 31.5 L 76.0 28.5 L 77.0 23.5 L 79.5 19.0 L 84.5 13.0 L 94.5 8.0 L 97.5 8.0 L 100.5 7.0 Z" /><path desc="l 0 p 0" fill="rgb(216,159,121)" stroke="rgb(216,159,121)" stroke-width="1" opacity="0.996078431372549" d="M 105.5 16.0 L 112.5 17.0 L 117.5 18.0 L 123.5 20.0 L 126.0 20.5 L 129.0 22.5 L 137.0 28.5 L 144.0 39.5 L 146.0 43.5 L 147.5 49.0 L 148.0 61.5 L 147.0 64.5 L 141.5 72.0 L 136.5 75.0 L 131.0 76.5 L 120.5 77.0 L 110.5 74.0 L 104.0 70.5 L 97.0 65.5 L 88.0 56.5 L 83.5 47.0 L 82.0 42.5 L 83.0 39.5 L 83.0 34.5 L 83.5 31.0 L 85.0 27.5 L 89.5 22.0 L 99.5 17.0 L 102.5 17.0 L 105.5 16.0 Z" /><path desc="l 4 p 0" fill="rgb(134,76,36)" stroke="rgb(134,76,36)" stroke-width="1" opacity="0.36470588235294116" d="M 19.5 22.0 L 73.0 22.5 L 71.5 27.0 L 69.0 26.5 L 71.0 24.5 L 71.5 23.0 L 20.0 23.5 L 20.0 59.5 L 20.0 68.5 Q 21.0 73.0 18.5 74.0 L 19.0 72.5 L 19.5 22.0 Z" /><path desc="l 0 p 1" fill="rgb(216,159,121)" stroke="rgb(216,159,121)" stroke-width="1" opacity="0.996078431372549" d="M 25.5 27.0 L 61.0 27.5 L 25.0 28.5 L 24.5 60.0 L 24.0 28.5 L 25.5 27.0 Z" /><path desc="l 3 p 1" fill="rgb(240,219,205)" stroke="rgb(240,219,205)" stroke-width="1" opacity="1.0" d="M 25.5 28.0 L 60.0 28.5 L 28.0 59.5 L 26.5 62.0 L 25.0 61.5 L 25.5 28.0 Z" /><path desc="l 0 p 2" fill="rgb(216,159,121)" stroke="rgb(216,159,121)" stroke-width="1" opacity="0.996078431372549" d="M 30.5 33.0 L 34.0 33.5 L 32.0 34.5 L 32.5 36.0 L 34.5 35.0 L 40.5 35.0 L 41.0 37.5 L 33.5 44.0 Q 31.5 43.5 32.0 40.5 L 31.5 36.0 L 31.0 44.5 L 34.0 46.5 L 31.5 49.0 L 30.0 49.5 L 30.5 33.0 Z" /><path desc="l 3 p 2" fill="rgb(240,219,205)" stroke="rgb(240,219,205)" stroke-width="1" opacity="1.0" d="M 70.5 37.0 L 72.0 42.5 L 70.0 44.5 Q 68.3 45.3 69.0 48.5 L 61.5 57.0 L 41.5 78.0 L 39.5 77.0 L 36.5 79.0 L 36.0 73.5 L 70.5 37.0 Z" /><path desc="l 0 p 3" fill="rgb(216,159,121)" stroke="rgb(216,159,121)" stroke-width="1" opacity="0.996078431372549" d="M 55.5 40.0 L 60.0 40.5 L 40.5 62.0 L 40.0 55.5 L 55.5 40.0 Z" /><path desc="l 0 p 4" fill="rgb(216,159,121)" stroke="rgb(216,159,121)" stroke-width="1" opacity="0.996078431372549" d="M 71.5 43.0 L 73.5 48.0 L 76.5 55.0 L 79.0 58.5 L 84.0 65.5 L 89.5 72.0 L 97.5 78.0 L 106.0 82.5 L 105.5 84.0 L 103.0 84.5 L 98.5 87.0 L 91.0 93.5 L 87.0 102.5 L 85.5 109.0 L 85.0 114.5 Q 85.8 118.3 83.5 119.0 L 81.5 122.0 L 81.0 125.5 L 84.0 126.5 L 80.5 127.0 L 78.5 126.0 L 75.5 126.0 L 71.0 125.5 L 63.5 124.0 L 60.5 123.0 L 49.5 120.0 L 40.0 112.5 L 38.0 108.5 L 36.0 101.5 L 35.0 93.5 L 35.0 76.5 L 36.0 76.5 L 36.5 79.0 L 39.5 77.0 L 41.5 78.0 L 61.5 57.0 L 69.0 48.5 L 69.5 45.0 L 71.5 43.0 Z" /><path desc="l 3 p 3" fill="rgb(240,219,205)" stroke="rgb(240,219,205)" stroke-width="1" opacity="1.0" d="M 29.5 74.0 L 30.0 78.5 L 26.0 80.5 L 22.5 87.0 L 20.0 90.5 L 18.0 94.5 L 17.0 99.5 L 17.0 108.5 L 20.0 116.5 L 19.5 118.0 L 21.0 118.5 L 20.5 120.0 L 22.0 121.5 L 25.0 125.5 L 33.5 135.0 L 42.5 140.0 L 50.0 142.5 L 55.0 143.5 L 61.5 144.0 L 67.5 142.0 L 71.5 140.0 L 78.0 134.5 L 79.5 132.0 L 84.0 132.5 L 77.5 142.0 L 70.5 146.0 L 65.0 147.5 L 51.5 148.0 L 41.5 144.0 L 36.5 142.0 L 31.0 138.5 L 19.0 127.5 L 12.0 114.5 L 9.5 105.0 L 9.0 95.5 L 11.0 90.5 L 13.0 85.5 L 18.5 79.0 L 29.5 74.0 Z" /><path desc="l 0 p 5" fill="rgb(216,159,121)" stroke="rgb(216,159,121)" stroke-width="1" opacity="0.996078431372549" d="M 29.5 79.0 L 30.0 83.5 L 29.0 86.5 L 29.0 94.5 L 30.0 97.5 L 30.5 102.0 L 33.0 109.5 L 40.5 120.0 L 58.0 128.5 L 66.5 131.0 L 74.5 131.0 Q 77.8 130.3 78.5 132.0 L 80.5 131.0 L 83.5 131.0 L 83.5 132.0 Q 79.0 131.0 78.0 133.5 L 72.5 140.0 L 64.5 143.0 L 62.0 143.5 L 55.5 144.0 L 52.5 143.0 L 47.5 142.0 L 36.5 137.0 L 25.0 126.5 L 20.0 119.5 L 20.5 118.0 L 19.0 117.5 L 20.0 115.5 L 18.0 115.5 L 19.0 112.5 L 17.5 109.0 L 17.0 105.5 L 17.0 96.5 L 22.0 87.5 L 26.5 80.0 L 29.5 79.0 Z" /><path desc="l 3 p 4" fill="rgb(240,219,205)" stroke="rgb(240,219,205)" stroke-width="1" opacity="1.0" d="M 107.5 88.0 L 119.5 88.0 Q 124.0 87.0 125.0 89.5 L 128.0 98.5 L 131.0 104.5 L 137.0 116.5 L 143.5 127.0 L 164.0 155.5 L 160.5 158.0 L 147.0 140.5 L 129.5 114.0 L 128.0 113.5 L 128.5 112.0 L 125.0 109.5 L 117.5 99.0 L 111.5 99.0 L 107.5 100.0 Q 101.9 100.4 100.0 104.5 L 95.0 117.5 L 107.5 123.0 L 122.0 133.5 L 134.5 144.0 L 155.0 163.5 L 152.5 167.0 L 125.5 142.0 L 114.0 133.5 L 106.0 128.5 L 90.0 121.5 L 90.5 112.0 L 91.5 105.0 L 94.0 98.5 L 100.5 91.0 L 107.5 88.0 Z" /><path desc="l 0 p 6" fill="rgb(216,159,121)" stroke="rgb(216,159,121)" stroke-width="1" opacity="0.996078431372549" d="M 109.5 99.0 L 115.5 99.0 L 118.5 100.0 L 121.0 102.5 L 127.5 112.0 L 129.0 112.5 L 128.5 114.0 L 130.0 114.5 L 141.5 132.0 L 154.5 150.0 L 160.0 158.5 L 156.0 161.5 L 155.5 163.0 L 136.0 145.5 L 122.0 133.5 L 107.5 123.0 L 95.0 117.5 L 98.5 108.0 L 103.5 101.0 L 109.5 99.0 Z" /><path desc="l 3 p 5" fill="rgb(240,219,205)" stroke="rgb(240,219,205)" stroke-width="1" opacity="1.0" d="M 167.5 160.0 L 171.0 160.5 L 177.5 163.0 L 184.0 166.5 L 188.0 169.5 L 190.5 175.0 L 191.0 181.5 L 186.5 189.0 L 184.0 190.5 L 179.5 192.0 L 173.5 192.0 L 171.0 190.5 L 164.0 184.5 L 160.0 177.5 L 158.5 173.0 L 158.0 168.5 L 159.5 166.0 L 162.0 169.5 L 164.0 173.5 L 164.5 176.0 L 167.0 180.5 L 171.5 186.0 L 175.0 187.5 L 178.5 188.0 L 180.5 187.0 L 186.0 182.5 Q 185.3 179.3 187.0 178.5 L 186.0 175.5 L 181.5 170.0 L 172.5 166.0 Q 171.8 164.3 168.5 165.0 L 164.0 162.5 L 167.5 160.0 Z" /><path desc="l 0 p 7" fill="rgb(216,159,121)" stroke="rgb(216,159,121)" stroke-width="1" opacity="0.996078431372549" d="M 164.5 161.0 L 164.5 162.0 L 165.5 164.0 L 169.5 165.0 L 175.5 167.0 L 180.5 170.0 L 185.0 173.5 L 187.0 178.5 L 186.0 180.5 L 185.0 183.5 L 181.5 187.0 L 175.5 188.0 L 168.0 182.5 L 160.0 165.5 L 164.5 161.0 Z" /></svg>