<svg width="200" height="200" version="1.1" xmlns="http://www.w3.org/2000/svg" desc="Created with ImageTracer.java version 1.1.2" ><path desc="l 7 p 0" fill="rgb(0,0,0)" stroke="rgb(0,0,0)" stroke-width="1" opacity="0.0" d="M 0.5 0.0 L 83.0 0.5 L 74.0 5.5 L 66.0 11.5 L 59.0 21.5 L 55.0 28.5 L 52.0 37.5 L 51.0 45.5 L 58.0 50.5 L 65.0 61.5 L 65.5 65.0 L 68.5 68.0 L 80.5 63.0 L 85.0 62.5 L 88.0 60.5 L 89.0 56.5 L 89.0 50.5 L 89.0 26.5 L 89.5 13.0 L 92.5 5.0 L 95.0 6.5 L 96.0 11.5 L 96.5 14.0 L 97.0 24.5 L 97.0 40.5 L 97.5 47.0 L 98.0 48.5 L 97.0 51.5 L 97.0 57.5 L 99.5 63.0 L 109.5 65.0 L 117.5 69.0 L 121.0 65.5 L 123.0 60.5 L 124.0 57.5 L 129.5 50.0 L 135.0 46.5 L 134.5 40.0 L 134.0 37.5 Q 134.8 34.3 133.0 33.5 L 131.0 28.5 L 124.0 17.5 L 117.5 10.0 L 110.5 5.0 L 105.5 2.0 L 100.0 0.5 L 199.5 0.0 L 200.0 199.5 L 103.5 200.0 L 104.0 198.5 L 106.0 190.5 L 109.0 181.5 L 115.5 170.0 L 126.5 158.0 L 135.0 152.5 L 139.5 150.0 L 146.5 148.0 L 150.0 146.5 L 154.5 146.0 L 160.0 142.5 L 161.0 136.5 L 161.0 125.5 L 158.5 116.0 L 155.0 106.5 L 152.0 99.5 L 149.0 95.5 L 145.0 90.5 L 134.5 79.0 L 127.5 74.0 L 119.5 70.0 L 112.5 68.0 L 102.0 65.5 L 83.5 65.0 L 74.0 67.5 L 66.5 70.0 L 56.5 75.0 L 42.0 87.5 L 33.5 100.0 L 28.0 110.5 L 26.0 117.5 L 25.5 119.0 L 25.0 125.5 L 25.0 146.5 L 27.5 153.0 L 33.5 166.0 L 39.0 174.5 L 49.5 186.0 L 60.5 193.0 L 68.5 197.0 L 76.0 199.5 L 0.5 200.0 L 0.5 0.0 Z" /><path desc="l 5 p 0" fill="rgb(96,144,20)" stroke="rgb(96,144,20)" stroke-width="1" opacity="0.996078431372549" d="M 89.5 0.0 L 92.0 1.5 L 88.5 10.0 L 87.5 15.0 L 87.0 29.5 L 87.0 52.5 L 87.0 58.5 Q 87.5 61.5 85.5 62.0 L 78.0 62.5 L 69.5 67.0 L 65.0 60.5 L 62.5 55.0 L 58.5 49.0 L 52.0 44.5 L 54.0 34.5 L 58.0 26.5 L 63.0 18.5 L 72.5 8.0 L 89.5 0.0 Z" /><path desc="l 5 p 1" fill="rgb(96,144,20)" stroke="rgb(96,144,20)" stroke-width="1" opacity="0.996078431372549" d="M 95.5 1.0 L 102.5 3.0 L 110.0 6.5 L 113.5 9.0 L 122.0 16.5 L 126.0 22.5 L 129.5 30.0 L 132.0 35.5 L 133.5 41.0 L 134.0 45.5 L 127.0 50.5 L 121.5 60.0 L 120.0 63.5 L 117.5 67.0 L 115.0 66.5 L 111.5 64.0 L 104.5 63.0 L 99.0 60.5 L 99.0 25.5 L 98.5 13.0 L 97.0 8.5 L 95.0 5.5 L 94.0 2.5 L 95.5 1.0 Z" /><path desc="l 1 p 0" fill="rgb(217,233,191)" stroke="rgb(217,233,191)" stroke-width="1" opacity="0.996078431372549" d="M 82.5 8.0 L 84.0 8.5 L 82.5 14.0 L 82.0 25.5 L 81.5 57.0 L 77.0 57.5 L 70.5 60.0 L 67.5 53.0 L 61.5 45.0 L 58.0 42.5 L 58.5 39.0 L 60.5 33.0 L 62.5 28.0 L 65.0 24.5 L 69.0 18.5 L 75.5 12.0 L 82.5 8.0 Z" /><path desc="l 3 p 0" fill="rgb(245,248,240)" stroke="rgb(245,248,240)" stroke-width="1" opacity="0.10588235294117647" d="M 95.5 8.0 L 97.5 14.0 L 98.0 22.5 L 98.0 46.5 L 97.0 46.5 L 97.0 22.5 L 96.5 14.0 L 95.5 8.0 Z" /><path desc="l 1 p 1" fill="rgb(217,233,191)" stroke="rgb(217,233,191)" stroke-width="1" opacity="0.996078431372549" d="M 102.5 8.0 L 110.0 12.5 L 118.0 19.5 L 125.5 33.0 L 129.0 42.5 L 121.0 49.5 L 115.5 61.0 L 110.0 58.5 L 104.0 56.5 L 104.0 25.5 L 103.5 14.0 L 102.5 8.0 Z" /><path desc="l 0 p 0" fill="rgb(161,199,101)" stroke="rgb(161,199,101)" stroke-width="1" opacity="0.996078431372549" d="M 82.5 14.0 L 83.0 56.5 L 82.0 56.5 L 82.5 14.0 Z" /><path desc="l 3 p 1" fill="rgb(245,248,240)" stroke="rgb(245,248,240)" stroke-width="1" opacity="0.10588235294117647" d="M 88.5 15.0 L 89.0 58.5 L 88.0 58.5 L 88.5 15.0 Z" /><path desc="l 5 p 2" fill="rgb(96,144,20)" stroke="rgb(96,144,20)" stroke-width="1" opacity="0.996078431372549" d="M 39.5 25.0 L 42.0 26.5 L 41.0 38.5 L 49.0 62.5 L 51.0 69.5 L 52.0 75.5 L 47.5 79.0 L 39.0 86.5 L 36.5 91.0 L 34.5 92.0 L 29.5 87.0 L 23.5 83.0 L 17.0 79.5 L 15.5 70.0 L 15.0 60.5 L 18.0 51.5 L 19.5 47.0 L 24.5 39.0 L 33.5 29.0 L 39.5 25.0 Z" /><path desc="l 5 p 3" fill="rgb(96,144,20)" stroke="rgb(96,144,20)" stroke-width="1" opacity="0.996078431372549" d="M 145.5 26.0 L 149.0 26.5 L 151.5 29.0 L 161.0 37.5 L 167.5 48.0 L 170.5 59.0 L 171.0 72.5 L 170.0 74.5 L 170.0 77.5 L 167.5 82.0 Q 164.3 81.3 163.5 83.0 L 158.0 86.5 L 151.5 92.0 L 139.5 79.0 L 134.0 74.5 L 142.0 49.5 L 144.0 43.5 L 145.0 38.5 L 145.0 29.5 L 144.0 27.5 L 145.5 26.0 Z" /><path desc="l 1 p 2" fill="rgb(217,233,191)" stroke="rgb(217,233,191)" stroke-width="1" opacity="0.996078431372549" d="M 34.5 35.0 L 36.0 35.5 L 37.0 40.5 L 37.5 44.0 L 39.5 50.0 L 47.0 72.5 L 35.0 83.5 L 34.5 85.0 L 29.5 80.0 L 21.0 75.5 L 20.0 63.5 Q 21.8 62.8 21.0 59.5 L 22.0 53.5 L 24.5 48.0 L 29.0 41.5 L 34.5 35.0 Z" /><path desc="l 1 p 3" fill="rgb(217,233,191)" stroke="rgb(217,233,191)" stroke-width="1" opacity="0.996078431372549" d="M 150.5 35.0 L 157.0 40.5 L 163.0 50.5 L 165.5 58.0 L 166.0 72.5 L 164.5 77.0 L 159.5 79.0 L 152.5 85.0 L 146.5 78.0 L 140.0 73.5 L 140.5 70.0 L 142.0 65.5 L 147.0 50.5 L 149.0 44.5 L 150.5 35.0 Z" /><path desc="l 5 p 4" fill="rgb(96,144,20)" stroke="rgb(96,144,20)" stroke-width="1" opacity="0.996078431372549" d="M 89.5 66.0 L 100.5 67.0 L 106.0 67.5 L 111.5 69.0 L 121.5 73.0 L 126.5 76.0 L 130.5 78.0 L 135.5 82.0 L 146.0 92.5 L 154.0 106.5 L 156.0 111.5 L 158.5 124.0 L 159.0 141.5 Q 157.8 145.3 151.5 144.0 L 143.5 147.0 L 128.5 155.0 L 116.0 166.5 L 112.5 172.0 L 108.0 180.5 L 105.5 187.0 L 104.0 193.5 L 103.5 196.0 L 101.5 199.0 L 88.5 200.0 Q 87.8 198.3 84.5 199.0 L 74.5 197.0 L 63.5 193.0 L 54.5 188.0 L 41.0 175.5 L 36.0 168.5 L 32.0 160.5 L 29.5 153.0 L 27.5 146.0 L 26.5 139.0 L 26.0 127.5 Q 27.8 126.8 27.0 123.5 L 29.5 113.0 L 32.0 105.5 L 37.5 96.0 L 41.0 91.5 L 50.5 81.0 L 65.5 72.0 L 73.5 69.0 L 78.5 68.0 L 84.5 67.0 L 87.5 67.0 L 89.5 66.0 Z" /><path desc="l 1 p 4" fill="rgb(217,233,191)" stroke="rgb(217,233,191)" stroke-width="1" opacity="0.996078431372549" d="M 89.5 71.0 L 104.0 72.5 L 111.5 74.0 L 123.0 79.5 L 133.0 86.5 L 141.0 94.5 L 147.5 105.0 L 150.5 112.0 L 153.5 124.0 L 154.0 138.5 L 145.5 141.0 L 138.0 143.5 L 129.5 148.0 L 117.0 157.5 L 107.0 170.5 L 101.0 183.5 L 98.5 194.0 L 82.0 193.5 L 75.5 192.0 L 68.0 189.5 L 59.5 185.0 L 47.0 174.5 L 44.0 170.5 L 37.0 158.5 L 33.0 149.5 L 32.0 143.5 L 31.0 129.5 Q 32.8 128.8 32.0 125.5 L 33.0 117.5 L 36.0 109.5 L 41.5 99.0 L 52.5 86.0 L 66.5 77.0 L 77.5 73.0 L 84.5 72.0 L 87.5 72.0 L 89.5 71.0 Z" /><path desc="l 0 p 1" fill="rgb(161,199,101)" stroke="rgb(161,199,101)" stroke-width="1" opacity="0.996078431372549" d="M 74.5 79.0 L 76.0 79.5 L 69.5 82.0 L 60.0 88.5 L 51.0 96.5 L 42.0 110.5 L 40.5 115.0 L 38.0 125.5 L 37.0 136.5 L 39.0 141.5 L 38.0 143.5 L 40.0 146.5 L 39.5 148.0 L 41.0 149.5 L 42.0 152.5 L 41.5 154.0 L 43.0 154.5 L 43.5 157.0 L 45.5 160.0 L 51.0 167.5 L 56.5 174.0 L 70.5 183.0 L 76.5 185.0 L 79.5 187.0 Q 80.5 185.0 81.5 187.0 L 85.5 188.0 L 88.5 187.0 L 91.5 186.0 L 94.0 184.5 L 96.5 177.0 L 99.5 170.0 L 103.5 164.0 L 109.5 156.0 L 118.5 147.0 L 134.5 137.0 Q 135.5 139.0 136.5 137.0 L 141.5 135.0 L 146.0 131.5 L 146.5 130.0 L 148.0 129.5 L 146.0 118.5 L 141.0 106.5 L 134.5 97.0 L 125.5 88.0 L 120.5 85.0 L 109.0 79.5 L 111.5 79.0 L 123.5 85.0 L 138.0 98.5 L 142.0 104.5 L 145.5 112.0 L 148.0 118.5 L 149.0 125.5 L 150.0 133.5 L 149.5 136.0 L 146.0 136.5 L 142.5 138.0 Q 141.5 136.0 140.5 138.0 L 136.5 139.0 L 131.0 142.5 L 124.5 147.0 L 117.5 152.0 L 110.0 159.5 L 105.5 166.0 L 98.5 180.0 L 94.5 191.0 L 83.5 189.0 Q 82.5 191.0 81.5 189.0 L 75.5 188.0 L 69.0 185.5 L 60.5 181.0 L 48.0 169.5 L 39.0 154.5 L 39.5 153.0 L 38.0 152.5 L 39.0 150.5 L 37.0 149.5 L 38.0 147.5 L 36.0 144.5 Q 38.0 143.5 36.0 142.5 L 36.5 124.0 L 38.0 117.5 L 42.0 107.5 L 47.0 99.5 L 56.5 89.0 L 68.5 82.0 L 74.5 79.0 Z" /><path desc="l 5 p 5" fill="rgb(96,144,20)" stroke="rgb(96,144,20)" stroke-width="1" opacity="0.996078431372549" d="M 91.5 82.0 Q 92.3 83.8 95.5 83.0 L 99.5 83.0 L 102.5 84.0 L 106.0 84.5 L 112.5 87.0 L 120.5 91.0 L 131.0 100.5 L 137.0 109.5 L 140.5 118.0 L 143.0 128.5 L 139.5 131.0 L 138.0 131.5 L 130.0 134.5 L 123.5 138.0 L 113.0 146.5 L 102.0 157.5 L 88.5 183.0 L 83.0 182.5 L 74.5 180.0 L 69.5 177.0 L 61.0 171.5 L 52.0 162.5 L 48.0 155.5 L 45.0 148.5 L 43.0 142.5 L 42.5 139.0 L 42.0 128.5 L 45.0 117.5 L 51.5 105.0 L 64.5 91.0 L 71.5 87.0 L 81.5 84.0 Q 82.3 82.3 85.5 83.0 L 88.5 83.0 L 91.5 82.0 Z" /><path desc="l 5 p 6" fill="rgb(96,144,20)" stroke="rgb(96,144,20)" stroke-width="1" opacity="0.996078431372549" d="M 83.5 91.0 L 95.5 91.0 L 101.0 91.5 L 102.5 92.0 L 111.5 96.0 L 119.5 101.0 L 126.0 107.5 L 133.0 122.5 L 121.5 130.0 L 114.5 134.0 L 109.0 138.5 L 99.0 147.5 L 92.5 156.0 L 83.5 173.0 L 79.0 172.5 L 76.0 171.5 L 70.5 168.0 L 64.5 164.0 L 59.0 158.5 L 54.0 149.5 L 52.0 145.5 L 51.0 141.5 L 50.0 130.5 L 51.0 127.5 L 52.0 120.5 L 55.5 113.0 L 59.0 108.5 L 69.5 97.0 L 83.5 91.0 Z" /><path desc="l 7 p 1" fill="rgb(0,0,0)" stroke="rgb(0,0,0)" stroke-width="1" opacity="0.0" d="M 107.5 91.0 L 114.5 95.0 L 124.0 101.5 L 129.5 109.0 L 134.0 117.5 L 133.0 117.5 L 127.5 108.0 L 119.5 99.0 L 110.5 93.0 L 108.5 92.0 Q 106.1 91.9 107.5 91.0 Z" /><path desc="l 1 p 5" fill="rgb(217,233,191)" stroke="rgb(217,233,191)" stroke-width="1" opacity="0.996078431372549" d="M 84.5 96.0 L 100.0 96.5 L 107.5 99.0 L 120.0 108.5 L 127.0 120.5 L 115.0 127.5 L 106.5 134.0 L 93.0 146.5 L 80.5 167.0 L 77.5 166.0 L 71.5 163.0 L 64.0 156.5 L 59.5 149.0 L 57.0 143.5 L 56.0 139.5 L 55.5 137.0 L 55.0 130.5 L 58.0 121.5 L 60.5 115.0 L 65.0 108.5 L 71.5 102.0 L 84.5 96.0 Z" /><path desc="l 0 p 2" fill="rgb(161,199,101)" stroke="rgb(161,199,101)" stroke-width="1" opacity="0.996078431372549" d="M 89.5 100.0 L 96.5 101.0 L 100.0 101.5 L 105.0 103.5 L 111.0 106.5 L 118.0 112.5 L 121.0 118.5 L 119.0 119.5 L 118.5 121.0 L 104.5 130.0 L 91.0 142.5 L 83.0 153.5 L 78.5 162.0 L 74.0 159.5 L 67.0 153.5 L 61.5 144.0 L 60.0 139.5 L 59.0 132.5 L 60.0 129.5 L 61.0 123.5 L 66.0 114.5 L 72.5 107.0 L 84.5 101.0 L 87.5 101.0 L 89.5 100.0 Z" /><path desc="l 5 p 7" fill="rgb(96,144,20)" stroke="rgb(96,144,20)" stroke-width="1" opacity="0.996078431372549" d="M 176.5 128.0 L 179.0 128.5 L 181.0 132.5 L 183.0 139.5 L 183.5 142.0 L 184.0 150.5 L 183.0 153.5 L 182.0 159.5 L 177.5 168.0 L 173.0 174.5 L 164.5 183.0 L 159.5 186.0 L 154.5 187.0 L 150.0 182.5 L 148.0 181.5 L 141.5 181.0 L 135.5 183.0 L 130.5 184.0 L 125.5 176.0 L 124.5 174.0 L 124.0 170.5 L 151.5 153.0 L 163.5 146.0 L 171.0 139.5 L 176.5 128.0 Z" /><path desc="l 7 p 2" fill="rgb(0,0,0)" stroke="rgb(0,0,0)" stroke-width="1" opacity="0.0" d="M 123.5 130.0 L 122.5 132.0 L 111.5 140.0 L 99.0 151.5 L 91.5 163.0 L 85.0 175.5 L 85.5 177.0 L 74.0 172.5 L 75.5 172.0 L 78.0 173.5 L 83.5 174.0 L 91.0 162.5 L 94.0 156.5 L 99.5 150.0 L 107.5 141.0 L 123.5 130.0 Z" /><path desc="l 3 p 2" fill="rgb(245,248,240)" stroke="rgb(245,248,240)" stroke-width="1" opacity="0.10588235294117647" d="M 115.5 134.0 L 114.5 137.0 L 112.5 140.0 L 112.5 138.0 L 110.0 139.5 L 110.5 141.0 L 108.5 143.0 L 99.5 152.0 L 98.0 151.5 L 96.0 152.5 L 100.5 148.0 L 103.0 146.5 L 104.5 146.0 L 109.0 141.5 L 108.5 140.0 L 111.5 137.0 L 115.5 134.0 Z" /><path desc="l 1 p 6" fill="rgb(217,233,191)" stroke="rgb(217,233,191)" stroke-width="1" opacity="0.996078431372549" d="M 177.5 139.0 L 178.0 154.5 L 176.5 158.0 L 171.5 168.0 L 162.5 178.0 L 156.5 182.0 L 153.0 178.5 L 148.5 176.0 L 143.5 175.0 L 132.5 178.0 L 130.0 172.5 L 160.5 154.0 L 167.0 149.5 L 176.0 141.5 L 177.5 139.0 Z" /><path desc="l 0 p 3" fill="rgb(161,199,101)" stroke="rgb(161,199,101)" stroke-width="1" opacity="0.996078431372549" d="M 173.5 150.0 L 174.0 153.5 L 171.0 160.5 L 166.0 168.5 L 158.5 176.0 L 156.0 175.5 L 152.5 173.0 L 142.5 171.0 L 141.0 171.5 L 151.5 164.0 L 173.5 150.0 Z" /><path desc="l 3 p 3" fill="rgb(245,248,240)" stroke="rgb(245,248,240)" stroke-width="1" opacity="0.10588235294117647" d="M 53.5 153.0 L 56.0 154.5 L 58.0 157.5 L 57.5 159.0 L 72.0 170.5 L 72.5 172.0 L 74.0 171.5 L 74.5 173.0 L 76.5 172.0 L 76.5 174.0 L 78.5 173.0 L 77.5 175.0 L 69.0 170.5 L 68.5 169.0 Q 67.3 171.3 66.0 168.5 L 64.5 166.0 Q 63.5 168.0 62.5 166.0 L 59.0 162.5 Q 61.3 161.3 58.5 160.0 L 55.0 157.5 L 55.5 156.0 L 54.0 155.5 L 54.5 154.0 Q 52.1 153.9 53.5 153.0 Z" /></svg>