<svg width="200" height="200" version="1.1" xmlns="http://www.w3.org/2000/svg" desc="Created with ImageTracer.java version 1.1.2" ><path desc="l 7 p 0" fill="rgb(0,0,0)" stroke="rgb(0,0,0)" stroke-width="1" opacity="0.0" d="M 0.5 0.0 L 97.0 0.5 L 92.5 16.0 L 85.5 44.0 Q 83.0 43.0 84.0 38.5 L 83.5 33.0 L 83.0 31.5 L 82.0 25.5 L 81.5 21.0 L 79.0 12.5 L 79.0 9.5 Q 79.5 6.5 77.5 6.0 L 62.0 20.5 L 63.0 25.5 L 66.0 32.5 L 73.0 50.5 L 71.0 49.5 L 50.5 15.0 L 50.0 32.5 L 49.5 40.0 L 46.5 43.0 L 36.0 55.5 L 29.5 66.0 L 26.0 73.5 L 24.5 79.0 L 22.5 86.0 L 22.0 93.5 L 22.0 114.5 L 25.0 123.5 L 27.0 128.5 L 31.0 135.5 L 38.0 145.5 L 47.5 155.0 L 56.5 161.0 L 73.5 170.0 L 76.0 164.5 L 58.0 150.5 L 48.5 136.0 L 45.0 128.5 L 43.0 119.5 L 42.5 116.0 L 42.0 104.5 L 43.0 102.5 L 43.0 98.5 L 46.0 88.5 L 51.0 77.5 L 55.5 70.0 L 66.5 58.0 L 73.0 54.5 L 73.5 52.0 L 74.5 54.0 L 84.5 45.0 L 85.0 47.5 L 70.0 105.5 L 89.0 129.5 L 75.0 139.5 L 99.0 199.5 L 0.5 200.0 L 0.5 0.0 Z" /><path desc="l 5 p 0" fill="rgb(195,132,3)" stroke="rgb(195,132,3)" stroke-width="1" opacity="0.9921568627450981" d="M 98.5 0.0 L 103.0 0.5 L 105.0 10.5 L 108.5 25.0 L 121.5 77.0 L 126.0 94.5 L 127.5 101.0 L 128.0 106.5 L 109.0 130.5 L 124.0 140.5 L 100.5 198.0 L 99.0 197.5 L 85.0 162.5 L 79.5 148.0 L 78.0 144.5 L 77.0 139.5 L 91.0 130.5 L 77.0 112.5 L 73.5 108.0 L 72.5 106.0 L 72.0 101.5 L 91.0 27.5 L 96.0 7.5 L 97.0 3.5 Q 96.5 0.5 98.5 0.0 Z" /><path desc="l 7 p 1" fill="rgb(0,0,0)" stroke="rgb(0,0,0)" stroke-width="1" opacity="0.0" d="M 103.5 0.0 L 200.0 0.5 L 199.5 200.0 L 101.0 199.5 L 125.0 139.5 L 111.0 129.5 L 125.0 112.5 L 127.5 109.0 L 129.5 106.0 L 130.0 103.5 L 115.0 45.5 L 117.0 46.5 L 122.0 51.5 L 123.5 53.0 Q 124.8 55.3 126.0 52.5 L 131.5 40.0 L 132.0 38.5 L 132.5 36.0 L 134.5 33.0 L 137.0 26.5 L 138.0 21.5 L 130.5 13.0 L 122.5 6.0 Q 120.5 6.5 121.0 9.5 L 118.0 24.5 L 116.0 36.5 L 114.5 43.0 L 107.5 15.0 L 103.5 0.0 Z" /><path desc="l 5 p 1" fill="rgb(195,132,3)" stroke="rgb(195,132,3)" stroke-width="1" opacity="0.9921568627450981" d="M 77.5 7.0 L 84.0 43.5 L 82.5 46.0 L 75.5 52.0 L 72.0 44.5 L 63.0 21.5 L 77.5 7.0 Z" /><path desc="l 5 p 2" fill="rgb(195,132,3)" stroke="rgb(195,132,3)" stroke-width="1" opacity="0.9921568627450981" d="M 122.5 7.0 L 133.0 17.5 L 136.0 20.5 L 137.0 23.5 L 132.0 34.5 L 124.5 53.0 L 116.0 42.5 L 117.0 39.5 L 118.0 33.5 L 122.5 7.0 Z" /><path desc="l 0 p 0" fill="rgb(234,214,175)" stroke="rgb(234,214,175)" stroke-width="1" opacity="0.996078431372549" d="M 100.5 14.0 L 123.0 104.5 L 101.0 131.5 L 117.0 141.5 L 112.0 155.5 L 100.5 184.0 L 99.0 183.5 L 83.0 142.5 L 99.0 131.5 L 77.0 103.5 L 94.0 37.5 L 98.0 21.5 L 99.0 17.5 Q 98.5 14.5 100.5 14.0 Z" /><path desc="l 3 p 0" fill="rgb(229,202,146)" stroke="rgb(229,202,146)" stroke-width="1" opacity="0.5843137254901961" d="M 50.5 17.0 L 52.5 20.0 L 51.0 19.5 L 51.0 34.5 L 51.0 38.5 Q 51.5 41.5 49.5 42.0 L 43.5 48.0 L 44.5 46.0 L 50.0 40.5 L 50.5 17.0 Z" /><path desc="l 5 p 3" fill="rgb(195,132,3)" stroke="rgb(195,132,3)" stroke-width="1" opacity="0.9921568627450981" d="M 51.5 19.0 L 72.0 53.5 L 68.0 55.5 L 58.0 64.5 L 53.0 71.5 L 47.5 82.0 L 46.0 86.5 L 43.0 94.5 L 41.5 103.0 L 41.0 118.5 L 44.5 131.0 L 48.0 137.5 L 53.0 145.5 L 61.5 155.0 L 75.0 164.5 L 72.5 169.0 L 64.0 164.5 L 49.0 154.5 L 42.0 148.5 L 34.5 139.0 L 29.5 131.0 L 24.5 118.0 L 22.5 107.0 L 22.0 95.5 Q 23.8 94.8 23.0 91.5 L 25.0 81.5 L 29.0 70.5 L 32.0 64.5 L 40.0 52.5 L 47.5 44.0 L 50.0 41.5 L 51.0 39.5 L 51.0 34.5 L 51.5 19.0 Z" /><path desc="l 5 p 4" fill="rgb(195,132,3)" stroke="rgb(195,132,3)" stroke-width="1" opacity="0.9921568627450981" d="M 148.5 19.0 L 149.0 34.5 L 149.5 41.0 L 152.5 44.0 L 161.0 53.5 L 169.0 66.5 L 172.0 73.5 L 176.0 85.5 L 177.5 95.0 L 178.0 105.5 L 177.0 107.5 L 177.0 112.5 L 173.5 124.0 L 169.0 133.5 L 161.0 144.5 L 156.5 150.0 L 144.0 159.5 L 127.5 169.0 L 125.0 164.5 L 135.0 157.5 L 145.0 148.5 L 148.0 144.5 L 155.0 131.5 L 157.0 126.5 L 158.5 119.0 L 159.0 103.5 L 158.0 101.5 L 158.0 97.5 L 155.0 87.5 L 149.5 76.0 L 142.0 65.5 L 134.5 57.0 L 128.0 53.5 L 148.5 19.0 Z" /><path desc="l 6 p 0" fill="rgb(216,178,98)" stroke="rgb(216,178,98)" stroke-width="1" opacity="0.9803921568627451" d="M 99.5 33.0 L 101.0 33.5 L 102.0 39.5 L 105.0 51.5 L 114.5 90.0 L 118.0 102.5 L 100.5 124.0 L 97.0 122.5 L 85.5 108.0 L 83.5 105.0 Q 81.3 104.3 82.0 100.5 L 93.5 56.0 L 98.0 38.5 L 99.5 33.0 Z" /><path desc="l 0 p 1" fill="rgb(234,214,175)" stroke="rgb(234,214,175)" stroke-width="1" opacity="0.996078431372549" d="M 143.5 37.0 L 144.0 40.5 L 144.5 44.0 L 147.0 46.5 L 157.0 56.5 L 165.0 70.5 L 170.0 82.5 L 171.5 89.0 L 172.0 93.5 L 173.0 104.5 Q 171.3 105.3 172.0 108.5 L 171.0 114.5 L 168.0 123.5 L 164.5 131.0 L 155.5 143.0 L 157.0 140.5 L 162.0 127.5 L 163.5 120.0 L 164.0 101.5 L 163.0 99.5 L 163.0 96.5 L 159.0 85.5 L 157.0 80.5 L 150.5 68.0 L 147.0 63.5 L 136.5 52.0 L 135.0 51.5 L 143.5 37.0 Z" /><path desc="l 0 p 2" fill="rgb(234,214,175)" stroke="rgb(234,214,175)" stroke-width="1" opacity="0.996078431372549" d="M 56.5 38.0 L 65.0 51.5 L 52.0 63.5 L 44.0 77.5 L 40.0 85.5 L 38.0 92.5 L 36.5 101.0 L 36.0 120.5 L 37.0 123.5 L 38.0 128.5 L 44.0 141.5 L 41.0 139.5 L 33.0 126.5 L 30.0 118.5 L 29.0 113.5 L 28.0 107.5 L 27.0 99.5 Q 28.8 98.8 28.0 95.5 L 28.5 90.0 L 29.0 88.5 L 30.5 81.0 L 33.0 74.5 L 38.0 64.5 L 42.5 58.0 L 52.0 47.5 L 55.0 44.5 L 56.0 41.5 L 56.5 38.0 Z" /><path desc="l 6 p 1" fill="rgb(216,178,98)" stroke="rgb(216,178,98)" stroke-width="1" opacity="0.9803921568627451" d="M 57.5 48.0 L 58.0 50.5 L 48.5 61.0 L 40.5 74.0 L 33.5 92.0 L 33.0 88.5 L 39.0 72.5 L 46.0 60.5 L 57.5 48.0 Z" /><path desc="l 6 p 2" fill="rgb(216,178,98)" stroke="rgb(216,178,98)" stroke-width="1" opacity="0.9803921568627451" d="M 142.5 49.0 L 150.0 55.5 L 159.0 68.5 L 163.0 76.5 L 165.0 82.5 L 166.5 88.0 L 167.0 92.5 L 166.0 92.5 L 165.0 86.5 L 163.0 82.5 L 162.0 78.5 L 158.0 71.5 L 151.0 60.5 L 142.5 51.0 L 141.0 50.5 L 142.5 49.0 Z" /><path desc="l 4 p 0" fill="rgb(254,253,250)" stroke="rgb(254,253,250)" stroke-width="1" opacity="0.13725490196078433" d="M 129.5 103.0 L 130.0 105.5 L 111.0 129.5 L 112.5 132.0 L 111.0 130.5 L 110.5 129.0 L 112.0 127.5 L 124.0 112.5 L 126.0 109.5 L 128.0 107.5 L 129.5 103.0 Z" /><path desc="l 6 p 3" fill="rgb(216,178,98)" stroke="rgb(216,178,98)" stroke-width="1" opacity="0.9803921568627451" d="M 97.5 137.0 Q 102.5 136.0 103.5 139.0 L 111.0 143.5 L 109.0 149.5 L 107.0 154.5 L 100.5 172.0 L 99.0 171.5 L 92.0 154.5 L 90.0 149.5 L 89.0 143.5 L 97.5 137.0 Z" /></svg>