<svg width="200" height="200" version="1.1" xmlns="http://www.w3.org/2000/svg" desc="Created with ImageTracer.java version 1.1.2" ><path desc="l 5 p 0" fill="rgb(5,0,0)" stroke="rgb(5,0,0)" stroke-width="1" opacity="0.00392156862745098" d="M 0.5 0.0 L 71.0 0.5 L 63.5 2.0 L 56.0 4.5 L 44.0 10.5 L 28.0 23.5 L 23.0 29.5 L 11.5 46.0 L 0.5 68.0 L 0.5 0.0 Z" /><path desc="l 5 p 1" fill="rgb(5,0,0)" stroke="rgb(5,0,0)" stroke-width="1" opacity="0.00392156862745098" d="M 87.5 0.0 L 200.0 0.5 L 199.5 91.0 L 197.0 80.5 L 194.5 72.0 L 192.0 66.5 L 189.0 59.5 L 185.0 52.5 L 179.5 43.0 L 170.5 31.0 L 166.0 34.5 L 170.0 42.5 L 172.5 49.0 L 178.0 62.5 L 179.0 67.5 L 182.0 77.5 L 182.5 83.0 L 183.0 100.5 L 180.5 109.0 L 180.0 99.5 L 179.0 91.5 L 175.0 79.5 L 171.5 74.0 Q 167.8 73.3 167.0 75.5 L 166.0 95.5 L 166.0 100.5 L 165.0 103.5 L 164.5 110.0 L 164.0 112.5 L 163.0 116.5 L 162.5 119.0 L 160.0 123.5 L 155.0 131.5 L 148.5 138.0 L 140.5 143.0 L 135.0 145.5 L 128.0 147.5 L 111.5 148.0 L 107.5 146.0 L 105.5 145.0 L 101.0 141.5 L 98.5 134.0 L 98.0 119.5 L 99.5 119.0 L 102.5 120.0 L 108.5 121.0 L 113.0 121.5 L 122.5 122.0 L 129.5 120.0 L 135.5 117.0 L 140.0 113.5 L 147.0 106.5 L 154.0 92.5 L 155.5 84.0 L 156.0 65.5 L 153.0 54.5 L 150.0 45.5 L 145.0 36.5 L 137.5 26.0 L 120.5 13.0 L 109.5 7.0 L 103.5 5.0 L 92.5 1.0 L 88.5 1.0 Q 86.1 0.9 87.5 0.0 Z" /><path desc="l 6 p 0" fill="rgb(170,1,1)" stroke="rgb(170,1,1)" stroke-width="1" opacity="0.984313725490196" d="M 69.5 1.0 L 90.0 1.5 L 94.5 2.0 L 114.5 10.0 L 125.5 17.0 L 140.0 29.5 L 146.0 38.5 L 150.5 48.0 L 153.0 55.5 L 154.5 62.0 L 155.0 66.5 L 156.0 77.5 Q 154.3 78.3 155.0 81.5 L 154.0 87.5 L 153.5 91.0 L 151.0 97.5 L 146.5 106.0 L 140.5 113.0 L 131.5 119.0 L 127.5 120.0 L 121.5 121.0 L 109.5 121.0 L 106.5 120.0 L 97.5 119.0 L 97.0 131.5 Q 98.8 132.3 98.0 135.5 L 102.5 144.0 L 107.5 147.0 L 113.0 148.5 L 125.5 149.0 L 134.0 146.5 L 141.5 143.0 L 147.5 139.0 L 156.0 131.5 L 160.0 125.5 L 163.0 118.5 L 165.5 108.0 L 166.0 101.5 L 167.0 96.5 L 167.0 82.5 L 167.5 77.0 L 169.5 74.0 L 173.0 76.5 L 176.0 83.5 L 178.5 92.0 L 179.5 98.0 L 180.0 108.5 L 179.0 111.5 L 180.0 111.5 L 182.0 105.5 L 183.0 100.5 L 183.5 97.0 L 184.0 88.5 L 183.0 86.5 L 183.0 81.5 L 177.0 58.5 L 167.0 34.5 L 170.5 32.0 L 181.5 47.0 L 189.5 62.0 L 193.5 71.0 L 196.5 80.0 L 198.5 89.0 L 199.5 96.0 L 200.0 108.5 Q 198.3 109.3 199.0 112.5 L 197.0 123.5 L 192.0 133.5 L 185.0 143.5 L 176.5 153.0 L 170.0 157.5 L 156.5 165.0 L 150.5 168.0 L 141.0 171.5 L 132.0 173.5 L 118.5 174.0 L 115.5 173.0 L 107.5 172.0 L 94.5 167.0 L 89.5 164.0 L 81.0 158.5 L 75.0 153.5 L 68.0 142.5 L 65.0 136.5 L 64.0 132.5 L 63.5 130.0 L 63.0 118.5 L 66.0 111.5 L 70.5 104.0 L 81.0 90.5 L 77.0 87.5 L 71.0 84.5 L 65.0 82.5 L 58.5 82.0 L 55.0 83.5 L 46.0 91.5 L 41.5 101.0 L 39.0 109.5 L 39.0 114.5 L 38.0 117.5 Q 39.8 118.3 39.0 121.5 L 40.0 129.5 L 43.0 138.5 L 48.5 147.0 L 56.5 155.0 L 84.0 173.5 Q 84.5 176.5 82.5 177.0 L 73.0 176.5 L 65.0 174.5 L 55.5 171.0 L 47.5 166.0 L 49.0 168.5 L 55.5 175.0 L 60.5 178.0 L 72.0 183.5 L 82.5 187.0 L 89.0 188.5 L 93.5 189.0 L 96.5 190.0 L 100.0 190.5 L 120.0 193.5 L 119.5 198.0 L 105.5 199.0 L 80.5 199.0 L 78.5 198.0 L 74.5 198.0 L 71.5 197.0 L 61.5 195.0 L 50.5 191.0 L 39.5 184.0 L 35.5 181.0 L 26.0 172.5 L 22.0 166.5 L 17.0 156.5 L 15.0 151.5 L 13.0 141.5 L 12.5 140.0 L 12.0 134.5 L 11.0 123.5 L 12.0 121.5 L 12.0 118.5 L 13.0 107.5 L 14.0 102.5 L 16.0 95.5 L 19.5 88.0 L 24.0 81.5 L 34.5 69.0 L 49.0 59.5 L 59.5 55.0 L 66.0 53.5 L 80.5 53.0 L 89.5 56.0 L 95.0 58.5 L 103.0 65.5 L 108.0 74.5 L 113.5 89.0 L 116.5 88.0 L 122.0 84.5 L 128.0 79.5 L 131.0 73.5 L 132.0 68.5 L 131.0 65.5 L 130.0 60.5 L 127.5 56.0 L 124.0 51.5 L 116.5 43.0 L 109.0 38.5 L 97.5 34.0 L 85.5 32.0 L 83.5 33.0 L 79.5 33.0 L 70.5 36.0 L 60.0 40.5 L 39.5 51.0 L 37.0 47.5 L 43.0 38.5 L 50.5 31.0 L 65.0 22.5 L 62.5 22.0 L 53.5 25.0 L 44.5 30.0 L 34.5 37.0 L 20.0 51.5 L 4.5 72.0 L 0.0 69.5 L 5.0 59.5 L 9.0 51.5 L 14.0 43.5 L 23.5 30.0 L 34.5 18.0 L 44.5 11.0 L 53.5 6.0 L 64.0 2.5 L 69.5 1.0 Z" /><path desc="l 4 p 0" fill="rgb(242,210,210)" stroke="rgb(242,210,210)" stroke-width="1" opacity="0.996078431372549" d="M 69.5 6.0 L 83.5 6.0 L 91.5 7.0 L 95.5 8.0 L 103.0 10.5 L 110.0 13.5 L 124.0 22.5 L 136.0 32.5 L 144.5 47.0 L 149.0 59.5 L 151.0 76.5 Q 149.3 77.3 150.0 80.5 L 149.0 88.5 L 146.0 96.5 L 143.5 101.0 L 133.5 112.0 L 125.0 115.5 L 109.5 116.0 L 106.5 115.0 L 93.5 113.0 L 92.0 120.5 L 92.0 131.5 L 93.0 133.5 L 93.0 136.5 L 95.0 140.5 L 99.5 148.0 L 108.5 153.0 L 112.0 153.5 L 126.5 154.0 L 137.0 150.5 L 144.0 147.5 L 150.0 143.5 L 160.0 134.5 L 165.0 126.5 L 168.5 118.0 L 169.5 114.0 L 170.0 108.5 L 171.0 106.5 L 171.0 103.5 L 172.5 89.0 L 174.5 99.0 L 175.0 108.5 L 174.0 110.5 L 174.0 113.5 L 171.5 120.0 L 165.0 131.5 L 166.5 133.0 L 169.5 134.0 L 181.0 120.5 L 185.0 112.5 L 187.5 104.0 L 188.5 98.0 L 189.0 87.5 L 188.0 85.5 L 188.0 80.5 L 183.0 61.5 L 184.0 61.5 L 191.0 79.5 L 193.5 90.0 L 194.5 97.0 L 195.0 107.5 Q 193.3 108.3 194.0 111.5 L 192.0 120.5 L 190.0 126.5 L 184.5 136.0 L 181.0 140.5 L 173.5 149.0 L 154.5 161.0 L 140.0 166.5 L 131.0 168.5 L 119.5 169.0 Q 118.8 167.3 115.5 168.0 L 102.5 165.0 L 88.0 157.5 L 75.0 145.5 L 70.5 137.0 L 68.5 129.0 L 68.0 119.5 L 70.0 115.5 L 72.0 110.5 L 77.0 103.5 L 88.0 89.5 L 77.0 81.5 L 67.5 78.0 L 65.0 77.5 L 57.5 77.0 L 48.5 82.0 L 42.0 88.5 L 37.0 98.5 L 34.0 108.5 L 33.0 119.5 Q 34.8 120.3 34.0 123.5 L 34.5 128.0 L 36.0 133.5 L 39.0 141.5 L 41.0 145.5 L 45.0 150.5 L 53.5 159.0 L 71.0 170.5 L 69.5 171.0 L 59.5 167.0 L 52.0 162.5 L 44.0 155.5 L 37.5 143.0 L 34.0 143.5 L 32.0 144.5 L 35.5 156.0 L 40.0 164.5 L 44.5 171.0 L 52.5 179.0 L 58.5 183.0 L 71.0 188.5 L 88.0 193.5 L 81.5 194.0 Q 80.8 192.3 77.5 193.0 L 71.5 192.0 L 68.5 191.0 L 63.5 190.0 L 54.5 187.0 L 45.5 182.0 L 38.5 177.0 L 31.0 170.5 L 24.0 159.5 L 20.0 150.5 L 19.0 146.5 L 18.0 140.5 L 17.0 138.5 L 17.0 135.5 L 17.0 130.5 L 16.0 126.5 L 17.0 124.5 L 17.0 120.5 L 17.5 112.0 L 18.0 109.5 L 20.0 99.5 L 23.0 91.5 L 28.0 83.5 L 36.5 74.0 L 40.0 71.5 L 51.5 64.0 L 57.5 61.0 L 64.5 59.0 L 67.0 58.5 L 79.5 58.0 L 86.5 60.0 L 93.5 64.0 L 99.0 68.5 L 106.5 84.0 L 110.5 96.0 L 123.5 90.0 L 132.0 82.5 L 135.0 77.5 L 136.5 72.0 L 137.0 67.5 L 134.0 58.5 L 129.5 50.0 L 119.5 39.0 L 110.5 34.0 L 101.5 30.0 L 95.5 28.0 L 84.5 27.0 L 82.5 28.0 L 78.5 28.0 L 65.5 32.0 L 48.5 41.0 L 49.0 39.5 L 53.5 35.0 L 64.5 28.0 L 71.5 26.0 L 74.0 25.5 L 86.5 25.0 L 88.5 26.0 L 89.5 24.0 L 90.0 20.5 L 78.0 17.5 L 62.5 17.0 L 56.5 19.0 L 49.0 21.5 L 40.0 26.5 L 25.0 38.5 L 18.5 46.0 L 20.0 43.5 L 27.5 33.0 L 36.5 23.0 L 47.5 15.0 L 57.5 10.0 L 69.5 6.0 Z" /><path desc="l 0 p 0" fill="rgb(211,103,103)" stroke="rgb(211,103,103)" stroke-width="1" opacity="0.996078431372549" d="M 73.5 11.0 L 87.0 11.5 L 93.5 13.0 L 102.5 16.0 L 109.5 19.0 L 120.5 26.0 L 134.0 38.5 L 138.0 46.5 L 141.0 52.5 L 142.5 57.0 L 144.5 65.0 L 145.0 69.5 L 145.0 84.5 L 142.5 92.0 L 138.0 99.5 L 131.5 107.0 L 129.0 108.5 L 123.0 110.5 L 111.5 111.0 L 108.5 110.0 L 99.0 108.5 L 92.5 108.0 L 88.0 113.5 L 87.0 120.5 L 87.0 133.5 L 89.0 140.5 L 93.0 147.5 L 98.5 154.0 L 104.5 157.0 L 112.5 159.0 L 117.5 159.0 L 120.5 160.0 Q 121.3 158.3 124.5 159.0 L 130.5 158.0 L 142.5 154.0 L 149.0 150.5 L 153.5 147.0 L 159.5 142.0 Q 160.5 139.0 165.5 140.0 L 171.0 139.5 L 173.5 137.0 L 182.0 128.5 L 184.5 124.0 L 185.0 125.5 L 176.0 138.5 L 166.5 148.0 L 146.5 159.0 L 139.5 161.0 L 135.0 162.5 L 129.5 163.0 L 115.5 163.0 L 103.5 159.0 L 100.5 158.0 L 92.5 154.0 L 88.5 151.0 L 80.0 143.5 L 75.0 134.5 L 73.5 128.0 L 73.0 121.5 L 75.5 115.0 L 84.5 103.0 L 88.5 98.0 L 91.5 94.0 L 93.0 89.5 L 92.0 87.5 L 86.5 81.0 L 74.5 75.0 L 67.0 72.5 L 55.5 72.0 L 50.0 74.5 L 46.5 77.0 L 38.0 84.5 L 33.5 93.0 L 31.0 100.5 L 29.0 109.5 L 28.5 113.0 L 28.0 121.5 Q 29.8 122.3 29.0 125.5 L 31.0 136.5 L 28.0 140.5 L 27.0 146.5 L 30.5 157.0 L 33.0 162.5 L 31.0 161.5 L 26.0 151.5 L 23.0 141.5 L 22.5 139.0 L 22.0 132.5 L 22.0 113.5 L 23.0 110.5 L 24.0 102.5 L 30.5 90.0 L 35.0 84.5 L 43.5 75.0 L 55.5 68.0 L 61.5 65.0 L 65.5 64.0 L 68.0 63.5 L 78.5 63.0 L 81.5 64.0 L 86.0 65.5 L 93.0 69.5 L 98.5 79.0 L 103.0 89.5 L 105.0 95.5 L 108.5 100.0 L 113.5 100.0 L 116.5 99.0 L 124.0 95.5 L 130.5 91.0 L 137.0 84.5 L 141.0 76.5 L 142.0 72.5 L 142.0 64.5 L 140.0 57.5 L 136.5 51.0 L 132.0 44.5 L 121.5 34.0 L 107.0 26.5 L 98.0 23.5 L 96.0 19.5 L 93.5 16.0 L 79.5 12.0 L 75.5 12.0 Q 72.5 12.5 73.5 11.0 Z" /><path desc="l 5 p 2" fill="rgb(5,0,0)" stroke="rgb(5,0,0)" stroke-width="1" opacity="0.00392156862745098" d="M 60.5 23.0 L 62.0 23.5 L 51.5 30.0 L 42.0 38.5 L 38.0 44.5 L 37.0 46.5 L 37.0 49.5 Q 37.8 51.8 41.5 51.0 L 63.0 39.5 L 74.5 35.0 L 81.0 33.5 L 91.5 33.0 L 101.5 36.0 L 110.5 40.0 L 114.5 43.0 L 125.0 52.5 L 130.0 63.5 L 130.5 65.0 L 131.0 72.5 L 129.5 76.0 L 122.5 84.0 L 114.5 88.0 L 112.5 84.0 L 110.0 76.5 L 104.0 66.5 L 98.5 60.0 L 85.5 54.0 L 78.0 52.5 L 70.5 52.0 L 67.5 53.0 L 63.0 53.5 L 55.5 56.0 L 50.5 58.0 L 40.5 64.0 L 24.0 79.5 L 17.0 91.5 L 14.5 98.0 L 13.0 104.5 L 11.5 115.0 L 11.0 136.5 Q 12.8 137.3 12.0 140.5 L 13.0 147.5 L 17.5 159.0 L 22.5 168.0 L 31.5 179.0 L 40.0 185.5 L 49.5 191.0 L 67.5 197.0 L 76.0 198.5 L 85.0 199.5 L 0.5 200.0 L 0.0 71.5 L 1.5 71.0 L 4.5 72.0 L 13.5 61.0 L 31.5 40.0 L 44.5 30.0 L 52.5 26.0 L 60.5 23.0 Z" /><path desc="l 5 p 3" fill="rgb(5,0,0)" stroke="rgb(5,0,0)" stroke-width="1" opacity="0.00392156862745098" d="M 57.5 83.0 L 66.0 83.5 L 70.5 85.0 L 76.0 87.5 L 80.0 90.5 L 71.0 102.5 L 65.0 111.5 L 63.0 118.5 L 62.0 126.5 L 65.0 137.5 L 68.5 145.0 L 73.5 152.0 L 81.5 160.0 L 92.0 166.5 L 99.5 170.0 L 111.5 173.0 L 119.5 174.0 L 134.5 174.0 L 151.0 168.5 L 168.0 159.5 L 184.0 146.5 L 193.0 132.5 L 196.5 125.0 L 199.5 114.0 L 200.0 199.5 L 109.5 200.0 L 109.5 199.0 L 116.5 199.0 L 121.0 197.5 L 120.5 193.0 L 115.5 192.0 L 107.5 191.0 L 89.5 188.0 L 73.5 184.0 L 64.0 179.5 L 55.0 173.5 L 50.0 169.5 L 50.5 168.0 L 54.5 171.0 L 64.5 175.0 L 70.5 177.0 L 81.5 178.0 L 84.0 176.5 L 85.0 174.5 L 82.5 171.0 L 63.5 159.0 L 50.0 148.5 L 48.0 145.5 L 45.0 141.5 L 41.0 131.5 L 39.5 124.0 L 39.0 111.5 L 40.0 108.5 L 41.0 103.5 L 43.0 97.5 L 49.5 88.0 L 57.5 83.0 Z" /></svg>