<svg width="200" height="200" version="1.1" xmlns="http://www.w3.org/2000/svg" desc="Created with ImageTracer.java version 1.1.2" ><path desc="l 0 p 0" fill="rgb(254,254,254)" stroke="rgb(254,254,254)" stroke-width="1" opacity="0.0" d="M 0.5 0.0 L 200.0 0.5 L 199.5 200.0 L 0.0 199.5 L 0.5 0.0 Z" /><path desc="l 6 p 0" fill="rgb(140,77,85)" stroke="rgb(140,77,85)" stroke-width="1" opacity="0.9921568627450981" d="M 30.5 9.0 L 36.0 11.5 L 37.0 16.5 L 36.5 18.0 L 38.0 19.5 L 45.5 27.0 L 78.5 58.0 L 104.5 36.0 L 116.0 46.5 L 105.5 58.0 L 93.0 69.5 L 93.5 72.0 L 107.5 82.0 L 131.0 55.5 L 128.0 51.5 L 157.5 20.0 L 161.5 22.0 L 164.5 23.0 L 167.5 19.0 L 176.0 27.5 L 178.0 29.5 L 178.5 31.0 L 176.0 33.5 L 175.0 36.5 L 180.5 38.0 L 185.0 41.5 L 195.0 50.5 L 181.5 66.0 L 173.0 59.5 L 170.0 57.5 L 166.5 57.0 L 165.0 59.5 L 169.5 68.0 L 174.0 73.5 L 161.5 87.0 L 159.0 86.5 L 156.5 84.0 L 147.0 75.5 L 145.5 69.0 L 140.0 73.5 L 120.0 96.5 L 164.0 144.5 L 177.5 160.0 L 189.5 175.0 L 194.0 181.5 L 190.0 183.5 L 180.5 184.0 L 154.5 174.0 L 126.5 158.0 L 109.0 145.5 L 89.5 130.0 L 85.0 134.5 Q 82.3 135.3 83.0 139.5 L 87.0 149.5 L 87.5 152.0 L 88.0 163.5 L 86.0 170.5 L 81.0 179.5 L 75.5 186.0 L 67.5 191.0 L 59.0 193.5 L 46.5 194.0 L 39.0 191.5 L 32.0 187.5 L 25.0 181.5 L 19.0 170.5 L 17.5 165.0 L 17.0 150.5 L 19.5 143.0 L 23.5 136.0 L 30.5 128.0 L 39.0 123.5 L 46.0 121.5 L 56.5 121.0 L 62.5 123.0 L 68.5 124.0 L 75.0 116.5 L 68.5 109.0 L 66.5 106.0 L 66.0 98.5 L 67.0 96.5 L 68.0 90.5 L 66.5 91.0 L 63.5 94.0 L 44.5 111.0 L 36.0 101.5 L 34.0 99.5 L 33.0 96.5 L 56.0 76.5 L 55.5 75.0 L 38.5 64.0 L 31.5 58.0 L 20.0 47.5 L 13.5 36.0 L 10.5 37.0 L 8.5 35.0 L 8.0 32.5 L 8.0 24.5 L 9.5 20.0 L 14.5 13.0 L 23.5 10.0 L 27.5 10.0 L 30.5 9.0 Z" /><path desc="l 5 p 0" fill="rgb(194,173,176)" stroke="rgb(194,173,176)" stroke-width="1" opacity="0.996078431372549" d="M 25.5 14.0 L 32.0 14.5 L 32.0 17.5 Q 31.5 20.5 33.5 21.0 L 38.0 25.5 L 55.5 43.0 L 78.5 64.0 L 104.5 42.0 L 109.0 47.5 L 86.0 69.5 L 92.5 77.0 L 103.0 84.5 Q 103.5 87.5 101.5 88.0 L 98.5 86.0 L 96.5 87.0 L 93.5 87.0 L 91.5 86.0 L 82.0 91.5 L 75.0 102.5 L 81.0 109.5 L 78.5 113.0 L 72.0 106.5 L 70.0 102.5 L 72.5 94.0 L 73.0 88.5 L 69.5 83.0 L 54.5 96.0 L 48.5 102.0 L 44.5 104.0 L 39.0 97.5 L 64.0 75.5 L 46.5 64.0 L 34.5 55.0 L 25.0 46.5 L 20.5 40.0 L 17.5 31.0 L 12.5 32.0 L 12.0 28.5 L 13.0 25.5 Q 12.3 22.3 14.0 21.5 L 16.5 17.0 L 25.5 14.0 Z" /><path desc="l 5 p 1" fill="rgb(194,173,176)" stroke="rgb(194,173,176)" stroke-width="1" opacity="0.996078431372549" d="M 158.5 26.0 L 163.5 30.0 L 168.5 26.0 L 171.0 28.5 L 172.0 31.5 L 166.0 38.5 L 169.5 40.0 L 175.5 41.0 L 180.5 44.0 L 186.0 48.5 L 186.5 50.0 L 188.0 50.5 L 186.0 53.5 L 181.5 59.0 L 177.5 57.0 L 174.5 54.0 L 171.0 52.5 L 165.5 52.0 L 161.0 55.5 L 161.0 62.5 L 162.0 66.5 L 167.0 73.5 L 161.5 80.0 L 159.0 79.5 L 157.5 78.0 L 152.0 73.5 L 151.0 68.5 L 150.0 65.5 L 149.0 62.5 Q 149.5 59.5 147.5 59.0 L 138.5 69.0 L 135.0 71.5 L 134.5 73.0 L 131.0 75.5 L 97.0 113.5 L 86.5 125.0 L 79.5 133.0 L 77.5 135.0 L 77.0 137.5 L 82.0 151.5 L 83.0 155.5 L 83.0 162.5 L 81.0 168.5 L 77.0 175.5 L 69.5 184.0 L 61.5 188.0 L 58.0 188.5 L 47.5 189.0 L 41.0 186.5 L 33.5 182.0 L 27.0 175.5 L 23.0 165.5 L 22.5 163.0 L 22.0 152.5 L 23.0 149.5 L 23.5 146.0 L 25.5 141.0 L 34.5 131.0 L 44.5 127.0 L 54.5 126.0 L 63.0 128.5 L 69.5 130.0 L 72.0 128.5 L 107.0 90.5 L 137.0 55.5 L 134.0 51.5 L 158.5 26.0 Z" /><path desc="l 5 p 2" fill="rgb(194,173,176)" stroke="rgb(194,173,176)" stroke-width="1" opacity="0.996078431372549" d="M 116.5 100.0 L 159.0 146.5 L 175.0 164.5 L 183.0 174.5 L 186.0 179.5 L 184.5 179.0 L 180.0 178.5 L 172.5 176.0 L 158.5 170.0 L 138.5 159.0 L 124.5 151.0 L 114.5 144.0 L 93.0 126.5 L 95.5 123.0 L 109.0 134.5 L 120.0 142.5 L 135.0 152.5 L 149.0 160.5 L 167.0 169.5 L 174.5 172.0 L 174.0 170.5 L 171.0 167.5 Q 171.5 164.5 169.5 164.0 L 164.5 159.0 L 146.0 138.5 L 114.0 102.5 L 116.5 100.0 Z" /><path desc="l 6 p 1" fill="rgb(140,77,85)" stroke="rgb(140,77,85)" stroke-width="1" opacity="0.9921568627450981" d="M 50.5 133.0 L 58.5 134.0 L 62.5 136.0 L 70.0 140.5 L 76.0 151.5 L 77.0 158.5 L 75.0 165.5 L 71.5 172.0 L 65.5 178.0 L 56.5 181.0 L 51.5 182.0 L 49.5 181.0 L 46.5 181.0 L 39.0 177.5 L 32.0 171.5 L 29.0 164.5 L 28.0 160.5 L 28.0 152.5 L 30.0 147.5 L 31.5 145.0 L 38.5 137.0 L 50.5 133.0 Z" /><path desc="l 0 p 1" fill="rgb(254,254,254)" stroke="rgb(254,254,254)" stroke-width="1" opacity="0.0" d="M 49.5 139.0 L 56.0 139.5 L 59.5 141.0 L 63.5 143.0 L 68.0 147.5 L 70.0 152.5 L 71.0 159.5 L 69.5 164.0 L 67.0 168.5 L 62.5 173.0 L 55.0 175.5 L 49.5 176.0 L 45.5 174.0 L 38.0 169.5 L 34.5 162.0 L 34.0 152.5 L 40.5 143.0 L 49.5 139.0 Z" /></svg>