<svg width="200" height="200" version="1.1" xmlns="http://www.w3.org/2000/svg" desc="Created with ImageTracer.java version 1.1.2" ><path desc="l 2 p 0" fill="rgb(254,254,254)" stroke="rgb(254,254,254)" stroke-width="1" opacity="0.0" d="M 0.5 0.0 L 200.0 0.5 L 199.5 200.0 L 0.0 199.5 L 0.5 0.0 Z" /><path desc="l 4 p 0" fill="rgb(195,132,3)" stroke="rgb(195,132,3)" stroke-width="1" opacity="0.9921568627450981" d="M 16.5 11.0 L 47.5 47.0 L 55.5 48.0 L 60.5 38.0 L 83.5 36.0 L 89.0 35.5 L 92.0 32.5 L 100.5 22.0 L 112.5 36.0 L 127.5 37.0 L 134.0 37.5 L 141.0 38.5 L 145.5 48.0 L 151.0 47.5 L 152.5 47.0 L 157.0 43.5 L 184.5 11.0 L 188.5 18.0 L 189.5 21.0 L 190.0 29.5 L 188.0 35.5 L 189.5 36.0 L 191.5 34.0 L 193.0 33.5 L 195.0 37.5 L 197.0 46.5 L 195.0 51.5 L 193.0 56.5 L 189.0 61.5 L 190.5 62.0 L 193.5 60.0 L 197.0 70.5 Q 195.3 71.3 196.0 74.5 L 193.5 79.0 L 190.0 83.5 L 192.0 84.5 L 192.5 87.0 L 193.0 96.5 L 186.5 105.0 L 179.5 109.0 L 172.5 112.0 L 162.0 113.5 L 162.0 123.5 L 162.0 126.5 L 161.0 128.5 L 157.0 136.5 L 141.5 168.0 L 106.5 188.0 L 106.0 178.5 L 107.0 175.5 L 107.0 166.5 L 107.0 133.5 L 107.0 120.5 Q 106.0 115.5 109.0 114.5 L 114.5 108.0 L 131.5 101.0 L 144.0 95.5 L 143.5 85.0 L 106.5 98.0 L 100.5 89.0 L 94.5 98.0 L 57.5 85.0 L 57.0 93.5 L 59.5 97.0 L 78.5 105.0 L 85.5 108.0 L 89.0 110.5 L 92.5 115.0 Q 95.0 116.0 94.0 120.5 L 94.0 134.5 L 94.0 187.5 L 92.5 187.0 L 59.0 167.5 L 44.0 137.5 L 40.5 130.0 L 39.5 128.0 L 39.0 123.5 L 38.5 113.0 L 27.5 112.0 L 20.5 109.0 L 11.0 101.5 L 8.5 96.0 L 8.0 88.5 L 9.5 84.0 L 12.5 85.0 L 11.5 83.0 L 7.0 78.5 L 4.0 69.5 L 7.5 60.0 L 11.5 62.0 L 10.0 59.5 L 6.0 52.5 L 5.0 48.5 L 4.0 43.5 L 8.5 33.0 L 12.5 36.0 L 13.0 33.5 L 11.5 30.0 L 11.0 22.5 L 12.0 20.5 L 13.0 17.5 L 16.5 11.0 Z" /><path desc="l 6 p 0" fill="rgb(238,220,183)" stroke="rgb(238,220,183)" stroke-width="1" opacity="0.996078431372549" d="M 17.5 19.0 L 45.5 52.0 L 58.5 54.0 L 63.5 43.0 L 65.0 42.5 L 70.5 42.0 L 83.5 41.0 L 88.5 41.0 L 91.5 40.0 L 95.0 36.5 L 100.5 30.0 L 110.5 41.0 L 123.0 41.5 L 128.5 42.0 L 135.0 42.5 L 138.0 43.5 L 142.5 54.0 L 151.5 53.0 L 153.5 52.0 L 156.5 51.0 L 161.0 46.5 L 183.5 20.0 Q 185.5 20.5 185.0 23.5 L 185.0 28.5 L 182.0 35.5 L 177.5 43.0 L 166.5 55.0 L 157.0 62.5 L 159.5 67.0 L 190.5 41.0 L 192.0 45.5 L 190.0 51.5 L 185.0 58.5 L 176.5 67.0 L 160.0 78.5 L 162.5 83.0 L 180.0 73.5 L 186.5 70.0 L 191.5 68.0 L 192.0 70.5 L 188.0 77.5 L 181.5 84.0 L 169.5 90.0 L 161.0 93.5 L 162.5 98.0 L 166.0 97.5 L 170.5 96.0 L 187.5 91.0 L 188.0 95.5 L 183.5 101.0 L 175.0 105.5 L 167.5 108.0 L 161.0 108.5 L 157.0 109.5 L 157.0 122.5 L 157.0 125.5 L 156.0 127.5 L 152.0 135.5 L 142.0 155.5 L 139.5 161.0 L 136.5 165.0 L 112.5 179.0 L 112.0 118.5 L 120.0 111.5 L 127.0 108.5 L 148.0 99.5 L 149.0 92.5 L 149.0 78.5 L 147.5 79.0 L 108.5 92.0 L 100.5 81.0 L 92.5 92.0 L 64.5 83.0 L 60.5 81.0 L 56.0 79.5 L 52.5 79.0 L 52.0 91.5 L 53.0 94.5 L 53.5 100.0 L 85.0 113.5 L 87.5 117.0 Q 90.0 118.0 89.0 122.5 L 89.0 133.5 L 89.0 178.5 L 87.5 179.0 L 62.0 162.5 L 48.5 135.0 L 45.0 128.5 L 44.5 127.0 L 44.0 121.5 L 43.5 109.0 L 31.5 108.0 L 27.5 106.0 L 22.5 104.0 L 15.0 98.5 L 14.0 96.5 L 13.0 94.5 L 13.0 90.5 L 14.5 91.0 L 30.5 96.0 L 35.0 97.5 L 38.5 98.0 Q 40.5 97.5 40.0 94.5 L 36.5 92.0 L 30.5 90.0 L 21.0 84.5 L 13.0 78.5 L 11.5 76.0 L 9.0 68.5 Q 10.3 65.8 11.5 68.0 L 38.5 83.0 L 41.0 78.5 L 27.5 69.0 L 13.0 55.5 L 10.0 49.5 L 9.0 42.5 L 11.0 41.5 L 12.5 43.0 L 33.0 60.5 L 38.5 65.0 L 40.0 66.5 L 42.5 67.0 L 44.0 65.5 Q 46.3 64.3 43.5 63.0 L 37.5 57.0 L 25.0 45.5 L 18.5 35.0 L 16.5 30.0 L 16.0 21.5 L 17.5 19.0 Z" /><path desc="l 5 p 0" fill="rgb(208,175,103)" stroke="rgb(208,175,103)" stroke-width="1" opacity="0.996078431372549" d="M 104.5 47.0 L 112.5 48.0 L 128.5 48.0 L 130.5 47.0 L 133.5 47.0 L 139.5 57.0 L 141.0 57.5 L 147.5 58.0 L 149.5 57.0 Q 150.5 59.0 151.5 57.0 L 156.5 56.0 L 154.5 59.0 L 153.0 59.5 L 152.0 64.5 L 155.0 67.5 L 158.0 69.5 L 162.5 70.0 L 182.5 54.0 L 181.5 56.0 L 176.5 61.0 L 155.0 77.5 L 161.0 88.5 L 158.0 90.5 L 162.0 103.5 L 154.0 106.5 L 152.5 111.0 L 152.0 116.5 L 153.0 119.5 L 153.0 124.5 L 134.5 161.0 L 122.0 168.5 L 119.5 170.0 L 116.5 171.0 L 116.0 120.5 L 122.0 115.5 L 130.5 112.0 L 143.0 106.5 L 146.5 105.0 L 152.0 101.5 L 153.0 93.5 L 153.0 78.5 L 149.0 75.5 L 143.5 75.0 L 136.5 78.0 L 120.5 83.0 L 116.5 85.0 L 110.5 86.0 L 102.5 77.0 L 101.0 77.5 L 101.5 76.0 L 96.0 73.5 L 101.0 55.5 L 102.0 51.5 L 102.5 49.0 L 104.5 47.0 Z" /><path desc="l 5 p 1" fill="rgb(208,175,103)" stroke="rgb(208,175,103)" stroke-width="1" opacity="0.996078431372549" d="M 53.5 110.0 L 63.5 110.0 L 68.0 110.5 L 70.0 111.5 L 82.0 116.5 L 84.0 119.5 Q 85.8 120.3 85.0 123.5 L 85.0 132.5 L 85.0 170.5 L 83.5 171.0 L 66.0 160.5 L 52.5 133.0 L 49.0 126.5 L 48.5 125.0 L 48.0 118.5 L 53.5 110.0 Z" /><path desc="l 5 p 2" fill="rgb(208,175,103)" stroke="rgb(208,175,103)" stroke-width="1" opacity="0.996078431372549" d="M 89.5 142.0 L 90.0 179.5 L 88.5 180.0 L 89.0 178.5 L 89.5 142.0 Z" /><path desc="l 5 p 3" fill="rgb(208,175,103)" stroke="rgb(208,175,103)" stroke-width="1" opacity="0.996078431372549" d="M 111.5 142.0 L 112.0 168.5 L 112.0 175.5 Q 111.3 178.8 113.0 179.5 L 111.5 180.0 L 111.5 142.0 Z" /><path desc="l 7 p 0" fill="rgb(195,131,1)" stroke="rgb(195,131,1)" stroke-width="1" opacity="0.6" d="M 94.5 143.0 L 95.0 188.5 L 94.0 188.5 L 94.5 143.0 Z" /><path desc="l 7 p 1" fill="rgb(195,131,1)" stroke="rgb(195,131,1)" stroke-width="1" opacity="0.6" d="M 106.5 144.0 L 107.0 177.5 L 106.0 177.5 L 106.5 144.0 Z" /></svg>