<svg width="200" height="200" version="1.1" xmlns="http://www.w3.org/2000/svg" desc="Created with ImageTracer.java version 1.1.2" ><path desc="l 5 p 0" fill="rgb(0,0,0)" stroke="rgb(0,0,0)" stroke-width="1" opacity="0.0" d="M 0.5 0.0 L 100.0 0.5 L 99.5 17.0 L 97.5 26.0 L 96.0 30.5 L 92.0 38.5 L 90.0 42.5 L 86.0 47.5 L 55.0 90.5 L 78.5 114.0 L 84.5 120.0 L 86.0 121.5 L 87.5 121.0 L 93.5 117.0 L 101.0 110.5 L 94.5 102.0 L 89.0 97.5 L 108.0 69.5 L 113.0 61.5 L 115.0 54.5 L 116.0 47.5 L 116.0 33.5 L 115.0 31.5 L 115.0 28.5 L 109.0 12.5 L 104.0 0.5 L 199.5 0.0 L 200.0 199.5 L 99.5 200.0 L 99.0 183.5 L 100.0 180.5 L 101.0 175.5 L 103.0 169.5 L 107.5 160.0 L 117.5 146.0 L 144.0 109.5 L 111.5 78.0 L 97.0 89.5 L 106.0 98.5 L 108.0 100.5 L 109.0 103.5 L 91.5 129.0 L 88.0 135.5 L 86.5 137.0 L 86.0 139.5 L 84.0 145.5 L 83.0 152.5 L 83.0 166.5 L 84.0 168.5 L 84.0 171.5 L 88.5 184.0 L 95.0 199.5 L 0.5 200.0 L 0.5 0.0 Z" /><path desc="l 6 p 0" fill="rgb(179,29,29)" stroke="rgb(179,29,29)" stroke-width="1" opacity="0.9921568627450981" d="M 101.5 2.0 L 108.5 14.0 L 112.0 23.5 L 113.5 29.0 L 114.5 36.0 L 115.0 49.5 L 113.0 55.5 L 112.5 59.0 L 110.0 64.5 L 104.5 73.0 L 88.0 98.5 L 97.0 107.5 L 99.0 109.5 L 99.5 111.0 L 97.5 113.0 L 86.5 120.0 L 57.0 89.5 L 85.5 51.0 L 91.0 43.5 L 96.0 33.5 L 99.0 25.5 L 100.5 19.0 L 101.0 13.5 L 101.5 2.0 Z" /><path desc="l 3 p 0" fill="rgb(241,196,197)" stroke="rgb(241,196,197)" stroke-width="1" opacity="1.0" d="M 105.5 18.0 L 108.0 24.5 L 110.0 34.5 L 110.5 38.0 L 111.0 46.5 L 110.0 49.5 L 109.5 54.0 L 108.0 58.5 L 104.0 65.5 L 98.5 74.0 L 82.0 98.5 L 93.0 110.5 L 90.0 112.5 Q 89.5 114.5 86.5 114.0 L 69.0 96.5 L 64.5 92.0 Q 62.5 91.5 63.0 88.5 L 87.0 56.5 L 96.0 42.5 L 100.0 35.5 L 102.5 29.0 L 105.5 18.0 Z" /><path desc="l 0 p 0" fill="rgb(227,144,146)" stroke="rgb(227,144,146)" stroke-width="1" opacity="0.996078431372549" d="M 96.5 59.0 L 98.0 59.5 L 97.0 64.5 L 95.0 70.5 L 97.0 70.5 L 86.0 85.5 L 82.0 91.5 L 80.5 94.0 L 80.0 100.5 L 88.0 109.5 L 86.5 110.0 L 67.0 89.5 L 76.5 77.0 L 78.0 77.5 L 81.0 74.5 L 83.5 71.0 L 85.0 70.5 L 93.5 61.0 L 96.5 59.0 Z" /><path desc="l 2 p 0" fill="rgb(250,241,241)" stroke="rgb(250,241,241)" stroke-width="1" opacity="0.14901960784313725" d="M 129.5 68.0 L 145.5 84.0 L 149.5 88.0 L 150.5 90.0 L 134.5 74.0 L 130.5 70.0 L 129.5 68.0 Z" /><path desc="l 6 p 1" fill="rgb(179,29,29)" stroke="rgb(179,29,29)" stroke-width="1" opacity="0.9921568627450981" d="M 128.5 69.0 L 147.5 88.0 L 152.0 92.5 L 153.5 94.0 L 152.0 96.5 L 144.5 107.0 L 117.0 78.5 L 128.5 69.0 Z" /><path desc="l 3 p 1" fill="rgb(241,196,197)" stroke="rgb(241,196,197)" stroke-width="1" opacity="1.0" d="M 128.5 75.0 L 148.0 95.5 L 144.5 100.0 L 138.0 94.5 L 124.0 78.5 L 128.5 75.0 Z" /><path desc="l 2 p 1" fill="rgb(250,241,241)" stroke="rgb(250,241,241)" stroke-width="1" opacity="0.14901960784313725" d="M 111.5 78.0 L 130.5 96.0 L 132.0 95.5 L 134.5 98.0 L 144.0 107.5 L 143.0 110.5 L 140.5 114.0 L 142.0 111.5 L 143.0 109.5 L 111.5 79.0 L 109.0 80.5 L 111.5 78.0 Z" /><path desc="l 7 p 0" fill="rgb(206,93,93)" stroke="rgb(206,93,93)" stroke-width="1" opacity="0.9490196078431372" d="M 112.5 79.0 L 135.0 101.5 L 141.0 107.5 L 142.5 110.0 L 120.0 87.5 L 114.0 81.5 L 112.5 79.0 Z" /><path desc="l 6 p 2" fill="rgb(179,29,29)" stroke="rgb(179,29,29)" stroke-width="1" opacity="0.9921568627450981" d="M 111.5 80.0 L 142.0 109.5 L 116.0 145.5 L 106.0 160.5 L 102.0 168.5 L 100.0 174.5 L 98.5 181.0 L 98.0 186.5 L 97.5 198.0 L 90.5 186.0 L 87.0 176.5 L 84.5 165.0 L 84.0 150.5 L 86.0 144.5 L 86.5 141.0 L 89.0 135.5 L 94.5 127.0 L 111.0 101.5 L 102.0 92.5 L 100.0 90.5 Q 97.8 89.3 100.5 88.0 L 111.5 80.0 Z" /><path desc="l 0 p 1" fill="rgb(227,144,146)" stroke="rgb(227,144,146)" stroke-width="1" opacity="0.996078431372549" d="M 111.5 85.0 L 137.0 109.5 L 135.5 112.0 L 136.0 110.5 L 112.5 86.0 Q 110.1 85.9 111.5 85.0 Z" /><path desc="l 2 p 2" fill="rgb(250,241,241)" stroke="rgb(250,241,241)" stroke-width="1" opacity="0.14901960784313725" d="M 58.5 86.0 L 57.0 88.5 L 56.0 90.5 L 79.0 113.5 L 85.0 119.5 L 86.5 122.0 L 73.0 108.5 L 70.0 105.5 L 68.0 104.5 L 66.0 103.5 L 61.0 98.5 L 56.5 94.0 L 55.0 92.5 L 53.5 93.0 L 52.0 93.5 L 58.5 86.0 Z" /><path desc="l 3 p 2" fill="rgb(241,196,197)" stroke="rgb(241,196,197)" stroke-width="1" opacity="1.0" d="M 110.5 86.0 Q 113.5 85.5 114.0 87.5 L 118.5 92.0 L 136.0 109.5 L 130.0 119.5 L 112.0 143.5 L 102.0 158.5 L 96.0 171.5 L 93.5 182.0 L 89.0 166.5 L 88.0 155.5 L 89.0 152.5 L 89.5 147.0 L 91.0 141.5 L 93.0 137.5 L 98.5 129.0 L 117.0 101.5 L 106.0 89.5 L 110.5 86.0 Z" /><path desc="l 2 p 3" fill="rgb(250,241,241)" stroke="rgb(250,241,241)" stroke-width="1" opacity="0.14901960784313725" d="M 99.5 87.0 L 99.0 88.5 L 98.5 90.0 L 101.0 92.5 L 110.0 101.5 L 109.5 104.0 L 108.0 105.5 L 101.5 115.0 L 103.0 112.5 L 107.0 106.5 L 109.0 101.5 L 100.0 92.5 L 98.0 90.5 L 97.5 89.0 L 99.5 87.0 Z" /><path desc="l 0 p 2" fill="rgb(227,144,146)" stroke="rgb(227,144,146)" stroke-width="1" opacity="0.996078431372549" d="M 62.5 89.0 L 86.5 114.0 L 88.0 114.5 L 86.5 115.0 L 68.0 96.5 L 63.5 92.0 Q 61.1 91.1 62.5 89.0 Z" /><path desc="l 7 p 1" fill="rgb(206,93,93)" stroke="rgb(206,93,93)" stroke-width="1" opacity="0.9490196078431372" d="M 56.5 90.0 L 79.0 112.5 L 85.0 118.5 L 86.5 121.0 L 64.0 98.5 L 58.0 92.5 L 56.5 90.0 Z" /><path desc="l 0 p 3" fill="rgb(227,144,146)" stroke="rgb(227,144,146)" stroke-width="1" opacity="0.996078431372549" d="M 111.5 90.0 L 132.0 109.5 L 131.5 111.0 L 122.5 101.0 L 120.0 102.5 Q 122.0 101.5 120.0 100.5 L 116.0 96.5 L 112.5 92.0 L 111.5 90.0 Z" /><path desc="l 6 p 3" fill="rgb(179,29,29)" stroke="rgb(179,29,29)" stroke-width="1" opacity="0.9921568627450981" d="M 54.5 93.0 L 82.0 121.5 L 70.5 131.0 L 52.0 112.5 L 47.5 108.0 Q 45.5 107.5 46.0 104.5 L 54.5 93.0 Z" /><path desc="l 3 p 3" fill="rgb(241,196,197)" stroke="rgb(241,196,197)" stroke-width="1" opacity="1.0" d="M 54.5 100.0 L 63.0 107.5 L 75.0 121.5 L 70.5 125.0 L 51.0 104.5 L 54.5 100.0 Z" /><path desc="l 7 p 2" fill="rgb(206,93,93)" stroke="rgb(206,93,93)" stroke-width="1" opacity="0.9490196078431372" d="M 122.5 101.0 L 129.0 107.5 L 130.5 109.0 L 131.0 111.5 L 109.0 140.5 L 102.0 150.5 L 99.0 155.5 L 93.5 167.0 L 92.5 162.0 L 92.0 153.5 L 93.0 150.5 L 93.5 147.0 L 97.0 138.5 L 102.0 131.5 L 122.5 101.0 Z" /><path desc="l 0 p 4" fill="rgb(227,144,146)" stroke="rgb(227,144,146)" stroke-width="1" opacity="0.996078431372549" d="M 122.5 105.0 L 127.0 107.5 L 128.0 112.5 L 125.0 117.5 L 128.0 116.5 L 123.5 122.0 L 125.0 119.5 L 124.5 118.0 L 117.0 128.5 L 120.0 127.5 L 115.5 133.0 L 117.0 130.5 L 116.5 129.0 L 109.0 139.5 L 112.0 138.5 L 100.5 154.0 L 101.0 152.5 L 103.0 148.5 L 100.0 150.5 L 96.5 156.0 L 95.0 155.5 L 94.0 152.5 L 95.0 150.5 L 95.0 147.5 L 100.0 136.5 L 104.0 130.5 L 120.5 106.0 L 122.5 105.0 Z" /><path desc="l 2 p 4" fill="rgb(250,241,241)" stroke="rgb(250,241,241)" stroke-width="1" opacity="0.14901960784313725" d="M 48.5 110.0 L 64.5 126.0 L 68.5 130.0 L 69.5 132.0 L 53.5 116.0 L 49.5 112.0 L 48.5 110.0 Z" /></svg>